<?xml version="1.0" standalone="no"?>
<!DOCTYPE svg PUBLIC "-//W3C//DTD SVG 20010904//EN"
 "http://www.w3.org/TR/2001/REC-SVG-20010904/DTD/svg10.dtd">
<svg version="1.0" xmlns="http://www.w3.org/2000/svg"
 width="500.000000pt" height="500.000000pt" viewBox="0 0 500.000000 500.000000"
 preserveAspectRatio="xMidYMid meet">
<metadata>
Created by potrace 1.11, written by Peter Selinger 2001-2013
</metadata>
<g transform="translate(0.000000,500.000000) scale(0.100000,-0.100000)"
fill="#000000" stroke="none">
<path d="M1145 3744 c-61 -46 -110 -87 -110 -91 -1 -4 -14 -44 -30 -89 -25
-70 -31 -79 -44 -68 -16 13 -232 167 -251 179 -5 3 -53 -57 -106 -132 -54 -76
-181 -255 -283 -398 -102 -143 -194 -273 -204 -289 -21 -33 -31 -21 98 -127
50 -40 95 -78 101 -84 6 -5 30 -26 54 -45 24 -19 60 -48 79 -65 63 -54 85 -71
181 -151 113 -94 126 -105 165 -139 55 -48 60 -48 96 -3 19 23 58 70 87 105
l53 63 87 -75 c48 -40 173 -147 277 -236 105 -89 201 -171 215 -183 20 -18
713 -608 799 -681 13 -11 29 -24 35 -30 45 -40 43 -40 103 11 32 27 67 56 78
66 11 9 65 54 120 100 55 46 213 178 350 293 138 114 266 222 286 239 19 17
46 40 60 51 13 11 56 46 94 79 39 32 79 65 90 75 115 95 323 269 333 278 7 7
17 13 21 13 4 0 42 -42 85 -94 98 -120 98 -120 122 -98 10 9 98 82 194 162 96
80 184 152 195 161 11 10 91 76 177 149 87 72 158 136 158 142 0 5 -57 91
-127 189 -123 173 -329 462 -359 504 -8 11 -36 50 -63 88 l-48 67 -106 -75
c-58 -41 -108 -75 -111 -75 -5 0 -26 67 -33 104 -2 11 -4 21 -6 22 -46 39
-233 174 -241 174 -7 0 -39 -13 -72 -29 -106 -51 -323 -151 -329 -151 -1 0
-45 -20 -96 -44 -52 -24 -143 -66 -204 -94 -110 -49 -183 -83 -325 -149 -41
-19 -111 -51 -155 -71 -44 -20 -95 -44 -113 -53 -33 -15 -34 -15 -160 47 -143
70 -550 269 -777 379 -82 40 -191 93 -240 117 l-90 44 -110 -82z"/>
</g>
</svg>
