<?xml version="1.0" standalone="no"?>
<!DOCTYPE svg PUBLIC "-//W3C//DTD SVG 20010904//EN"
 "http://www.w3.org/TR/2001/REC-SVG-20010904/DTD/svg10.dtd">
<svg version="1.0" xmlns="http://www.w3.org/2000/svg"
 width="400.000000pt" height="400.000000pt" viewBox="0 0 400.000000 400.000000"
 preserveAspectRatio="xMidYMid meet">
<metadata>
Created by potrace 1.11, written by Peter Selinger 2001-2013
</metadata>
<g transform="translate(0.000000,400.000000) scale(0.100000,-0.100000)"
fill="#000000" stroke="none">
<path d="M2745 2895 c-399 -186 -748 -345 -756 -345 -9 0 -130 58 -614 295
-316 154 -276 147 -382 64 -53 -41 -60 -52 -81 -117 -13 -39 -27 -74 -32 -77
-6 -3 -8 0 -5 7 2 7 -6 21 -19 30 -28 20 -17 40 -84 -152 -43 -125 -111 -316
-138 -390 -19 -51 -21 -67 -11 -75 25 -23 223 -191 239 -204 15 -11 21 -11 33
-1 9 7 14 19 11 27 -4 11 -1 11 15 2 11 -6 251 -207 532 -448 282 -240 518
-440 525 -445 8 -5 84 53 220 166 288 241 626 525 756 635 104 87 151 117 140
88 -3 -6 2 -18 11 -25 12 -10 19 -10 34 1 38 28 251 210 251 216 0 3 -14 51
-31 107 -16 55 -45 153 -64 216 -94 322 -95 324 -115 305 -19 -17 -40 -13 -40
8 0 7 -5 28 -10 47 -8 28 -27 49 -94 98 -46 34 -85 62 -87 61 -2 0 -94 -43
-204 -94z m-1894 -252 c-12 -20 -14 -14 -5 12 4 9 9 14 11 11 3 -2 0 -13 -6
-23z m2376 -135 c-3 -8 -6 -5 -6 6 -1 11 2 17 5 13 3 -3 4 -12 1 -19z m-2436
-35 c-12 -20 -14 -14 -5 12 4 9 9 14 11 11 3 -2 0 -13 -6 -23z m2486 -165 c-3
-8 -6 -5 -6 6 -1 11 2 17 5 13 3 -3 4 -12 1 -19z m-2566 -55 c-12 -20 -14 -14
-5 12 4 9 9 14 11 11 3 -2 0 -13 -6 -23z m2586 -15 c-3 -8 -6 -5 -6 6 -1 11 2
17 5 13 3 -3 4 -12 1 -19z m-1568 -87 c14 -11 46 -60 71 -110 25 -50 48 -91
52 -91 3 0 34 52 68 115 33 64 65 113 71 109 5 -3 36 -58 68 -122 l58 -117 46
90 c50 100 77 131 128 145 44 13 536 13 544 1 9 -16 -25 -89 -48 -104 -17 -11
-72 -15 -228 -19 -166 -3 -211 -7 -231 -20 -14 -9 -61 -85 -112 -182 -49 -91
-92 -166 -95 -166 -4 0 -35 57 -70 128 l-64 127 -61 -127 c-34 -69 -64 -129
-67 -133 -4 -3 -44 67 -90 156 -46 88 -94 171 -107 184 -31 32 -64 36 -267 35
-196 -2 -209 2 -239 63 -9 19 -16 40 -16 46 0 7 77 12 243 14 286 4 312 2 346
-22z m1491 -74 c0 -2 -10 -12 -22 -23 l-23 -19 19 23 c18 21 26 27 26 19z"/>
</g>
</svg>
