<svg xmlns="http://www.w3.org/2000/svg" viewBox="0 0 400 369.73"><defs><style>.a{isolation:isolate;}.b{fill:#661c19;}.c{opacity:0.1;mix-blend-mode:multiply;}.d{fill:#992c26;}.e,.g{fill:#fff;}.f{fill:#bc372f;}.g{stroke:#1d1d1b;stroke-miterlimit:10;}.h{fill:#e84538;}</style></defs><title>avatar-default</title><g class="a"><path class="b" d="M320.36,254.6s-37.76,29-78.43,29-82.79-29-82.79-29C101.55,286.51,49.6,299.69,0,302.66V400H374.06C359.89,322.84,320.36,254.6,320.36,254.6Z" transform="translate(0 -30.77)"/><path class="c" d="M341.3,256.11C317.1,243,319.52,245,299.67,215s-16.46-40.18-16.46-40.18,2.66,1.09,5.57-2.78,5.08-27.6,3.15-32-3.84-1.16-7.75-2.06c0-5.81,0-49.38-2.9-61-1.56-6.25-5.64-24.8-24.16-24.76-31,.07-37.59-10.44-54.76-13.49-21.79-3.87-30.15,29.45-31.6,44.94s-1.81,54.31-.36,78.52,3.87,46.48,6.29,53.74,14,5.26,15,14.46c-10.17,24.69-91,70.27-123.46,84.31S35.8,336.48,29.51,368.44c-2.21,11.23.42,21.92,4.89,31.56H400V281.23C375.41,271,351.82,261.79,341.3,256.11Z" transform="translate(0 -30.77)"/><path class="d" d="M328.59,249.75C304.38,236.68,306.8,238.62,287,208.6s-16.46-40.18-16.46-40.18,2.66,1.09,5.57-2.78,5.08-27.6,3.15-32-3.84-1.16-7.75-2.06c0-5.81,0-49.38-2.9-61-1.56-6.25-5.64-24.8-24.16-24.76-31,.07-37.59-10.44-54.76-13.49C167.85,28.5,159.49,61.82,158,77.31s-1.81,54.31-.36,78.52,3.87,46.48,6.29,53.74,14,5.26,15,14.46c-10.17,24.69-91,70.27-123.46,84.31s-32.44,21.79-38.73,53.74c-2.71,13.76,1.85,26.71,8.16,37.92H400V280.2C371.2,268,340.92,256.41,328.59,249.75Z" transform="translate(0 -30.77)"/><path class="b" d="M400,278.22c-7.56-3.07-15.12-6.06-22.53-9.1-21.7-8.9-45.12-16.83-64.64-30.15-9.88-6.74-15.89-17.81-22.33-27.58-7.69-11.67-17.29-25-19.2-39.29-0.08-.59-0.16-1.33-0.2-2.08,8,0.18,9.1-20.43,9.36-23.89,0.27-3.67,2.16-14.91-3.08-16.18-1.53-.37-3.7,1.45-5.11-0.05-0.31-.33.1-1.75,0-2.24-0.57-2.86,0-6.45-.06-9.36-0.16-15,.09-30.53-2.17-45.44-2-13.44-8.64-27.42-23.88-28.34-11.42-.69-22.06-1.22-32.88-5.35-7.62-2.91-14.77-6.61-22.84-8.17-23.09-3.24-31.54,30.74-33.2,47.63-3.53,36-1.74,73.66,2.18,109.51,0.77,7.07,1.29,14.55,3.35,21.4s8.66,6.28,13,10.76c8.2,8.44-18.07,26.6-24.06,31.11-25.13,18.95-52.92,34.92-81.1,48.87-19.19,9.5-41.34,15.61-48.89,37.76-4.29,12.6-8.13,28.41-5.83,41.61A66.32,66.32,0,0,0,23.39,400h3.15c-6.13-10.52-10.57-22-9.6-34.37,1.12-14.26,4.5-34.57,16.07-43.94,10.34-8.37,23.67-12.57,35.5-18.4,13.57-6.69,26.85-14,39.88-21.67a458.8,458.8,0,0,0,39.87-26c9.46-7,19.28-14.56,26.39-24.06,1.62-2.17,3.91-5,4.66-7.66,1.55-5.49-4.35-8-8.37-10-6-3.05-6.91-7.43-8-13.7-1.81-10.55-2.72-21.28-3.55-31.94-1.51-19.4-2-38.82-1.83-58.27,0.12-14.11-.17-28.73,2.54-42.65,2.87-14.75,10.14-36.12,28.71-33.51,12.82,2.48,24,9.8,36.9,12.09,8.94,1.58,19.66-.54,27.89,3.63,5.74,2.91,9.4,8.45,11.67,14.3,4.2,10.8,4.34,22.72,4.77,34.15,0.45,11.67.58,23.34,0.58,35V133c3.59,0.39,6.28-1.59,8,2.64,1.2,3,.56,7.56.39,10.73-0.22,4.1-.4,22.84-7.72,20.66-0.36-.11-1.46,2.22-1.55,2.52-1.33,4.32.89,10.09,2.32,14,5.89,16.25,16.66,31.14,26.63,45.12C311,246,332.5,253.9,351.45,261.82c16.14,6.75,32.44,13.17,48.55,20v-3.62Z" transform="translate(0 -30.77)"/><polygon class="e" points="220.93 342.26 261.84 310.97 233.37 274.01 226.3 278.87 236.13 319.25 215.87 335.2 220.93 342.26"/><polygon class="f" points="236.13 319.25 226.3 278.87 222.66 281.38 229.97 318.13 213.04 331.25 215.87 335.2 236.13 319.25"/><polygon class="e" points="97.03 332.77 88.99 320.23 106.69 288.84 102.44 284.72 77.14 314.58 92.02 338.12 97.03 332.77"/><polygon class="g" points="154.17 306.7 112.17 284.38 92.61 319.11 125.46 369.23 164.06 369.23 229.97 318.13 221.57 275.93 154.17 306.7"/><polygon class="f" points="108.6 290.71 106.69 288.84 88.99 320.23 97.03 332.77 99.7 329.93 92.61 319.11 108.6 290.71"/><polygon class="f" points="112.17 284.38 154.17 306.7 221.57 275.93 212.01 269.66 155.94 297.36 119.92 278.46 112.17 284.38"/><path class="f" d="M113.46,355.6l21.37,0a4.17,4.17,0,0,1,4.79,3.48c1,4.26,2.23,9.23,2.23,9.23l9-13.39,3.76,14,6.07-9.52a8.94,8.94,0,0,1,7-3.84c4.75-.11,26.89.2,26.89,0.2s-3.14,6.87-8.29,6.92-13.16,0-16.12,0-4.22-.5-8.58,6.54C156.58,377.32,152,384,152,384l-3.67-15.83L139,383.4s-2.33-9.72-3.63-15.56c-1.27-5.69-2.09-5.89-6.47-6-6.89-.11-11.79-0.09-12.76-0.08C114.15,361.81,112.67,359.57,113.46,355.6Z" transform="translate(0 -30.77)"/><path class="h" d="M112,349.39l22.88-.35a4.43,4.43,0,0,1,5.15,3.63c1.09,4.51,2.41,9.8,2.41,9.8l9.73-14.37L156.27,363l6.54-10.23a9.81,9.81,0,0,1,7.57-4.18c5.16-.19,29.29-0.16,29.29-0.16s-1.39,7.4-7.05,7.53-16.27.19-19.49,0.21-4.59-.48-9.28,7.1c-5.45,8.74-10.38,16-10.38,16l-4-16.88-10,16.35s-2.52-10.35-3.93-16.57c-1.37-6-2.25-6.23-7-6.25-7.38,0-12.63.06-13.67,0.07C112.71,356,111.13,353.6,112,349.39Z" transform="translate(0 -30.77)"/></g></svg>