<?xml version="1.0" encoding="utf-8"?>
<!DOCTYPE svg PUBLIC "-//W3C//DTD SVG 1.1//EN" "http://www.w3.org/Graphics/SVG/1.1/DTD/svg11.dtd">
<svg xmlns="http://www.w3.org/2000/svg" viewBox="0 0 1967.75 770.14"><defs><style>.a{isolation:isolate;}.b{fill:#661c19;}.c{opacity:0.1;mix-blend-mode:multiply;}.d{fill:#992c26;}.e{fill:#fff;}.f{fill:#bc372f;}.g{fill:#e84538;}</style></defs><title>hero-small</title><g class="a"><path class="b" d="M1546.43,397.73c-64,0-130.22-45.69-130.22-45.69-326,180.64-537-20.2-874.94,21.29C222.66,412.45,67.09,632.66,0,770.14H1741.55C1814.49,601.79,1669.79,352,1669.79,352S1610.4,397.73,1546.43,397.73Z"/><path class="c" d="M1912.15,454.94c-24.37-29.7-171.34-80-209.41-100.52s-34.27-17.51-65.49-64.73-25.89-63.2-25.89-63.2,4.19,1.71,8.76-4.38,8-43.41,4.95-50.26-6-1.83-12.18-3.24c0-9.14,0-77.67-4.57-95.95-2.46-9.84-8.88-39-38-38.94-48.81.11-59.12-16.42-86.13-21.22-34.27-6.09-47.41,46.32-49.7,70.69s-2.84,85.42-.56,123.49,6.09,73.1,9.9,84.53,22.08,8.27,23.61,22.74c-16,38.84-143.16,110.52-194.18,132.6s-51,34.27-60.92,84.53,41.88,93.66,46.45,111.94,0.76,49.5,2.28,60.92c1.19,8.91,16.27,44.22,23.58,66.19h348.72c1.3-22.85,8.23-38.38,13-49.44,9.9-22.85,80.72-69.3,112.63-73.87-6,46.81,31.53,93.62,59.77,123.31H1960c2.45-5.14,7.2-18.41,7.74-74.57,0.76-79.2-36.55-112.7-37.31-123.36S1945.24,495.27,1912.15,454.94Z"/><path class="d" d="M1892.15,444.94c-24.37-29.7-171.34-80-209.41-100.52s-34.27-17.51-65.49-64.73-25.89-63.2-25.89-63.2,4.19,1.71,8.76-4.38,8-43.41,4.95-50.26-6-1.83-12.18-3.24c0-9.14,0-77.67-4.57-95.95-2.46-9.84-8.88-39-38-38.94-48.81.11-59.12-16.42-86.13-21.22-34.27-6.09-47.41,46.32-49.7,70.69s-2.84,85.42-.56,123.49,6.09,73.1,9.9,84.53,22.08,8.27,23.61,22.74c-16,38.84-143.16,110.52-194.18,132.6s-51,34.27-60.92,84.53,41.88,93.66,46.45,111.94,0.76,49.5,2.28,60.92c1.39,10.45,21.9,57.23,26.55,76.19h345.55c-0.49-28.42,7.75-46.83,13.22-59.44,9.9-22.85,80.72-69.3,112.63-73.87-6.68,52.48,41.25,105,69.53,133.31h133.35c-1.93-2.56-3.17-4.4-3.29-5.37-0.76-6.09,8.38,0,9.14-79.2s-36.55-112.7-37.31-123.36S1925.24,485.27,1892.15,444.94Z"/><path class="b" d="M1917.76,572.39c-2.12-3.5-5.13-7.37-5.95-11.48-1.09-5.52.81-12.4,1.35-17.91,4-39.83,2.06-88.35-34.76-112.59-36.24-23.86-78.85-39.15-118.79-55.52-34.13-14-71-26.47-101.67-47.42-15.55-10.61-25-28-35.12-43.38-12.09-18.35-27.19-39.31-30.2-61.8-0.12-.93-0.25-2.1-0.32-3.28,12.56,0.29,14.32-32.13,14.72-37.58,0.43-5.77,3.4-23.45-4.85-25.46-2.41-.59-5.82,2.28-8-0.08-0.49-.52.15-2.75,0-3.52-0.9-4.49,0-10.14-.09-14.72-0.25-23.67.15-48-3.42-71.47C1587.42,45,1577,23.06,1553.08,21.61c-18-1.09-34.7-1.93-51.72-8.42-12-4.57-23.22-10.4-35.93-12.85-36.32-5.1-49.6,48.35-52.21,74.91-5.56,56.6-2.73,115.85,3.43,172.25,1.22,11.12,2,22.89,5.27,33.65s13.62,9.87,20.47,16.92c12.9,13.27-28.42,41.84-37.83,48.94-39.53,29.8-83.24,54.92-127.56,76.86-30.18,14.94-65,24.56-76.89,59.38-6.75,19.81-12.78,44.68-9.16,65.44,4.36,25,19.79,46,34.33,66.05,4.55,6.29,10,12.89,12.26,20.45,4,13.56,2.34,29.54,2,43.51-0.18,8-.54,15.67,1.75,23.38,2.86,9.61,6.75,19,10.33,28.32,4.78,12.49,11.59,26.15,14.46,39.75h3.28c-3.06-19.42-13.37-38.83-20.18-57.07-2.86-7.65-6.41-15.6-7.1-23.81-1.07-12.56.57-25.37,0.21-38-0.26-9.07-.62-18.66-5-26.79-4.64-8.56-11.12-16.2-16.75-24.11-15.28-21.48-30.12-46.31-28-73.73,1.77-22.42,7.08-54.38,25.28-69.11,16.27-13.17,37.23-19.78,55.84-28.94,21.34-10.52,42.23-22,62.72-34.08a721.64,721.64,0,0,0,62.71-40.94c14.88-11,30.33-22.9,41.51-37.84,2.55-3.41,6.15-7.87,7.32-12,2.43-8.64-6.85-12.58-13.16-15.79-9.44-4.8-10.86-11.69-12.55-21.55-2.84-16.6-4.27-33.46-5.58-50.24-2.38-30.51-3.15-61.06-2.89-91.65,0.19-22.2-.27-45.19,4-67.08,4.52-23.2,15.94-56.82,45.16-52.71,20.17,3.9,37.68,15.42,58,19,14.06,2.49,30.92-.84,43.87,5.7,9,4.57,14.78,13.28,18.35,22.49,6.6,17,6.82,35.74,7.51,53.71,0.7,18.35.91,36.72,0.92,55.08v0.11c5.65,0.61,9.88-2.49,12.51,4.16,1.88,4.77.87,11.9,0.61,16.88-0.34,6.46-.63,35.93-12.14,32.5-0.57-.17-2.29,3.49-2.44,4-2.09,6.79,1.4,15.88,3.64,22.08,9.27,25.56,26.2,49,41.88,71,19.35,27.14,53.2,39.6,83,52.06,42.38,17.72,85.49,34,126.7,54.38,14.42,7.14,30.4,14.62,42.21,25.84,17.68,16.81,23.35,44.21,24.39,67.56a244,244,0,0,1-1.15,33.88c-0.56,5.92-2.43,12.9-1.69,18.85,1.17,9.4,10.15,19.11,14.54,27.21,25.08,46.18,26.92,101.54,19.67,152.68-1,7.17-4.53,13.76-5.69,20.56a10.13,10.13,0,0,0,1,5.79h5.87q-1.14-1.66-2.26-3.34c-3.59-5.43-1.51-6.61.4-12.16,5-14.42,5.09-31.06,5.72-46.07,1.23-29.35.86-58.51-7.62-86.87C1935.51,604.06,1927.26,588.05,1917.76,572.39Z"/><path class="b" d="M1798.28,756.16c-27.75-34.44-64.65-88.58-56.78-125,6.8-31.44,8.48-53.78,8.48-53.78l-0.85,2.35c-0.28.78-7,19.43-12.56,51.64l0,0.11c-0.17,1.31-.29,2.62-0.39,3.93-28.12,5.87-55.64,24.65-77.86,41.55-16.17,12.3-29,24.88-36.58,43.73a128.87,128.87,0,0,0-9.34,49.42h2.14a127,127,0,0,1,5.48-41.72c5.06-16.17,12.74-27.82,25.78-39a287.5,287.5,0,0,1,58.24-38.2c7.95-4,19.24-10.92,28.41-11.2,2-.06,2.75-0.95,3.51-0.58A91.64,91.64,0,0,0,1738,661c0.23,1.68.49,3.35,0.81,5,7.83,41,37.57,75.11,66.34,104.14H1812C1807.47,765.64,1802.87,761,1798.28,756.16Z"/><path class="b" d="M1625.38,642.9c-56.22-24.79-251-32-359.94,0C1346.39,636.2,1522.13,622.27,1625.38,642.9Z"/><polygon class="e" points="1513.4 538.32 1577.76 489.11 1532.98 430.98 1521.85 438.62 1537.32 502.13 1505.45 527.22 1513.4 538.32"/><polygon class="f" points="1537.32 502.13 1521.85 438.62 1516.12 442.56 1527.63 500.37 1501 521.01 1505.45 527.22 1537.32 502.13"/><polygon class="e" points="1318.53 523.4 1305.89 503.68 1333.72 454.31 1327.05 447.82 1287.25 494.78 1310.65 531.81 1318.53 523.4"/><polygon class="f" points="1336.74 457.24 1333.72 454.31 1305.89 503.68 1318.53 523.4 1322.74 518.93 1311.58 501.91 1336.74 457.24"/><polygon class="e" points="1514.42 434 1408.4 482.4 1342.35 447.28 1311.58 501.91 1383.7 611.95 1527.63 500.37 1514.42 434"/><polygon class="f" points="1342.35 447.28 1408.4 482.4 1514.42 434 1499.38 424.14 1411.19 467.69 1354.54 437.98 1342.35 447.28"/><path class="f" d="M1344.38,510.91l33.61-.08s6-1.1,7.53,5.47,3.5,14.52,3.5,14.52l14.22-21.06,5.92,22,9.55-15a14.06,14.06,0,0,1,11-6c7.47-.18,42.3.32,42.3,0.32s-4.93,10.8-13,10.89-20.69,0-25.35,0c-4.46,0-6.64-.78-13.49,10.29-8,12.77-15.13,23.3-15.13,23.3l-5.78-24.89-14.65,23.92s-3.67-15.28-5.72-24.48c-2-9-3.29-9.26-10.18-9.37-10.83-.17-18.54-0.14-20.07-0.13C1345.46,520.67,1343.13,517.14,1344.38,510.91Z"/><path class="g" d="M1342.07,501.14l36-.55a7,7,0,0,1,8.1,5.7c1.71,7.1,3.79,15.41,3.79,15.41l15.3-22.6,6.46,23.38L1422,506.4a15.43,15.43,0,0,1,11.91-6.58c8.11-.29,46.07-0.25,46.07-0.25s-2.19,11.64-11.09,11.84c-8.74.19-25.6,0.3-30.66,0.33-4.85,0-7.21-.75-14.59,11.16-8.58,13.75-16.32,25.1-16.32,25.1L1401,521.46l-15.79,25.71s-4-16.29-6.18-26.06c-2.15-9.5-3.54-9.8-10.94-9.83-11.61,0-19.87.09-21.5,0.12C1343.19,511.45,1340.72,507.75,1342.07,501.14Z"/></g></svg>
