<?xml version="1.0" encoding="utf-8"?>
<!-- Generator: Adobe Illustrator 19.2.1, SVG Export Plug-In . SVG Version: 6.00 Build 0)  -->
<svg version="1.1" id="Calque_1" xmlns="http://www.w3.org/2000/svg" xmlns:xlink="http://www.w3.org/1999/xlink" x="0px" y="0px"
	 viewBox="0 0 1967.8 770.1" style="enable-background:new 0 0 1967.8 770.1;" xml:space="preserve">
<style type="text/css">
	.st0{fill:#9E5016;}
	.st1{opacity:0.1;enable-background:new    ;}
	.st2{fill:#DB711B;}
	.st3{fill:#FFFFFF;}
	.st4{fill:#F0801C;}
	.st5{fill:#F8A916;}
</style>
<g>
	<path class="st0" d="M1352.2,373.8c-337.9-41.5-475.2,164.9-801.2-15.8c0,0-37.3,42.9-101.3,42.9S370.4,378,370.4,378
		s-65.2,213.5,38.2,380.5c2.5,4.1,5.1,7.9,7.9,11.6h1511.2C1864.4,650.1,1698.3,416.3,1352.2,373.8z"/>
	<path class="st1" d="M680.4,473.8c-2.2-11.6,11-35.7,0-63.7s-71.9-29.9-104.4-48.4s-53.9-30.2-53-49.7s33.2-12.4,42.8-28.4
		c12.8-21.5,15-85.7,11.6-131.7c-2.1-28.8-7.7-68.4-24.8-79.5c0,0-10.8-18.5-32.5-19.5c0,0-3.3,0.1-14.4-4.7s-56.3-0.2-74.3,5
		c-41.3,12-91.3,55.4-102.1,64.8c-7.7,6.7-25.2,14.8-40.9,13.9s-72.1,9.4-108.5,36.4c20.9-10.4,36.9-5.6,41.5-6s-3.7,6.9-5.8,12.1
		s-40,47.9-46,62.1s-16.8,71.8,19.9,112.5c-5.6-31.5,12.8-58.1,23.7-60c0,5.4-5.1,3.9,4.8,41.8s41.2,51,54.3,60.6
		c-0.8-5.9,4.1-16.4,8.6-25.5s4.6-0.4,7.4,2.9s20.5,16.6,39.2,24.8s50.9-2.5,50.9-2.5c8.8-2.7-85.6,29.1-103.9,46.7
		c-23.3,22.3-122.1,310.3-125.5,327.3c-0.3,1.5-0.6,3.2-0.8,5h87.3c-1.1-17.9-0.3-29.1,1.7-38.1c2-8.7,26.9-46.9,52.6-82.5
		c17.2-23.8,34.7-46.5,45.9-58.4c29.7,19.5,69.6,59.4,96,96c16.8,23.3,20.5,54.9,19.6,83.1H664c-31.1-95.4-17-157.2-2.2-163
		c22.4-8.7,54.3-32.3,46.7-67.1C704.5,521.8,684.5,496,680.4,473.8z"/>
	<path class="st2" d="M660.4,463.8c-2.2-11.6,11-35.7,0-63.7s-71.9-29.9-104.4-48.4s-53.9-30.2-53-49.7s33.2-12.4,42.8-28.4
		c12.8-21.5,15-85.7,11.6-131.7c-2.1-28.8-7.7-68.4-24.8-79.5c0,0-10.8-18.5-32.5-19.5c0,0-3.3,0.1-14.4-4.7s-56.3-0.2-74.3,5
		c-41.3,12-91.3,55.4-102.1,64.8c-7.7,6.7-25.2,14.8-40.9,13.9s-72.1,9.4-108.5,36.4c20.9-10.4,36.9-5.6,41.5-6s-3.7,6.9-5.8,12.1
		s-40,47.9-46,62.1s-16.8,71.8,19.9,112.5c-5.6-31.5,12.8-58.1,23.7-60c0,5.4-5.1,3.9,4.8,41.8s41.2,51,54.3,60.6
		c-0.8-5.9,4.1-16.4,8.6-25.5s4.6-0.4,7.4,2.9s20.5,16.6,39.2,24.8s50.9-2.5,50.9-2.5c8.8-2.7-85.6,29.1-103.9,46.7
		c-23.3,22.3-122.1,310.3-125.5,327.3c-0.9,5-1.5,10-1.8,15h89c-2.1-24-1.4-37.6,1-48.1c2-8.7,26.9-46.9,52.6-82.5
		c17.2-23.8,34.7-46.5,45.9-58.4c29.7,19.5,69.6,59.4,96,96c18.8,26.1,21.1,62.6,19.1,93.1h216.7l-0.5-1.4
		c-34.8-100.2-20.4-165.6-5.1-171.5c22.4-8.7,54.3-32.3,46.7-67.1C684.5,511.8,664.5,486,660.4,463.8z"/>
	<path class="st0" d="M415.2,681.8C399,655,375.4,631,352.6,609.7c-10.7-10.2-22.2-19.6-34.2-28.1c5.4-6.1,10.9-12.5,17.4-17.4
		c0.6-0.4,3.2-2.5,3.9-2.1c-0.6-0.4-1.1-3.4-2.3-4.3c-0.9-0.7-3.1,1.3-3.7,1.7c-7.3,5.3-13.3,12.7-19.2,19.3
		c-27.7,29.8-51.1,64.5-73.5,98.3c-8.3,12.5-18.3,25.6-23.9,39.6c-3,7.5-3.3,16.2-3.4,24.2c-0.1,9.8,0.4,19.5,1.4,29.2h2.5
		c-1.3-11.9-2.1-23.9-0.8-35.9c1.1-10.1,4.7-17.6,9.9-26.3c9.5-16,20-31.5,30.6-46.8c12.2-17.6,24.7-34.9,37.9-51.8
		c5.2-6.7,10.5-13.3,16-19.7c3-3.4,4.2-6.1,9-4.3c3.5,1.3,7.4,5.3,10.3,7.6c14.8,11.7,28.8,24.4,41.8,38.1
		c15.8,16.3,32.4,34,43.7,53.8c14.4,25.2,15.9,56.1,13.5,85.3h2.8c0.1-2.4,0.3-4.7,0.3-7.1C433.4,735,429.9,706.2,415.2,681.8z"/>
	<path class="st0" d="M666.1,429.7c0.5-11.4-1.5-23.6-7.4-33.6c-11.7-19.6-39.3-24.7-59.5-30.4c-14.7-4.2-29.8-8.2-43.3-15.5
		c-14.9-8-31.5-16.5-43.8-28.3c-13.5-13-8.5-27.2,7.2-32.3c10.8-3.5,23.2-4.9,28.9-16c5.9-11.4,7.6-25.3,9.1-37.9
		c1.8-16.3,2.8-32.6,2.7-49c0.2-31.8-0.5-65.8-10.2-96.3c-4.7-14.8-13-25.3-23.1-36.1c-8.3-8.9-17.3-11.4-28.8-13.5
		c-5.1-1-9.6-3.5-14.6-5c-5.3-1.6-11.1-1.6-16.6-1.6c-28.2,0-56.5,4.5-81.7,17.4c-25.8,13-49.2,30.8-71.1,49.5
		c-10.4,8.8-21.1,15.5-34.8,18c-11.2,2.1-22.9,1-34.2,3c-30.4,5.4-61.1,16.1-86.2,34.2c-0.3,0.2,2.1,4.5,2.5,4.3
		c12.2-5.7,25.7-7.9,39.1-6.3c-2.4,4.8-8.2,11.6-10.3,14.3c-5.8,7.6-12,14.9-18,22.4c-9.8,12.3-21.8,25-26,40.5
		c-10.2,37.8-1.3,80,24.4,109.6c0,0,0.3,0.4,0.3,0.1c-2.2-14.4-0.5-29.1,6.2-42.2c3.2-6.1,7.8-13.4,14.4-16.6
		c-0.5,3.2-0.7,6.5-0.4,9.7c1.8,15.1,5.6,31.2,12.6,44.8c11.4,22,30.3,32.9,49.7,46.8c0.1,0.1,0.1,0.1,0.1-0.1
		c-0.2-8.4,4.3-18.3,8.5-25.4c3.1-5.1,3-3.8,5.3,0c4.8,7.9,14.7,13.1,22.4,17.8c13.3,8.1,25.4,13.6,41,12.9
		c-5.5,2.1-11,4.2-16.4,6.4c-19.4,7.7-43.9,15.2-59.8,29.4c-7.3,6.5-11.5,17.2-15.6,25.8c-8,17-15.1,34.4-22.1,51.9
		c-31.3,78.4-60.3,158.2-85.5,238.8c-3,9.5-4.8,19.2-5.4,29.2h2.8c0-0.5,0.1-1.1,0.1-1.6c0.9-10.6,3.9-20,7.2-30.1
		c5.4-16.7,11.1-33.4,16.8-50c16.1-46.9,32.9-93.6,50.4-140c13.7-36.2,26.6-74,45.5-107.9c7-12.5,17.2-18.3,30.1-24.6
		c22-10.8,45-19.5,67.9-27.9c4.3-1.6,9.8-2.6,13.7-5c0.2-0.1-1.9-4.4-2.5-4.3c-0.2,0-0.4,0.1-0.6,0.2c-8.1,2.6-16.5,4.4-24.9,5.2
		c-17,1.6-30.4-3.8-44.8-12.5c-8.5-5.2-16.7-10-21.8-18.4c-5.4-9.1-10,8.3-11.8,13.1c-1.5,3.9-1.5,11.8-5.1,11.5
		c-3.2-0.3-9.2-5.9-11.9-7.6c-14.8-9.7-28-21.5-34.8-38.5c-4.8-12.1-8.8-27.5-8.9-40.6c0-3.4,1.2-6.5,1.3-9.9c0-0.5-2-4.4-2.5-4.2
		c-9.9,2.6-16.3,14.2-19.8,22.9c-2.6,6.3-4.2,13-4.7,19.8c-0.3,3.4,0.3,7-0.1,10.3c1.2,2.2,0.8,3.8-1,4.8
		c-5.3-6.2-9.6-13.2-12.8-20.6c-10.1-23-11.4-50.7-5.8-75.1c3.9-17,16.1-30.3,26.7-43.6c6.1-7.7,12.5-15.2,18.4-23
		c2.9-3.8,11.7-13.8,10.8-17.7c-0.2-0.8-1.6-4.1-2.5-4.2c-8-1.3-16.2-1.3-24.2,0.1c21-11.8,44.6-19.3,68-23.7
		c9.2-1.6,18.6-2.4,28-2.5c14.5-0.4,28.6-6.5,39.5-15.7c19.1-16.2,38.8-31.7,60.3-44.6C397.6,49,422.4,41.7,451,39.3
		c10.6-0.9,23-2.4,33.5,0.4c5.1,1.4,9.7,4.2,14.9,5.2s10.3,1.3,15.4,3.5c8.2,3.5,13.4,9.3,18.8,16.1c4.6,5.8,9.2,10.2,12.5,18.3
		c1.5,4,2.7,8.1,3.6,12.2c1.9,8,3.4,16.1,4.4,24.2c4.1,31.6,4.5,64,2.3,95.7c-1.5,20.8-1.4,57.2-24.9,66
		c-8.7,3.3-22.6,3.8-27.9,12.6c-4,6.6-1.2,15.2,2.2,21.5c4,7.2,10,12.8,16.6,17.7c13.2,9.8,27.4,18.1,42.3,25
		c24.6,11.1,52.2,13.8,76.5,25.7c4.7,2.3,9.7,5.1,13.4,8.9c8.5,8.6,9.6,23.5,8.9,34.9c-0.7,12.2-6.5,25.3-3.7,37.5
		c6.7,29.4,36.5,55.5,26.5,87.3c-4.1,13.1-13.8,23.8-24.8,31.7c-7.3,5.3-17.3,7.7-24,13.4c-10.5,9-11.9,29.2-12.9,41.8
		c-2.3,29.6,2.2,59.7,9.2,88.4c3.6,14.5,7.8,28.8,12.4,43h2c-11.5-36-21.3-72.3-21.6-110.7c-0.1-16.9-0.2-42.3,11.6-56.2
		c5.4-6.4,15.6-8.5,22.6-13.1c12-7.9,22.8-18.8,27.5-32.6c10.7-31.2-17.3-58-25.3-86.1C659.2,457.6,665.5,443.6,666.1,429.7z"/>
	<path class="st0" d="M614.1,602.6C587.1,617,491,627,436,614.6C476.3,615.3,563.7,616.4,614.1,602.6z"/>
	<polygon class="st3" points="450.1,485.6 396.8,457 429.7,418.4 438.9,422.8 429.5,463.6 455.9,478.3 	"/>
	<polygon class="st4" points="429.5,463.6 438.9,422.8 443.6,425.1 437.1,462.2 459.2,474.2 455.9,478.3 	"/>
	<polygon class="st3" points="604.1,468.6 613.2,455.6 588.9,425.5 593.9,421.1 627.6,449.3 610.7,473.6 	"/>
	<polygon class="st4" points="586.6,427.4 588.9,425.5 613.2,455.6 604.1,468.6 600.5,466 608.6,454.7 	"/>
	<polygon class="st3" points="444.6,419.6 530.9,446.1 581.7,421.3 608.6,454.7 556.4,527.2 437.1,462.2 	"/>
	<polygon class="st4" points="581.7,421.3 530.9,446.1 444.6,419.6 456.1,412.8 528,436.9 571.6,415.9 	"/>
	<path class="st4" d="M583,461.7l-26.7,1.3c0,0-4.8-0.5-5.7,3.8s-2.1,9.3-2.1,9.3l-12.2-12.8l-3.7,14.2l-8.3-9.1
		c-2.4-2.3-5.7-3.6-9-3.4c-5.9,0.2-33.5,1.9-33.5,1.9s4.4,6.6,10.8,6.4s16.4-0.8,20.1-1c3.5-0.2,5.2-0.8,11.2,6
		c6.9,7.8,13.1,14.2,13.1,14.2l3.5-16l12.7,14.6c0,0,2.2-9.8,3.4-15.7c1.2-5.8,2.2-6,7.7-6.3c8.6-0.5,14.7-0.8,15.9-0.9
		C582.6,468,584.3,465.6,583,461.7z"/>
	<path class="st5" d="M584.4,455.4l-28.6,1c0,0-5.2-0.5-6.2,3.9s-2.3,9.9-2.3,9.9l-13.2-13.7l-4.1,15.1l-8.9-9.8
		c-2.6-2.5-6.1-3.9-9.8-3.7c-6.5,0.1-36.6,1.6-36.6,1.6s2.3,7.3,9.3,7.1s20.3-0.8,24.3-1c3.8-0.2,5.7-0.8,12.1,6.5
		c7.4,8.4,14.1,15.3,14.1,15.3l3.8-17.1l13.7,15.7c0,0,2.4-10.5,3.7-16.8c1.3-6.1,2.4-6.4,8.2-6.6c9.2-0.5,15.8-0.7,17.1-0.8
		C583.9,462,585.7,459.6,584.4,455.4z"/>
</g>
</svg>
