<!DOCTYPE svg PUBLIC “-//W3C//DTD SVG 1.1//EN”
“http://www.w3.org/Graphics/SVG/1.1/DTD/svg11.dtd”>
<svg style="position: absolute; width: 0; height: 0;" width="0" height="0" version="1.1" xmlns="http://www.w3.org/2000/svg" xmlns:xlink="http://www.w3.org/1999/xlink">
	<defs>
		<symbol id="sw-logo" viewBox="0 0 500 276.37">
			<title>Logo SudWeb</title>
			<g id="sw-hands">
				<polygon id="sw-right" points="437.32 16.02 422.1 26.8 449.67 121.01 409.73 155.09 421.66 169.39 500 104.17 437.32 16.02"/>
				<polygon id="sw-left" points="90.31 155.04 50.33 121.01 82.52 30.07 62.68 16.02 0 104.17 78.34 169.39 90.31 155.04 90.31 155.04"/>
			</g>
			<g id="sw-hands-shadows">
				<polygon id="sw-right-2" points="422.1 26.8 414.21 32.39 436.7 118.5 402.84 146.83 409.73 155.09 449.67 121.01 422.1 26.8"/>
				<polygon id="sw-left-2" points="91.24 36.25 82.52 30.07 50.33 121.01 90.31 155.04 96.71 147.42 62.1 117.92 91.24 36.25"/>
			</g>
			<polygon id="sw-heart" points="410.57 18.46 248.01 87.81 97.95 17.43 62.1 117.92 248.01 276.37 436.7 118.5 410.57 18.46"/>
			<polygon id="sw-heart-top" points="97.95 17.43 248.01 87.81 410.57 18.46 386.14 0 247.99 63.3 120 0.96 97.95 17.43"/>
			<path id="sw-wave-shadow" d="M137.42,133.65l65.41-.3a15.65,15.65,0,0,1,16,8.58c5.33,10.36,11.54,22.2,11.54,22.2l17.76-32.56,17.17,33.15,11.54-22.49s4.44-8.88,16.57-9.17,66.3,0.3,66.3.3-5.33,15.39-17.46,15.69-32.08.52-39.51,0.59c-7.2.07-11-1-19.09,15.39-9.38,18.71-18.05,34-18.05,34l-17.46-35.52-17.17,35.81s-11.84-22-18.94-35.81-9.62-14.21-22.49-14.21c-20.73,0-35.76.25-38.77,0.3C144.42,149.74,138,144,137.42,133.65Z"/>
			<path id="sw-wave" d="M127.65,117.07l71.16-.32a17,17,0,0,1,17.39,9.34c5.8,11.27,12.56,24.15,12.56,24.15l19.32-35.42,18.67,36.06,12.56-24.47s4.83-9.66,18-10,72.12,0.32,72.12.32-1.2,16.74-14.4,17.06-39.49.56-47.58,0.64c-7.84.08-11.91-1.09-20.77,16.74-10.21,20.35-19.64,37-19.64,37l-19-38.64-18.67,39s-12.88-24-20.61-39-10.46-15.45-24.47-15.45c-22.55,0-38.9.27-42.18,0.32C135.27,134.57,128.3,128.34,127.65,117.07Z"/>
		</symbol>
		<symbol id="educ" viewBox="0 0 32 32">
			<path d="M27,6H11a5,5,0,0,0-5,5V27a5,5,0,0,0,5,5H27a5,5,0,0,0,5-5V11A5,5,0,0,0,27,6ZM13,28a3,3,0,1,1,3-3A3,3,0,0,1,13,28Zm0-12a3,3,0,1,1,3-3A3,3,0,0,1,13,16Zm6,6a3,3,0,1,1,3-3A3,3,0,0,1,19,22Zm6,6a3,3,0,1,1,3-3A3,3,0,0,1,25,28Zm0-12a3,3,0,1,1,3-3A3,3,0,0,1,25,16ZM25.9,4A5,5,0,0,0,21,0H5A5,5,0,0,0,0,5V21a5,5,0,0,0,4,4.9V6A2,2,0,0,1,6,4H25.9Z"/>
		</symbol>
		<symbol id="well" viewBox="0 0 32 32">
			<path d="M16,0A16,16,0,1,0,32,16,16,16,0,0,0,16,0Zm5.33,7.75c1.1,0,2,1.19,2,2.67s-0.9,2.67-2,2.67-2-1.19-2-2.67S20.23,7.75,21.33,7.75Zm-10.77,0c1.1,0,2,1.19,2,2.67s-0.9,2.67-2,2.67-2-1.19-2-2.67S9.46,7.77,10.57,7.77Zm5.27,18c-5.47,0-9.14-3.58-9.8-9.54H7.32q1.57,6.92,8.5,6.92t8.5-6.92h1.33C25,22.17,21.31,25.75,15.83,25.75Z"/>
		</symbol>
		<symbol id="expe" viewBox="0 0 32 32">
			<path d="M25.64,9.63V6.39H6.39V9.63H25.64Zm-6.39,9.62V16H6.39v3.23H19.25Zm-12.86-8v3.23H25.64V11.2H6.39ZM28.87,0a3,3,0,0,1,2.22.94A3,3,0,0,1,32,3.16V22.41a3.16,3.16,0,0,1-.94,2.26,3,3,0,0,1-2.22,1H6.39L0,32V3.16A3,3,0,0,1,.94.94,3,3,0,0,1,3.16,0H28.87Z"/>
		</symbol>
		<symbol id="crea" viewBox="0 0 32 32">
			<path d="M16.14,0a8.73,8.73,0,0,0-9,8.85c0,4.73,4.4,7.71,4.4,15.44H16l4.31,0c0.13-7.79,4.46-10.86,4.46-15.5A8.59,8.59,0,0,0,16.14,0ZM19.8,25.44H12.14a0.55,0.55,0,1,0,0,1.09H19.8A0.55,0.55,0,0,0,19.8,25.44Zm0,2.19H12.14a0.55,0.55,0,1,0,0,1.09H19.8A0.55,0.55,0,0,0,19.8,27.62Zm-7.11,2.19v1.09A1.09,1.09,0,0,0,13.78,32h4.39a1.09,1.09,0,0,0,1.09-1.09V29.81H12.69Z"/>
		</symbol>
		<symbol id="clap" viewBox="0 0 400 400">
			<path d="M75,25H0v75H125Zm250,75L275,25H225l50,75h50Zm-100,0L175,25H125l50,75h50Zm100,75H275l50-50H275l-50,50H175l50-50H175l-50,50H75l50-50H0V375H400V125H375Zm0-150,50,75h25V25H325Z"/>
		</symbol>
		<symbol id="move" viewBox="0 0 400 400">
			<path d="M126.8,114.8c25.2,0,46.4-20.8,46.4-46.8a46.61,46.61,0,0,0-46.8-46.8C100.4,21.2,80,42,80,68A46.61,46.61,0,0,0,126.8,114.8Zm146.8,264a46.8,46.8,0,0,0,0-93.6c-25.2,0-46.8,20.8-46.8,46.8A46.61,46.61,0,0,0,273.6,378.8ZM333.2,280L400,213.2H266.8ZM0,186.8H133.2L66.8,120ZM200,360V306.8C142,306.8,93.2,258,93.2,200V170.8H40V200C40,285.2,114.8,360,200,360ZM306.8,229.2H360V200c0-85.2-74.8-160-160-160V93.2c58,0,106.8,48.8,106.8,106.8v29.2Z"/>
		</symbol>
		<symbol id="write" viewBox="0 0 400 400">
			<path d="M350,138.39V350a50,50,0,0,1-50,50H50A50,50,0,0,1,0,350V100A50,50,0,0,1,50,50H261.6l-50,50H50V350H300V188.4Zm-38.38-103L293.95,53l53,53,17.68-17.68ZM347,0L329.3,17.68l53,53L400,53ZM117.19,229.83l53,53L329.3,123.75l-53-53ZM100,300h50l-50-50v50Z"/>
		</symbol>
		<symbol id="people" viewBox="0 0 400 400">
			<path d="M252.17,242.1s-107.51,0-147.83,94.09c0,0,67.32,26.87,147.83,26.87S400,336.18,400,336.18C359.69,242.1,252.17,242.1,252.17,242.1Zm0-13.41c40.31,0,67.18-40.31,67.18-107.53S252.17,54,252.17,54,185,54,185,121.16,211.86,228.69,252.17,228.69ZM121.74,182.83c13.25,0,24.63-5.5,33.65-15.39a193.28,193.28,0,0,1-5.18-46.28c0-25.83,9.93-41.67,22.16-51.44C159,39,121.74,38.95,121.74,38.95s-55.34,0-55.34,55.34S88.54,182.83,121.74,182.83Zm52.17,43.37L172,204.32a157.49,157.49,0,0,0-50.3-10.43S33.2,193.89,0,271.37c0,0,42.8,17.06,98.17,21.22C146.4,242.1,173.91,226.2,173.91,226.2Z"/>
		</symbol>
		<symbol id="thumb" viewBox="0 0 400 400">
			  <path d="M281.07,141.38c-3-7.89,78.64-80.75,31.07-139.8C301-12.22,263.22,67.69,209.58,103.87c-29.6,20-98.47,62.44-98.47,85.93v152c0,28.24,109.2,58.15,192.17,58.15,30.42,0,74.49-190.57,74.49-220.84S284,149.29,281.07,141.38ZM88.89,143.49c-14.62,0-66.67,8.89-66.67,69.4V320.62c0,60.47,52,67.13,66.67,67.13S66.67,375,66.67,337.53V195.91C66.67,156.63,103.49,143.49,88.89,143.49Z"/>
		</symbol>
		<symbol id="clock" viewBox="0 0 400 400">
			  <path d="M361,176.32C342.14,124.06,296.14,84,239,71.19A81,81,0,1,1,361,176.32ZM205,39.38v51c77.83,3.17,140,67.1,140,145.7a145.17,145.17,0,0,1-29.24,87.4l33.82,58.6-28.1,16.24-28.95-50.16a145.88,145.88,0,0,1-186.66.4L76.16,400l-28.1-16.24L82.59,324A145.13,145.13,0,0,1,53,236.09C53,158,114.33,94.44,191.42,90.47V39.38A20.39,20.39,0,1,1,205,39.38ZM85.42,236.09A113.56,113.56,0,1,0,199,122.54,113.55,113.55,0,0,0,85.42,236.09ZM233,260.65H192.27a13.59,13.59,0,0,1-13.59-13.59V192.71a13.58,13.58,0,1,1,27.17,0v40.75H233A13.59,13.59,0,0,1,233,260.65ZM39,176.32a81,81,0,1,1,122-105.13C103.87,84,57.87,124.06,39,176.32Z"/>
		</symbol>
		<symbol id="stop" viewBox="0 0 400 400">
			  <path d="M200,0C89.54,0,0,89.54,0,200S89.54,400,200,400s200-89.54,200-200S310.46,0,200,0Zm0,362.5A162.5,162.5,0,1,1,362.5,200,162.5,162.5,0,0,1,200,362.5ZM125,125H275V275H125V125Z"/>
		</symbol>
		<symbol id="rocket" viewBox="0 0 294.3 400">
			<path d="M244.4,204.1c-5.9,50.3-22,92-34.5,118.2c7.9,5,19.1,15.4,21.8,25.8c6.1,23.1-10.2,44.2,5.1,51c11.2,5,35.7-10.2,54.4-96.9C306.1,233,262.6,210.4,244.4,204.1z"/>
			<path d="M85.2,321.8c-12.5-26.4-28.5-68-34.3-118.1c-17.6,5.8-63,28-47.8,98.5c18.7,86.7,43.2,101.9,54.4,96.9c15.3-6.8-1-27.9,5.1-51C65.4,337.4,77.2,326.6,85.2,321.8z"/>
			<path d="M132.8,354.2c1.3,25.3,8.1,44,16.4,44c8.3,0,15.1-18.7,16.4-44H132.8z"/>
			<path d="M148.3,0h-1.4C33.6,59,58.5,201.8,58.5,201.8c9.6,85,49.9,144,49.9,144h78.5c0,0,40.2-59,49.9-144C236.8,201.8,261.7,59,148.3,0z M147.7,182.9c-9.9,0-17.9-8-17.9-17.9c0-9.9,8-17.9,17.9-17.9s17.9,8,17.9,17.9C165.6,174.9,157.6,182.9,147.7,182.9z M147.1,114.8c-16.7,0-30.2-13.5-30.2-30.2s13.5-30.2,30.2-30.2s30.2,13.5,30.2,30.2S163.8,114.8,147.1,114.8z"/>
		</symbol>
		<symbol id="flickr" viewBox="0 0 500 500">
			<title>flickr</title>
			  <path d="M0,250A109.38,109.38,0,1,1,109.38,359.38,109.37,109.37,0,0,1,0,250Zm281.25,0A109.38,109.38,0,1,1,390.63,359.38,109.37,109.37,0,0,1,281.25,250Z"/>
		</symbol>
		<symbol id="twitter" viewBox="0 0 500 500">
			<title>twitter</title>
			  <path d="M500,95.17a214.82,214.82,0,0,1-51.39,53q0.32,4.45.32,13.32a291.08,291.08,0,0,1-12.06,82.33,297.45,297.45,0,0,1-36.65,78.84,310.11,310.11,0,0,1-58.54,66.78q-33.95,29-81.84,46.31T157.35,453Q71.39,453,0,407a217.7,217.7,0,0,0,24.75,1.28q71.39,0,127.22-43.77a102.69,102.69,0,0,1-95.81-71.06A130.12,130.12,0,0,0,75.51,295a105.89,105.89,0,0,0,27-3.49,100.73,100.73,0,0,1-58.84-35.37Q20.32,228.1,20.32,191v-1.28a101.59,101.59,0,0,0,46.31,13,102.59,102.59,0,0,1-33.32-36.49A99.56,99.56,0,0,1,21,117.39a100.35,100.35,0,0,1,14-51.71,290.71,290.71,0,0,0,93.44,75.67,285.38,285.38,0,0,0,117.86,31.57,113.85,113.85,0,0,1-2.54-23.47q0-42.52,30-72.48t72.48-30Q390.58,47,421,79.34a200.78,200.78,0,0,0,65-24.75Q474.32,91.07,441,111.05a204,204,0,0,0,59-15.86Z"/>
		</symbol>
		<symbol id="facebook" viewBox="0 0 500 500">
			<title>facebook</title>
			<path d="M379.81,3.63V83H332.64q-25.85,0-34.87,10.81t-9,32.44V183h88l-11.71,88.94H288.75V500H196.81V271.94H120.19V183h76.62V117.5q0-55.89,31.25-86.69T311.29,0q44.17,0,68.52,3.6v0Z"/>
		</symbol>
		<symbol id="vimeo" viewBox="0 0 500 500">
			<title>vimeo</title>
			  <path d="M499.74,133.94q-3.07,72.48-102,200Q295.49,466.29,225.15,466.29q-43.62,0-73.72-80.78-13.53-49.15-40.56-148Q88.76,157,62.65,157q-5.52,0-39,23.35L0,150.24q7.37-6.45,33.16-29.65T73.09,85.11q47.93-42.38,74-44.84,29.17-2.77,47,17T219,119.83Q232.54,208,239.28,234.4q16.89,76.49,36.86,76.49,15.67,0,47.3-49.46,31-49.46,33.48-75.57,4-42.7-33.48-42.7-17.52,0-37.17,8,36.86-120.72,141-117.34Q504.36,36.26,499.74,133.94Z"/>
		</symbol>
	</defs>
</svg>
