<?xml version="1.0" encoding="utf-8"?>
<!-- Generator: Adobe Illustrator 19.2.1, SVG Export Plug-In . SVG Version: 6.00 Build 0)  -->
<svg version="1.1" id="Super_Hero" xmlns="http://www.w3.org/2000/svg" xmlns:xlink="http://www.w3.org/1999/xlink" x="0px" y="0px"
	 viewBox="0 0 1956.7 669.1" enable-background="new 0 0 1956.7 669.1" xml:space="preserve">
<g id="mantle">
	<path fill="#661C19" d="M1535.4,318.5c-64,0-130.2-45.7-130.2-45.7c-326,180.6-537-20.2-874.9,21.3C228,331.2,72.5,531.3,0,669.1
		h1738.6c52.8-167.3-79.9-396.3-79.9-396.3S1599.3,318.5,1535.4,318.5z"/>
</g>
<path id="body_shadow" opacity="0.1" fill="#010202" d="M1635.3,641.5c9.9-22.8,80.7-69.3,112.6-73.9
	c-4.7,36.5,17.2,73.1,40.4,101.5H1954c1.3-11.1,2.4-27.6,2.7-52.7c0.8-79.2-36.6-112.7-37.3-123.4c-0.8-10.7,14.8-76.9-18.3-117.3
	c-24.4-29.7-171.3-80-209.4-100.5c-38.1-20.6-34.3-17.5-65.5-64.7c-31.2-47.2-25.9-63.2-25.9-63.2s4.2,1.7,8.8-4.4
	c4.6-6.1,8-43.4,4.9-50.3c-3-6.9-6-1.8-12.2-3.2c0-8.3,0-65.1-3.4-89.4h-174.6c-0.2,1.4-0.3,2.7-0.4,4c-2.3,24.4-2.8,85.4-0.6,123.5
	c2.3,38.1,6.1,73.1,9.9,84.5c3.8,11.4,22.1,8.3,23.6,22.7c-16,38.8-143.2,110.5-194.2,132.6c-51,22.1-51,34.3-60.9,84.5
	s41.9,93.7,46.5,111.9s0.8,49.5,2.3,60.9c0.8,6.3,8.6,25.7,15.7,44.4h359.8C1628.3,657.5,1632.2,648.6,1635.3,641.5z"/>
<path id="body_bg" fill="#992C26" d="M1615.3,631.5c9.9-22.8,80.7-69.3,112.6-73.9c-5.2,41,22.9,82,48.9,111.5h155.6
	c2-10.2,3.9-28.5,4.2-62.7c0.8-79.2-36.6-112.7-37.3-123.4c-0.8-10.7,14.8-76.9-18.3-117.3c-24.4-29.7-171.3-80-209.4-100.5
	c-38.1-20.6-34.3-17.5-65.5-64.7c-31.2-47.2-25.9-63.2-25.9-63.2s4.2,1.7,8.8-4.4c4.6-6.1,8-43.4,4.9-50.3c-3-6.9-6-1.8-12.2-3.2
	c0-7.3,0-52.1-2.3-79.4h-176.6c-1.9,27.3-2.2,82.2-0.1,117.5c2.3,38.1,6.1,73.1,9.9,84.5c3.8,11.4,22.1,8.3,23.6,22.7
	c-16,38.8-143.2,110.5-194.2,132.6c-51,22.1-51,34.3-60.9,84.5s41.9,93.7,46.5,111.9s0.8,49.5,2.3,60.9c1,7.4,11.7,33.2,19.4,54.4
	h354.1C1606.1,652.5,1611.4,640.5,1615.3,631.5z"/>
<g id="body_outline">
	<path fill="#661C19" d="M1238.1,633.8c-2.9-7.6-6.4-15.6-7.1-23.8c-1.1-12.6,0.6-25.4,0.2-38c-0.3-9.1-0.6-18.7-5-26.8
		c-4.6-8.6-11.1-16.2-16.7-24.1c-15.3-21.5-30.1-46.3-28-73.7c1.8-22.4,7.1-54.4,25.3-69.1c16.3-13.2,37.2-19.8,55.8-28.9
		c21.3-10.5,42.2-22,62.7-34.1c21.5-12.7,42.6-26.1,62.7-40.9c14.9-11,30.3-22.9,41.5-37.8c2.6-3.4,6.1-7.9,7.3-12
		c2.4-8.6-6.8-12.6-13.2-15.8c-9.4-4.8-10.9-11.7-12.5-21.6c-2.8-16.6-4.3-33.5-5.6-50.2c-2.4-30.5-3.1-61.1-2.9-91.7
		c0.1-14.9,0-30.2,1.1-45.2h-2c-5,55.4-2.2,113.2,3.8,168.3c1.2,11.1,2,22.9,5.3,33.7c3.2,10.7,13.6,9.9,20.5,16.9
		c12.9,13.3-28.4,41.8-37.8,48.9c-39.5,29.8-83.2,54.9-127.6,76.9c-30.2,14.9-65,24.6-76.9,59.4c-6.8,19.8-12.8,44.7-9.2,65.4
		c4.4,25,19.8,46,34.3,66.1c4.6,6.3,10,12.9,12.3,20.5c4,13.6,2.3,29.5,2,43.5c-0.2,8-0.5,15.7,1.7,23.4c2.9,9.6,6.7,19,10.3,28.3
		c2.2,5.8,4.8,11.8,7.3,17.9h4.5C1248,657.1,1242.4,645.2,1238.1,633.8z"/>
	<path fill="#661C19" d="M1729.2,555.4c-29.5,4.8-58.7,24.6-82,42.3c-16.2,12.3-29,24.9-36.6,43.7c-3.7,9.2-6.2,18.4-7.7,27.6h1.6
		c0.9-6.7,2.3-13.4,4.4-19.9c5.1-16.2,12.7-27.8,25.8-39c17.6-15,37.5-27.9,58.2-38.2c7.9-4,19.2-10.9,28.4-11.2
		c3.2-0.1,3.1-2.2,5,1.5c0.7,1.4-0.3,6.5-0.3,8.1c0,5.5,0.6,10.9,1.7,16.3c6,31.1,24.5,58.3,45.7,82.3h6.4
		c-29.2-32-55.4-70.3-50.7-113.5C1729.2,555.5,1729.2,555.5,1729.2,555.4z"/>
	<path fill="#661C19" d="M1579.6,26.4c0.7,18.3,0.9,36.7,0.9,55.1c0,0,0,0.1,0,0.1c5.7,0.6,9.9-2.5,12.5,4.2
		c1.9,4.8,0.9,11.9,0.6,16.9c-0.3,6.5-0.6,35.9-12.1,32.5c-0.6-0.2-2.3,3.5-2.4,4c-2.1,6.8,1.4,15.9,3.6,22.1
		c9.3,25.6,26.2,49,41.9,71c19.4,27.1,53.2,39.6,83,52.1c42.4,17.7,85.5,34,126.7,54.4c14.4,7.1,30.4,14.6,42.2,25.8
		c17.7,16.8,23.3,44.2,24.4,67.6c0.5,11.3-0.1,22.6-1.1,33.9c-0.6,5.9-2.4,12.9-1.7,18.9c1.2,9.4,10.1,19.1,14.5,27.2
		c25.1,46.2,26.9,101.5,19.7,152.7c-0.2,1.5-0.6,3-0.9,4.5h2.1c3.2-12.8,3.3-26.9,3.9-39.7c1.2-29.3,0.9-58.5-7.6-86.9
		c-5.3-17.6-13.5-33.6-23-49.3c-2.1-3.5-5.1-7.4-5.9-11.5c-1.1-5.5,0.8-12.4,1.4-17.9c4-39.8,2.1-88.3-34.8-112.6
		c-36.2-23.9-78.9-39.1-118.8-55.5c-34.1-14-71-26.5-101.7-47.4c-15.5-10.6-25-28-35.1-43.4c-12.1-18.3-27.2-39.3-30.2-61.8
		c-0.1-0.9-0.3-2.1-0.3-3.3c12.6,0.3,14.3-32.1,14.7-37.6c0.4-5.8,3.4-23.5-4.9-25.5c-2.4-0.6-5.8,2.3-8-0.1c-0.5-0.5,0.2-2.7,0-3.5
		c-0.9-4.5,0-10.1-0.1-14.7c-0.2-19.3,0-39.1-1.8-58.4h-3C1579.1,8.8,1579.3,17.7,1579.6,26.4z"/>
</g>
<path id="bicep" fill="#661C19" d="M1738.9,498.2l-0.9,2.3c-0.3,0.8-7,19.4-12.6,51.6l0,0.1c-5.5,43.4,25.6,86.9,52.5,116.8h3
	c-26.7-34.4-57.9-83.4-50.6-117.1C1737.2,520.5,1738.9,498.2,1738.9,498.2z"/>
<path id="pecks" fill="#661C19" d="M1614.3,563.7c-56.2-24.8-251-32-359.9,0C1335.3,557,1511.1,543,1614.3,563.7z"/>
<g id="logo">
	<polygon fill="#FFFFFF" points="1521.9,351.8 1566.7,409.9 1502.3,459.1 1494.4,448 1494.4,448 1526.3,422.9 1510.8,359.5 	"/>
	<polygon fill="#BC372F" points="1526.3,422.9 1510.8,359.5 1505.1,363.4 1516.6,421.1 1489.9,441.8 1494.4,448 	"/>
	<polygon fill="#FFFFFF" points="1307.5,444.2 1294.8,424.5 1322.7,375.1 1322.7,375.1 1316,368.6 1276.2,415.6 1299.6,452.6 
		1307.5,444.2 	"/>
	<polygon fill="#BC372F" points="1325.2,378.8 1325.7,378 1322.7,375.1 1294.8,424.5 1307.5,444.2 1311.7,439.7 1300.5,422.7 	"/>
	<polygon fill="#FFFFFF" points="1503.4,354.8 1397.3,403.2 1331.3,368.1 1300.5,422.7 1372.6,532.7 1516.6,421.1 	"/>
	<polygon fill="#BC372F" points="1331.3,368.1 1397.3,403.2 1503.4,354.8 1488.3,344.9 1400.1,388.5 1343.5,358.8 	"/>
	<path fill="#BC372F" d="M1333.3,431.7l33.6-0.1c0,0,6-1.1,7.5,5.5c1.6,6.7,3.5,14.5,3.5,14.5l14.2-21.1l5.9,22l9.5-15
		c0,0,3.7-5.9,11-6c7.5-0.2,42.3,0.3,42.3,0.3s-4.9,10.8-13,10.9c-8,0.1-20.7,0-25.3,0c-4.5,0-6.6-0.8-13.5,10.3
		c-8,12.8-15.1,23.3-15.1,23.3l-5.8-24.9l-14.6,23.9c0,0-3.7-15.3-5.7-24.5c-2-9-3.3-9.3-10.2-9.4c-10.8-0.2-18.5-0.1-20.1-0.1
		C1334.4,441.4,1332.1,437.9,1333.3,431.7z"/>
	<path fill="#E84538" d="M1331,421.9l36-0.5c0,0,6.4-1.2,8.1,5.7c1.7,7.1,3.8,15.4,3.8,15.4l15.3-22.6l6.5,23.4l10.3-16.1
		c0,0,3.9-6.3,11.9-6.6c8.1-0.3,46.1-0.3,46.1-0.3s-2.2,11.6-11.1,11.8c-8.7,0.2-25.6,0.3-30.7,0.3c-4.8,0-7.2-0.8-14.6,11.2
		c-8.6,13.7-16.3,25.1-16.3,25.1l-6.3-26.6l-15.8,25.7c0,0-4-16.3-6.2-26.1c-2.1-9.5-3.5-9.8-10.9-9.8c-11.6,0-19.9,0.1-21.5,0.1
		C1332.1,432.2,1329.6,428.5,1331,421.9z"/>
</g>
</svg>
