<?xml version="1.0" encoding="utf-8"?>
<!-- Generator: Adobe Illustrator 19.1.0, SVG Export Plug-In . SVG Version: 6.00 Build 0)  -->
<svg version="1.1" id="Calque_1" xmlns="http://www.w3.org/2000/svg" xmlns:xlink="http://www.w3.org/1999/xlink" x="0px" y="0px"
	 viewBox="17 -33.5 1091 675" style="enable-background:new 17 -33.5 1091 675;" xml:space="preserve">
<style type="text/css">
	.st0{fill:#FFFFFF;}
</style>
<path class="st0" d="M651,579.6h-38.1L570,438l-42.9,141.5H489l-62.3-233.5h47.6l36.1,147.3l42.6-147.3h34.1l42.6,147.3l36.4-147.3
	h47.6L651,579.6z"/>
<path class="st0" d="M739.7,579.6V346.1h153.7v40.6H785.3v54.8h92.2v40.6h-92.2V539h108.1v40.6H739.7L739.7,579.6z"/>
<path class="st0" d="M1032.7,579.6h-97.7V346.1h93.7c45.6,0,72,25.7,72,65.5c0,25.9-16.9,42.6-28.9,48.1
	c14.2,6.5,32.1,21.2,32.1,52.3C1104.2,555.9,1074.3,579.6,1032.7,579.6z M1025.3,386.7h-44.6v53.8h44.6c19.4,0,30.2-10.7,30.2-26.9
	C1055.4,397.7,1044.4,386.7,1025.3,386.7z M1028.2,481.4h-47.6v57.3h47.6c20.7,0,30.4-13.2,30.4-28.9
	C1058.6,494.4,1048.7,481.4,1028.2,481.4z"/>
<path class="st0" d="M987.4,274.6c3.5,8-4.2,15.4-9.2,21.7c-9.2,11.7-24.7,25.2-40.6,11.7c-10.5-8.7-16.9-25.7-21.7-40.1
	c-12.7,22.7-33.6,48.8-69.5,44.6c-18.4-2-31.9-10.7-40.1-24.4c-6.7,8-18.4,28.4-36.1,24.4c-9.7-2.2-14-18.2-15.7-29.7
	c-2.2-14.7-2-28.4-2-43.4c-9.5,24.4-16.7,49.1-35.4,64.3c-8.7,7.2-30.2,15.2-42.6,4.5c-3-2.5-7.2-8.7-9.2-13.2
	c-13.5-29.9-7.2-88,0.7-123.6c1.7-8,4.5-30.6,13.2-32.9c6.5-1.7,13.5,1.7,14.5,6.5c0.7,3.2-1.2,8.5-2.7,13.2
	c-7.5,24.7-15.2,61.5-15.2,90.7c0,15.4,2.5,41.4,17.2,42.1c5.5,0.2,10.2-3.7,13.2-6c8.7-7,15-18.4,20.4-29.7
	c13-26.4,22.7-60.1,26.9-97.9c0.7-7.5,1.5-18.2,4-20.4c4.7-4,16.2-2.2,18.4,3.2c1.7,4-0.2,11.7-1.2,18.4c-4.7,30.9-5.5,64.5-4,99.9
	c0.5,11.7,2.5,31.6,9.2,32.9c9,1.7,15.7-13.5,20.4-17.2c-13.2-35.1-2.2-75.7,16.4-102.4c16.9-24.2,43.1-40.4,82.7-34.1
	c0.2-32.1,6.7-67.5,18.9-91.9c3.5-6.7,11.5-22.9,18.4-22.9c15-0.5,17.9,29.7,19.7,47.3c5.7,60.3-6.7,114.6-22.9,159
	c-1.5,4.2-4.5,8.7-4.5,11.7c-0.2,4.2,3,10,4.5,15.2c3.5,10.7,11.2,34.9,22.4,35.4c6.2,0.2,11.5-6,15.7-10
	C975.7,278.3,979.7,272.8,987.4,274.6z M923.1,89.4c-2.7,13.5-5.5,28.7-6,42.6c-0.5,12.5,1.2,25.4,2,38.1
	c0.7,12.5,0.2,25.2,3.2,36.9c12-43.6,23.9-103.7,12.5-156.2C930.1,62,925.8,74.5,923.1,89.4z M876.5,157
	c-34.4,3.2-59.8,41.1-62.3,77.5c-1.7,24.9,6.2,46.6,22.4,54.6c22.2,11.2,46.1-4.7,55.8-17.2c4.2-5.2,15.2-21.7,15.7-28.2
	c0.2-5.2-2.7-12.5-4-18.9c-3.7-21.4-4.7-41.9-5.2-65.8C889.7,157.7,885.2,156.2,876.5,157z"/>
<path class="st0" d="M525.2,52.6c35.6-2.7,72,10.2,94.7,28.2c6.2,5,20.2,14.2,15.7,22.4c-4.5,8-15.2,1.2-18.4-1.2
	c-6-5-11-9.2-15.2-11.7C582,78,547.6,67.8,512.7,74.5c-14,2.7-28.4,7.2-40.1,15.2c-8.7,6-22.2,18.7-18.4,35.4
	c3.7,16.9,31.1,20.7,47.8,25.7c37.9,11,76.7,19.4,108.4,38.1c16.2,9.5,30.6,20.2,36.9,36.1c7.7,20.4-2.7,42.6-12.5,53.8
	c-20.9,24.4-65.3,39.6-112.9,34.9c-22.7-2.2-41.6-7-59.8-14.5c-8.5-3.5-15.9-6.7-24.4-13.2c-6-4.7-15.7-15.2-11.2-22.9
	c2.7-4.5,10.2-4.5,15.7-2.7c6.5,2,9.2,5.5,12.5,8c9,6.5,18.2,11,26.9,14.5c17.7,7.2,43.6,14.5,69,11.7c21.9-2.2,43.9-10.7,56.6-20.4
	c7.2-5.5,19.7-16.2,17.2-34.1c-2.2-16.2-23.7-27.9-38.1-34.9c-35.1-16.7-69.3-22.4-109.6-34.9c-18.9-5.7-36.6-13.5-44.1-28.2
	c-10.2-20.9-0.5-44.9,10.5-56.6C459.9,67.5,493.5,54.8,525.2,52.6z"/>
<path class="st0" d="M306.9-28.9c13.2-4,24.2,13.5,29.7,22.4c16.4,27.2,32.1,66.8,36.1,101.9c3.2,27.7,0,58.6-6,84
	c-2.5,11.2-5.5,22.4-10.5,35.4c-3.5,9-10,28.2-17.2,28.9c-7.2,0.7-14.7-12-18.9-20.4c-10-19.7-12.7-37.6-16.4-61.8
	c-7-44.4-11-94.9-10-146.5C294.2-3,294.2-24.9,306.9-28.9z"/>
<path class="st0" d="M111.3,91.4c16.4-0.7,26.7,7,38.9,15.7c42.4,30.2,73.8,64.5,111.6,102.4c6.5,6.5,12.7,14,20.4,22.4
	c5.7,6.2,19.4,16.7,18.4,24.4c-2,13.5-29.9,2.2-34.9,0.7C203,237,155.4,209.5,112,169.7c-7.7-7-15.9-15.2-23.7-24.9
	c-6.5-8.5-17.2-24.4-13.7-36.9C78.1,94.4,96.8,91.9,111.3,91.4z"/>
<path class="st0" d="M131.7,277.3c50.3-2.5,97.7,4,141.8,13.2c8.5,1.7,14.2,2.2,15.7,6c4,10-15.7,17.2-22.9,19.7
	c-12.5,4.2-23.7,6.5-34.9,9.2c-25.4,6-46.3,10-71.5,15.7c-22.2,5.2-47.1,12.2-73.5,14.5c-19.2,1.7-42.1,1.5-55.1-8
	c-10.7-7.7-10.2-16.2-3.2-28.2C38,302,55,292,77.4,285.3C93.8,280.1,113,278.1,131.7,277.3z"/>
<path class="st0" d="M353.7,338.9c9.7-1,16.2,15.9,20.4,27.7c9.7,27.4,12,44.4,17.2,75.5c6.5,39.1,11.2,84.2,6,128.8
	c-3.2,27.2-10.2,53.6-28.9,63c-14.7,7.5-35.6,1-44.6-10c-13-15.7-16.2-42.4-17.2-70.3c-1.2-37.1,5.5-81.7,12.5-117.6
	c2.2-11.5,5.2-23.9,8-35.4c3.7-16.7,9.5-53.8,24.9-61.8C352,338.6,353.2,339.1,353.7,338.9z"/>
<path class="st0" d="M315.6,339.6c6,12.5-0.7,27.2-5.2,38.1c-4.5,11.2-11.2,22.4-16.4,32.1c-11,20.4-22.2,41.4-34.1,62.3
	c-11,19.2-24.4,39.4-40.6,56.6c-15.7,16.2-35.1,32.6-63.8,32.9c-13.7,0-28.4-3.7-31.6-13.2c-4-11.7,4.5-28.2,10-37.4
	c17.9-30.6,42.4-56.8,65.8-80.2c25.2-25.2,48.3-47.1,76.2-69.5c10-8.2,19.7-17.2,31.6-21.7C308.9,338.9,312.4,338.4,315.6,339.6z"/>
</svg>
