<svg style="position: absolute; width: 0; height: 0;" width="0" height="0" version="1.1" xmlns="http://www.w3.org/2000/svg" xmlns:xlink="http://www.w3.org/1999/xlink">
	<defs>
		<symbol id="sw-logo" viewBox="0 0 500 276.37">
			<title>Logo SudWeb</title>
			<g id="sw-hands">
				<polygon id="sw-right" points="437.32 16.02 422.1 26.8 449.67 121.01 409.73 155.09 421.66 169.39 500 104.17 437.32 16.02"/>
				<polygon id="sw-left" points="90.31 155.04 50.33 121.01 82.52 30.07 62.68 16.02 0 104.17 78.34 169.39 90.31 155.04 90.31 155.04"/>
			</g>
			<g id="sw-hands-shadows">
				<polygon id="sw-right-2" points="422.1 26.8 414.21 32.39 436.7 118.5 402.84 146.83 409.73 155.09 449.67 121.01 422.1 26.8"/>
				<polygon id="sw-left-2" points="91.24 36.25 82.52 30.07 50.33 121.01 90.31 155.04 96.71 147.42 62.1 117.92 91.24 36.25"/>
			</g>
			<polygon id="sw-heart" points="410.57 18.46 248.01 87.81 97.95 17.43 62.1 117.92 248.01 276.37 436.7 118.5 410.57 18.46"/>
			<polygon id="sw-heart-top" points="97.95 17.43 248.01 87.81 410.57 18.46 386.14 0 247.99 63.3 120 0.96 97.95 17.43"/>
			<path id="sw-wave-shadow" d="M137.42,133.65l65.41-.3a15.65,15.65,0,0,1,16,8.58c5.33,10.36,11.54,22.2,11.54,22.2l17.76-32.56,17.17,33.15,11.54-22.49s4.44-8.88,16.57-9.17,66.3,0.3,66.3.3-5.33,15.39-17.46,15.69-32.08.52-39.51,0.59c-7.2.07-11-1-19.09,15.39-9.38,18.71-18.05,34-18.05,34l-17.46-35.52-17.17,35.81s-11.84-22-18.94-35.81-9.62-14.21-22.49-14.21c-20.73,0-35.76.25-38.77,0.3C144.42,149.74,138,144,137.42,133.65Z"/>
			<path id="sw-wave" d="M127.65,117.07l71.16-.32a17,17,0,0,1,17.39,9.34c5.8,11.27,12.56,24.15,12.56,24.15l19.32-35.42,18.67,36.06,12.56-24.47s4.83-9.66,18-10,72.12,0.32,72.12.32-1.2,16.74-14.4,17.06-39.49.56-47.58,0.64c-7.84.08-11.91-1.09-20.77,16.74-10.21,20.35-19.64,37-19.64,37l-19-38.64-18.67,39s-12.88-24-20.61-39-10.46-15.45-24.47-15.45c-22.55,0-38.9.27-42.18,0.32C135.27,134.57,128.3,128.34,127.65,117.07Z"/>
		</symbol>
	</defs>
</svg>
