<svg style="position: absolute; width: 0; height: 0;" width="0" height="0" version="1.1" xmlns="http://www.w3.org/2000/svg" xmlns:xlink="http://www.w3.org/1999/xlink">
	<defs>
		<symbol id="sw-logo" viewBox="0 0 500 276.37">
			<title>Logo SudWeb</title>
			<g id="sw-hands">
				<polygon id="sw-right" points="437.32 16.02 422.1 26.8 449.67 121.01 409.73 155.09 421.66 169.39 500 104.17 437.32 16.02"/>
				<polygon id="sw-left" points="90.31 155.04 50.33 121.01 82.52 30.07 62.68 16.02 0 104.17 78.34 169.39 90.31 155.04 90.31 155.04"/>
			</g>
			<g id="sw-hands-shadows">
				<polygon id="sw-right-2" points="422.1 26.8 414.21 32.39 436.7 118.5 402.84 146.83 409.73 155.09 449.67 121.01 422.1 26.8"/>
				<polygon id="sw-left-2" points="91.24 36.25 82.52 30.07 50.33 121.01 90.31 155.04 96.71 147.42 62.1 117.92 91.24 36.25"/>
			</g>
			<polygon id="sw-heart" points="410.57 18.46 248.01 87.81 97.95 17.43 62.1 117.92 248.01 276.37 436.7 118.5 410.57 18.46"/>
			<polygon id="sw-heart-top" points="97.95 17.43 248.01 87.81 410.57 18.46 386.14 0 247.99 63.3 120 0.96 97.95 17.43"/>
			<path id="sw-wave-shadow" d="M137.42,133.65l65.41-.3a15.65,15.65,0,0,1,16,8.58c5.33,10.36,11.54,22.2,11.54,22.2l17.76-32.56,17.17,33.15,11.54-22.49s4.44-8.88,16.57-9.17,66.3,0.3,66.3.3-5.33,15.39-17.46,15.69-32.08.52-39.51,0.59c-7.2.07-11-1-19.09,15.39-9.38,18.71-18.05,34-18.05,34l-17.46-35.52-17.17,35.81s-11.84-22-18.94-35.81-9.62-14.21-22.49-14.21c-20.73,0-35.76.25-38.77,0.3C144.42,149.74,138,144,137.42,133.65Z"/>
			<path id="sw-wave" d="M127.65,117.07l71.16-.32a17,17,0,0,1,17.39,9.34c5.8,11.27,12.56,24.15,12.56,24.15l19.32-35.42,18.67,36.06,12.56-24.47s4.83-9.66,18-10,72.12,0.32,72.12.32-1.2,16.74-14.4,17.06-39.49.56-47.58,0.64c-7.84.08-11.91-1.09-20.77,16.74-10.21,20.35-19.64,37-19.64,37l-19-38.64-18.67,39s-12.88-24-20.61-39-10.46-15.45-24.47-15.45c-22.55,0-38.9.27-42.18,0.32C135.27,134.57,128.3,128.34,127.65,117.07Z"/>
		</symbol>
		<symbol id="educ" viewBox="0 0 32 32">
			<path d="M27,6H11a5,5,0,0,0-5,5V27a5,5,0,0,0,5,5H27a5,5,0,0,0,5-5V11A5,5,0,0,0,27,6ZM13,28a3,3,0,1,1,3-3A3,3,0,0,1,13,28Zm0-12a3,3,0,1,1,3-3A3,3,0,0,1,13,16Zm6,6a3,3,0,1,1,3-3A3,3,0,0,1,19,22Zm6,6a3,3,0,1,1,3-3A3,3,0,0,1,25,28Zm0-12a3,3,0,1,1,3-3A3,3,0,0,1,25,16ZM25.9,4A5,5,0,0,0,21,0H5A5,5,0,0,0,0,5V21a5,5,0,0,0,4,4.9V6A2,2,0,0,1,6,4H25.9Z"/>
		</symbol>
		<symbol id="well" viewBox="0 0 32 32">
			<path d="M16,0A16,16,0,1,0,32,16,16,16,0,0,0,16,0Zm5.33,7.75c1.1,0,2,1.19,2,2.67s-0.9,2.67-2,2.67-2-1.19-2-2.67S20.23,7.75,21.33,7.75Zm-10.77,0c1.1,0,2,1.19,2,2.67s-0.9,2.67-2,2.67-2-1.19-2-2.67S9.46,7.77,10.57,7.77Zm5.27,18c-5.47,0-9.14-3.58-9.8-9.54H7.32q1.57,6.92,8.5,6.92t8.5-6.92h1.33C25,22.17,21.31,25.75,15.83,25.75Z"/>
		</symbol>
		<symbol id="expe" viewBox="0 0 32 32">
			<path d="M25.64,9.63V6.39H6.39V9.63H25.64Zm-6.39,9.62V16H6.39v3.23H19.25Zm-12.86-8v3.23H25.64V11.2H6.39ZM28.87,0a3,3,0,0,1,2.22.94A3,3,0,0,1,32,3.16V22.41a3.16,3.16,0,0,1-.94,2.26,3,3,0,0,1-2.22,1H6.39L0,32V3.16A3,3,0,0,1,.94.94,3,3,0,0,1,3.16,0H28.87Z"/>
		</symbol>
		<symbol id="crea" viewBox="0 0 32 32">
			<path d="M16.14,0a8.73,8.73,0,0,0-9,8.85c0,4.73,4.4,7.71,4.4,15.44H16l4.31,0c0.13-7.79,4.46-10.86,4.46-15.5A8.59,8.59,0,0,0,16.14,0ZM19.8,25.44H12.14a0.55,0.55,0,1,0,0,1.09H19.8A0.55,0.55,0,0,0,19.8,25.44Zm0,2.19H12.14a0.55,0.55,0,1,0,0,1.09H19.8A0.55,0.55,0,0,0,19.8,27.62Zm-7.11,2.19v1.09A1.09,1.09,0,0,0,13.78,32h4.39a1.09,1.09,0,0,0,1.09-1.09V29.81H12.69Z"/>
		</symbol>
		<symbol id="clap" viewBox="0 0 400 400">
			<path d="M75,25H0v75H125Zm250,75L275,25H225l50,75h50Zm-100,0L175,25H125l50,75h50Zm100,75H275l50-50H275l-50,50H175l50-50H175l-50,50H75l50-50H0V375H400V125H375Zm0-150,50,75h25V25H325Z"/>
		</symbol>
		<symbol id="move" viewBox="0 0 400 400">
			<path d="M126.8,114.8c25.2,0,46.4-20.8,46.4-46.8a46.61,46.61,0,0,0-46.8-46.8C100.4,21.2,80,42,80,68A46.61,46.61,0,0,0,126.8,114.8Zm146.8,264a46.8,46.8,0,0,0,0-93.6c-25.2,0-46.8,20.8-46.8,46.8A46.61,46.61,0,0,0,273.6,378.8ZM333.2,280L400,213.2H266.8ZM0,186.8H133.2L66.8,120ZM200,360V306.8C142,306.8,93.2,258,93.2,200V170.8H40V200C40,285.2,114.8,360,200,360ZM306.8,229.2H360V200c0-85.2-74.8-160-160-160V93.2c58,0,106.8,48.8,106.8,106.8v29.2Z"/>
		</symbol>
		<symbol id="write" viewBox="0 0 400 400">
			<path d="M350,138.39V350a50,50,0,0,1-50,50H50A50,50,0,0,1,0,350V100A50,50,0,0,1,50,50H261.6l-50,50H50V350H300V188.4Zm-38.38-103L293.95,53l53,53,17.68-17.68ZM347,0L329.3,17.68l53,53L400,53ZM117.19,229.83l53,53L329.3,123.75l-53-53ZM100,300h50l-50-50v50Z"/>
		</symbol>
		<symbol id="people" viewBox="0 0 400 400">
			<path d="M252.17,242.1s-107.51,0-147.83,94.09c0,0,67.32,26.87,147.83,26.87S400,336.18,400,336.18C359.69,242.1,252.17,242.1,252.17,242.1Zm0-13.41c40.31,0,67.18-40.31,67.18-107.53S252.17,54,252.17,54,185,54,185,121.16,211.86,228.69,252.17,228.69ZM121.74,182.83c13.25,0,24.63-5.5,33.65-15.39a193.28,193.28,0,0,1-5.18-46.28c0-25.83,9.93-41.67,22.16-51.44C159,39,121.74,38.95,121.74,38.95s-55.34,0-55.34,55.34S88.54,182.83,121.74,182.83Zm52.17,43.37L172,204.32a157.49,157.49,0,0,0-50.3-10.43S33.2,193.89,0,271.37c0,0,42.8,17.06,98.17,21.22C146.4,242.1,173.91,226.2,173.91,226.2Z"/>
		</symbol>
		<symbol id="thumb" viewBox="0 0 400 400">
			  <path d="M281.07,141.38c-3-7.89,78.64-80.75,31.07-139.8C301-12.22,263.22,67.69,209.58,103.87c-29.6,20-98.47,62.44-98.47,85.93v152c0,28.24,109.2,58.15,192.17,58.15,30.42,0,74.49-190.57,74.49-220.84S284,149.29,281.07,141.38ZM88.89,143.49c-14.62,0-66.67,8.89-66.67,69.4V320.62c0,60.47,52,67.13,66.67,67.13S66.67,375,66.67,337.53V195.91C66.67,156.63,103.49,143.49,88.89,143.49Z"/>
		</symbol>
		<symbol id="clock" viewBox="0 0 400 400">
			  <path d="M361,176.32C342.14,124.06,296.14,84,239,71.19A81,81,0,1,1,361,176.32ZM205,39.38v51c77.83,3.17,140,67.1,140,145.7a145.17,145.17,0,0,1-29.24,87.4l33.82,58.6-28.1,16.24-28.95-50.16a145.88,145.88,0,0,1-186.66.4L76.16,400l-28.1-16.24L82.59,324A145.13,145.13,0,0,1,53,236.09C53,158,114.33,94.44,191.42,90.47V39.38A20.39,20.39,0,1,1,205,39.38ZM85.42,236.09A113.56,113.56,0,1,0,199,122.54,113.55,113.55,0,0,0,85.42,236.09ZM233,260.65H192.27a13.59,13.59,0,0,1-13.59-13.59V192.71a13.58,13.58,0,1,1,27.17,0v40.75H233A13.59,13.59,0,0,1,233,260.65ZM39,176.32a81,81,0,1,1,122-105.13C103.87,84,57.87,124.06,39,176.32Z"/>
		</symbol>
		<symbol id="stop" viewBox="0 0 400 400">
			  <path d="M200,0C89.54,0,0,89.54,0,200S89.54,400,200,400s200-89.54,200-200S310.46,0,200,0Zm0,362.5A162.5,162.5,0,1,1,362.5,200,162.5,162.5,0,0,1,200,362.5ZM125,125H275V275H125V125Z"/>
		</symbol>
		<symbol id="rocket" viewBox="0 0 294.3 400">
			<path d="M244.4,204.1c-5.9,50.3-22,92-34.5,118.2c7.9,5,19.1,15.4,21.8,25.8c6.1,23.1-10.2,44.2,5.1,51c11.2,5,35.7-10.2,54.4-96.9C306.1,233,262.6,210.4,244.4,204.1z"/>
			<path d="M85.2,321.8c-12.5-26.4-28.5-68-34.3-118.1c-17.6,5.8-63,28-47.8,98.5c18.7,86.7,43.2,101.9,54.4,96.9c15.3-6.8-1-27.9,5.1-51C65.4,337.4,77.2,326.6,85.2,321.8z"/>
			<path d="M132.8,354.2c1.3,25.3,8.1,44,16.4,44c8.3,0,15.1-18.7,16.4-44H132.8z"/>
			<path d="M148.3,0h-1.4C33.6,59,58.5,201.8,58.5,201.8c9.6,85,49.9,144,49.9,144h78.5c0,0,40.2-59,49.9-144C236.8,201.8,261.7,59,148.3,0z M147.7,182.9c-9.9,0-17.9-8-17.9-17.9c0-9.9,8-17.9,17.9-17.9s17.9,8,17.9,17.9C165.6,174.9,157.6,182.9,147.7,182.9z M147.1,114.8c-16.7,0-30.2-13.5-30.2-30.2s13.5-30.2,30.2-30.2s30.2,13.5,30.2,30.2S163.8,114.8,147.1,114.8z"/>
		</symbol>
		<symbol id="flickr" viewBox="0 0 1024 1024">
			<title>flickr</title>
			<path d="M0 544c0-123.712 100.288-224 224-224s224 100.288 224 224c0 123.712-100.288 224-224 224s-224-100.288-224-224zM576 544c0-123.712 100.288-224 224-224s224 100.288 224 224c0 123.712-100.288 224-224 224s-224-100.288-224-224z"></path>
		</symbol>
		<symbol id="twitter" viewBox="0 0 950.8560180664062 1024">
			<title>twitter</title>
			<path d="M925.714 233.143q-38.286 56-92.571 95.429 0.571 8 0.571 24 0 74.286-21.714 148.286t-66 142-105.429 120.286-147.429 83.429-184.571 31.143q-154.857 0-283.429-82.857 20 2.286 44.571 2.286 128.571 0 229.143-78.857-60-1.143-107.429-36.857t-65.143-91.143q18.857 2.857 34.857 2.857 24.571 0 48.571-6.286-64-13.143-106-63.714t-42-117.429v-2.286q38.857 21.714 83.429 23.429-37.714-25.143-60-65.714t-22.286-88q0-50.286 25.143-93.143 69.143 85.143 168.286 136.286t212.286 56.857q-4.571-21.714-4.571-42.286 0-76.571 54-130.571t130.571-54q80 0 134.857 58.286 62.286-12 117.143-44.571-21.143 65.714-81.143 101.714 53.143-5.714 106.286-28.571z"></path>
		</symbol>
		<symbol id="facebook" viewBox="0 0 602.2870178222656 1024">
			<title>facebook</title>
			<path d="M548 6.857v150.857h-89.714q-49.143 0-66.286 20.571t-17.143 61.714v108h167.429l-22.286 169.143h-145.143v433.714h-174.857v-433.714h-145.714v-169.143h145.714v-124.571q0-106.286 59.429-164.857t158.286-58.571q84 0 130.286 6.857z"></path>
		</symbol>
		<symbol id="vimeo" viewBox="0 0 1029.1426086425781 1024">
			<title>vimeo</title>
			<path d="M976.571 296q-5.714 134.857-189.714 372-190.286 246.286-321.143 246.286-81.143 0-137.143-150.286-25.143-91.429-75.429-275.429-41.143-149.714-89.714-149.714-10.286 0-72.571 43.429l-44-56q13.714-12 61.714-55.143t74.286-66q89.143-78.857 137.714-83.429 54.286-5.143 87.429 31.714t46.286 116.286q25.143 164 37.714 213.143 31.429 142.286 68.571 142.286 29.143 0 88-92 57.714-92 62.286-140.571 7.429-79.429-62.286-79.429-32.571 0-69.143 14.857 68.571-224.571 262.286-218.286 143.429 4.571 134.857 186.286z"></path>
		</symbol>
	</defs>
</svg>
