<?xml version="1.0" encoding="utf-8"?>
<!DOCTYPE svg PUBLIC "-//W3C//DTD SVG 1.1//EN" "http://www.w3.org/Graphics/SVG/1.1/DTD/svg11.dtd">
<svg xmlns="http://www.w3.org/2000/svg" xmlns:xlink="http://www.w3.org/1999/xlink" viewBox="0 0 500 132.18"><defs><style>.a{fill:#3c414c;}.b{fill:#1694d2;}.c{fill:url(#a);}.d{fill:url(#b);}.e{fill:url(#c);}.f{fill:url(#d);}.g{fill:url(#e);}.h{fill:url(#f);}.i{fill:url(#g);}</style><linearGradient id="a" x1="30.9" y1="5.69" x2="30.9" y2="91.97" gradientUnits="userSpaceOnUse"><stop offset="0" stop-color="#565961"/><stop offset="0.96" stop-color="#24222b"/></linearGradient><linearGradient id="b" x1="71.14" y1="5.69" x2="71.14" y2="91.97" xlink:href="#a"/><linearGradient id="c" x1="94.01" y1="5.69" x2="94.01" y2="91.97" xlink:href="#a"/><linearGradient id="d" x1="136.42" y1="5.69" x2="136.42" y2="91.97" xlink:href="#a"/><linearGradient id="e" x1="197.48" y1="5.69" x2="197.48" y2="91.97" xlink:href="#a"/><linearGradient id="f" x1="261.43" y1="5.69" x2="261.43" y2="91.97" xlink:href="#a"/><linearGradient id="g" x1="316.21" y1="5.69" x2="316.21" y2="91.97" xlink:href="#a"/></defs><title>alienor</title><path class="a" d="M0.4,105.23H2v24.92H17v1.4H0.4V105.23Z"/><path class="a" d="M19.56,105.23H21v8.44h-1.4v-8.44Z"/><path class="a" d="M26.34,105.23H28v26.32H26.34V105.23Z"/><path class="a" d="M32.6,105.23h2l16.63,24.15h0.07V105.23H53v26.32H51L34.3,107.22H34.23v24.33H32.6V105.23Z"/><path class="a" d="M54.75,106.63v-1.4H74.91v1.4H65.62v24.92H64V106.63H54.75Z"/><path class="a" d="M94.59,130.15v1.4H76.71V105.23h17.7v1.4H78.33v10.55H93.44v1.4H78.33v11.58H94.59Z"/><path class="a" d="M97.34,105.23h11c4.61,0,8.33,1.7,8.33,6.78a6.49,6.49,0,0,1-5.64,6.75v0.07c3.91,0.44,4.86,2.91,5.12,5.64s-0.18,5.68.89,7.08h-1.81c-1-1.81-.41-4.83-0.7-7.37s-1.59-4.61-6.19-4.61H99v12H97.34V105.23Zm11,12.94c3.83,0,6.71-1.8,6.71-6,0-4-3.17-5.5-6.71-5.5H99v11.54h9.36Z"/><path class="a" d="M120.55,105.23h2l16.63,24.15h0.07V105.23h1.62v26.32H139l-16.73-24.33h-0.08v24.33h-1.62V105.23Z"/><path class="a" d="M163.42,130.15v1.4H145.54V105.23h17.69v1.4H147.16v10.55h15.11v1.4H147.16v11.58h16.25Z"/><path class="a" d="M163.33,106.63v-1.4H183.5v1.4H174.2v24.92h-1.62V106.63h-9.25Z"/><path class="a" d="M196,105.23h11.61c7.52,0,9,4.87,9,8.15s-1.44,8.11-9,8.07h-7v10.1H196V105.23Zm4.6,12.46h6.75c2.07,0,4.61-1,4.61-4.35,0-3.47-2.1-4.35-4.53-4.35h-6.82v8.7Z"/><path class="a" d="M220.59,105.23h12.57c5.75,0,8.7,2.65,8.7,7.11,0,5.05-3.5,6.34-4.35,6.64v0.07c1.59,0.22,3.91,1.4,3.91,5.57,0,3.06.44,5.86,1.44,6.93h-4.94a7.35,7.35,0,0,1-.7-3.87c0-4.83-1-7-5.24-7H225.2v10.84h-4.6V105.23Zm4.6,12h7.56c2.91,0,4.5-1.43,4.5-4.2,0-3.36-2.18-4-4.57-4H225.2v8.22Z"/><path class="a" d="M270.35,118.39c0,7.52-4.72,13.79-12.61,13.79s-12.61-6.27-12.61-13.79,4.72-13.78,12.61-13.78S270.35,110.87,270.35,118.39Zm-20.61,0c0,5.05,2.36,10,8,10s8-5,8-10-2.36-10-8-10S249.74,113.34,249.74,118.39Z"/><path class="a" d="M274.53,105.23h18.17v4H279.14v6.89H291v3.76H279.14v11.69h-4.61V105.23Z"/><path class="a" d="M296.38,105.23h19v4H301v6.89h13.27v3.76H301v7.71h14.6v4H296.38V105.23Z"/><path class="a" d="M322.62,122.78c0,4.05,3,5.64,6.67,5.64,4.06,0,5.57-2,5.57-4a3.13,3.13,0,0,0-2.18-3.24c-1.84-.7-4.24-1.18-7.85-2.18-4.5-1.22-5.82-3.95-5.82-6.67,0-5.27,4.87-7.74,9.62-7.74,5.49,0,10.1,2.91,10.1,8.4h-4.61c-0.22-3.39-2.51-4.64-5.68-4.64-2.14,0-4.83.77-4.83,3.43,0,1.84,1.25,2.88,3.13,3.39,0.4,0.11,6.23,1.62,7.59,2a7,7,0,0,1,5.12,6.71c0,5.9-5.23,8.26-10.47,8.26-6,0-10.88-2.88-11-9.4h4.61Z"/><path class="a" d="M346.49,122.78c0,4.05,3,5.64,6.67,5.64,4.06,0,5.57-2,5.57-4a3.13,3.13,0,0,0-2.18-3.24c-1.84-.7-4.24-1.18-7.85-2.18-4.5-1.22-5.82-3.95-5.82-6.67,0-5.27,4.87-7.74,9.62-7.74,5.49,0,10.1,2.91,10.1,8.4H358c-0.22-3.39-2.51-4.64-5.68-4.64-2.14,0-4.83.77-4.83,3.43,0,1.84,1.26,2.88,3.14,3.39,0.4,0.11,6.23,1.62,7.59,2a7,7,0,0,1,5.12,6.71c0,5.9-5.24,8.26-10.47,8.26-6,0-10.88-2.88-11-9.4h4.61Z"/><path class="a" d="M367.34,105.23H372v26.32h-4.61V105.23Z"/><path class="a" d="M401.4,118.39c0,7.52-4.72,13.79-12.61,13.79s-12.61-6.27-12.61-13.79,4.72-13.78,12.61-13.78S401.4,110.87,401.4,118.39Zm-20.61,0c0,5.05,2.36,10,8,10s8-5,8-10-2.36-10-8-10S380.8,113.34,380.8,118.39Z"/><path class="a" d="M405.41,105.23h4.87l12,19.39h0.07V105.23h4.39v26.32h-4.87l-12-19.35h-0.11v19.35h-4.39V105.23Z"/><path class="a" d="M432,105.23h4.87l12,19.39H449V105.23h4.39v26.32h-4.87l-12-19.35H436.4v19.35H432V105.23Z"/><path class="a" d="M458.8,105.23h19v4H463.4v6.89h13.27v3.76H463.4v7.71H478v4H458.8V105.23Z"/><path class="a" d="M482,105.23h4.61v22.34H500v4H482V105.23Z"/><path class="b" d="M340.58,87.54V75.2h6.11V87.54h-6.11Z"/><path class="b" d="M361.06,26h4.55V39.16h0.24c3.11-9.22,12.45-14.61,22-14.61,21.68,0,21.92,17.36,21.92,24.91V87.54h-4.55V48.62c0-6.35-.72-20.12-17.49-20.12-13.77,0-22.15,10.66-22.15,25.75V87.54h-4.55V26Z"/><path class="b" d="M419,57.36C418.78,71.85,426.45,85,441.66,85c11.62,0,19.88-6.95,22-18.32h4.55c-2.4,14.37-12,22.27-26.59,22.27-18,0-27.42-14.13-27.19-31.14-0.24-16.88,8.62-33.29,27.19-33.29,19.28,0,27.9,15.21,27.06,32.81H419Zm45.15-4c-0.24-12.93-8.38-24.91-22.51-24.91C428,28.5,420,41.2,419,53.41h45.15Z"/><path class="b" d="M496,29.94H482.61v43c0,9.94,4.67,10.9,13.29,10.66v4c-9.34.6-18.32-.72-17.84-14.61v-43H466.69V26h11.38V6.83h4.55V26H496v4Z"/><path class="c" d="M55.21,73.77c0,3.35.72,4.67,3.23,4.67a18.69,18.69,0,0,0,3.35-.24v9.46a34.19,34.19,0,0,1-8.62,1.56c-5.51,0-9.46-1.92-10.54-7.54-5.39,5.27-14.13,7.54-21.43,7.54-11.14,0-21.2-6-21.2-18.08,0-15.45,12.34-18,23.83-19.28,9.82-1.79,18.56-.71,18.56-8.74,0-7.06-7.3-8.38-12.81-8.38-7.67,0-13.06,3.12-13.66,9.82H2.28c1-15.93,14.49-20.6,28.14-20.6,12.1,0,24.79,4.91,24.79,18V73.77ZM41.56,56.52c-4.19,2.76-10.78,2.63-16.76,3.71s-11.14,3.11-11.14,10.3c0,6.11,7.78,7.9,12.57,7.9,6,0,15.33-3.12,15.33-11.74V56.52Z"/><path class="d" d="M64.31,2H78V87.54H64.31V2Z"/><path class="e" d="M87.18,2h13.65V15H87.18V2Zm0,23.59h13.65V87.54H87.18V25.63Z"/><path class="f" d="M120.36,60.12c0,9.7,5.27,18.32,16.64,18.32,7.91,0,12.7-3.47,15.09-10.3H165c-3,13.53-14.49,21.08-28,21.08-19.4,0-30.3-13.53-30.3-32.57,0-17.6,11.5-32.69,29.94-32.69,19.52,0,31.5,17.6,29.22,36.17H120.36Zm31.85-9c-0.48-8.62-6.34-16.41-15.57-16.41-9.46,0-15.93,7.19-16.29,16.41h31.85ZM137.6,0h16.17l-17,17.12h-9.94Z"/><path class="g" d="M170.29,25.63h12.93v9.1L183.47,35a22.18,22.18,0,0,1,19.28-11c13.41,0,21.91,7.18,21.91,21.08V87.54H211V48.62c-0.24-9.7-4.07-13.89-12.1-13.89-9.1,0-15,7.19-15,16.29V87.54H170.29V25.63Z"/><path class="h" d="M230.17,56.52c0-18.92,11.38-32.57,31.26-32.57s31.26,13.65,31.26,32.57S281.3,89.22,261.43,89.22,230.17,75.56,230.17,56.52Zm48.86,0c0-10.66-5.39-21.8-17.61-21.8s-17.6,11.14-17.6,21.8,5.39,21.92,17.6,21.92S279,67.3,279,56.52Z"/><path class="i" d="M298.07,25.63h12.81v12h0.24c1.56-6.59,9.7-13.65,18.08-13.65a32.67,32.67,0,0,1,5.15.36V37.48a48.92,48.92,0,0,0-5.87-.6c-9.34,0-16.76,7.54-16.76,21.2V87.54H298.07V25.63Z"/></svg>
