<?xml version="1.0" encoding="utf-8"?>
<!DOCTYPE svg PUBLIC "-//W3C//DTD SVG 1.1//EN" "http://www.w3.org/Graphics/SVG/1.1/DTD/svg11.dtd">
<svg xmlns="http://www.w3.org/2000/svg" version="1.1" viewBox="0 0 227.01 31.73"><title>craftsmen</title><path d="M18.58,19.22a8.38,8.38,0,0,1-1.32,1,5.67,5.67,0,0,1-1.55.67,7.14,7.14,0,0,1-1.87.23,5.77,5.77,0,0,1-2.55-.56,6.09,6.09,0,0,1-2-1.52A7.07,7.07,0,0,1,8,16.8,8.33,8.33,0,0,1,7.55,14V13.9A8.08,8.08,0,0,1,8,11.13a7.12,7.12,0,0,1,1.3-2.27,6.1,6.1,0,0,1,2-1.52,5.77,5.77,0,0,1,2.55-.56,6.1,6.1,0,0,1,3.28.85,9.59,9.59,0,0,1,2.49,2.3l5.51-4.34a14.67,14.67,0,0,0-2-2.27,12.15,12.15,0,0,0-2.49-1.78,12.47,12.47,0,0,0-3-1.15,15.63,15.63,0,0,0-3.7-.4A14.15,14.15,0,0,0,8.36,1.08,13.23,13.23,0,0,0,4,4.05,14,14,0,0,0,1.06,8.5,14.18,14.18,0,0,0,0,14v0.08A14.15,14.15,0,0,0,1.08,19.6,13.93,13.93,0,0,0,4,24a13,13,0,0,0,4.32,2.9,13.7,13.7,0,0,0,5.32,1,15.5,15.5,0,0,0,3.94-.46,13.1,13.1,0,0,0,3.17-1.27,11.87,11.87,0,0,0,2.53-1.92,19.92,19.92,0,0,0,2.06-2.42l-5.51-4A15.39,15.39,0,0,1,18.58,19.22Zm18-18.68H25L28.4,6.68c2,0,6.74,0,8.2,0,3.85,0,3.66,6.72,0,6.72H32.1l10,18.33H49.8L42.19,17.89C48.86,13.28,47,.57,36.6.54Zm25-.35L49.24,27.41h7L57.83,24H68.24l1.55,3.38h7L64.47,0.19H61.57ZM60,18.16l3-7.07,3.06,7.07H60Zm19,9.25h7.32v-9.6H97.93V11.59H86.32V7.06H99.25V0.54H79V27.41ZM102.68,7.06h7.63V27.41h7.32V7.06h7.63V0.54H102.68V7.06Zm44,6.44a12.21,12.21,0,0,0-3.11-1.63,31.93,31.93,0,0,0-4.09-1.17q-1.36-.31-2.24-0.59a7.79,7.79,0,0,1-1.4-.57,1.89,1.89,0,0,1-.72-0.63,1.52,1.52,0,0,1-.21-0.8V8a1.49,1.49,0,0,1,.66-1.23,3.26,3.26,0,0,1,2-.5,11.07,11.07,0,0,1,3.68.67,14.79,14.79,0,0,1,3.72,2l3.66-5.28A15.18,15.18,0,0,0,143.83,1a18.67,18.67,0,0,0-6.05-.91,13.4,13.4,0,0,0-4.26.63,9.54,9.54,0,0,0-3.23,1.78,7.63,7.63,0,0,0-2,2.72,8.39,8.39,0,0,0-.7,3.45V8.74a7.1,7.1,0,0,0,.77,3.47,6.9,6.9,0,0,0,2.11,2.34,12,12,0,0,0,3.15,1.53q1.81,0.59,3.92,1.09a22.5,22.5,0,0,1,2.21.59,7.15,7.15,0,0,1,1.36.59,2,2,0,0,1,.7.63,1.47,1.47,0,0,1,.19.75v0.08a1.52,1.52,0,0,1-.77,1.36,4.29,4.29,0,0,1-2.24.48,13.3,13.3,0,0,1-8.56-3.23l-4.07,5a16.28,16.28,0,0,0,5.64,3.36,20.18,20.18,0,0,0,6.73,1.12,15.07,15.07,0,0,0,4.38-.59,9.77,9.77,0,0,0,3.36-1.73,7.89,7.89,0,0,0,2.17-2.74,8.4,8.4,0,0,0,.77-3.68V19.06a7.18,7.18,0,0,0-.68-3.24A6.46,6.46,0,0,0,146.72,13.5Zm15.41-1.37L151.79,0.46v10.1l10,10.86h0.76l5.62-6v12h6.9v-27h-2.41Zm24.77,4.69h11.8V10.94H186.9V6.87H200V0.54H179.7V27.41h20.51V21.08H186.9V16.82ZM220.1,0.54V13.7L206.74,0.42h-2.45v27h7V14.2l13.32,13.25H227V0.54h-6.9Z"/></svg>
