<?xml version="1.0" encoding="utf-8"?>
<!DOCTYPE svg PUBLIC "-//W3C//DTD SVG 1.1//EN" "http://www.w3.org/Graphics/SVG/1.1/DTD/svg11.dtd">
<svg xmlns="http://www.w3.org/2000/svg" viewBox="0 0 1037.02 287.95"><defs><style>.a{fill:#232222;}</style></defs><title>ekino</title><path class="a" d="M0,189.46v-2.94c0-62.45,47.75-101,106.53-101,54,0,99.92,30.86,101.3,99.92v17.63H73.1c1.84,23.14,15.43,35.63,36,35.63,20.2,0,27.92-9.55,30.12-20.57h67.59c-5.88,44.08-39.31,69.8-100.29,69.8C45.18,287.91,0,253,0,189.46Zm136.65-24.24c-0.74-20.57-10.65-33.06-30.12-33.06-17.63,0-30.12,11.39-33.06,33.06h63.18Z"/><path class="a" d="M222.19,7.65h72.37V163.78L341.21,91h74.21l-59.15,86,63.92,106.17H340.11l-45.55-80.08v80.08H222.19V7.65Z"/><path class="a" d="M429,91h72V283.17H429V91Z"/><path class="a" d="M529.75,91h72.37V121.9c10.65-20.2,31.22-36,63.55-36,36.37,0,61.71,23.14,61.71,70.9V283.17H655V173c0-19.47-7-29.39-24.25-29.39-18,0-28.65,10.65-28.65,33.43V283.17H529.75V91Z"/><path class="a" d="M741.75,189.49v-2.94C741.75,124.1,788.41,85.9,849,85.9c59.88,0,106.53,37.1,106.53,98.82v2.94c0,63.19-47,100.29-106.9,100.29S741.75,252.68,741.75,189.49ZM882.09,188v-2.58c0-30.12-10.65-46.29-33.06-46.29-22,0-34.16,15.06-34.16,45.19v2.94c0,31.22,11,47.39,34.16,47.39C871.06,234.68,882.09,218.51,882.09,188Z"/><circle class="a" cx="465.04" cy="38.36" r="38.36"/><circle class="a" cx="998.66" cy="249.58" r="38.36"/></svg>
