<?xml version="1.0" encoding="utf-8"?>
<!DOCTYPE svg PUBLIC "-//W3C//DTD SVG 1.1//EN" "http://www.w3.org/Graphics/SVG/1.1/DTD/svg11.dtd">
<svg xmlns="http://www.w3.org/2000/svg" viewBox="0 0 258.2 93.9">
  <defs>
    <style>
      .st0 {
        fill: #0069B4;
      }
    </style>
  </defs>
  <title>EPITECH</title>
  <path
    class="st0"
    d="M6.2,39.8V6.2l0,0C6.2,2.3,8.8,0,13.8,0l0,0l5.6,0l0,0v3.1l0,0l-1.1,0l0,0c-4.9,0-5.9,1.2-5.9,6.2l0,0v30.1l0,0
	c0,4.1-2.8,7.2-6.7,7.6l0,0c3.8,0.4,6.7,3.5,6.7,7.6l0,0v30.1l0,0c0,5,0.9,6.2,5.9,6.2l0,0l1.1,0l0,0v3.1l0,0l-5.6,0l0,0
	c-5,0-7.7-2.3-7.7-6.2l0,0V54l0,0c0-3.2-1.4-5.4-3.8-6.5l0,0C1.5,47.1,0.8,47,0,46.9l0,0C3.6,46.7,6.2,43.9,6.2,39.8z"/>
  <path
    class="st0"
    d="M252.1,54v33.7l0,0c0,3.9-2.6,6.2-7.7,6.2l0,0l-5.6,0l0,0v-3.1l0,0l1.1,0l0,0c4.9,0,6-1.2,6-6.2l0,0V54.5l0,0
	c0-4.1,2.8-7.2,6.7-7.6l0,0c-3.8-0.4-6.7-3.5-6.7-7.6l0,0V9.3l0,0c0-5-0.9-6.2-6-6.2l0,0l-1.1,0l0,0V0l0,0l5.6,0l0,0
	c5,0,7.7,2.3,7.7,6.2l0,0v33.7l0,0c0,3.2,1.4,5.4,3.8,6.5l0,0c0.8,0.4,1.5,0.5,2.3,0.6l0,0C254.6,47.1,252.1,49.9,252.1,54z"/>
  <g>
    <path
      class="st0"
      d="M33.8,47c-3,0-5.4-1.1-7.2-3.3l0,0c-1.6-2-2.4-4.5-2.4-7.4l0,0c0-1.2,0.2-2.4,0.5-3.6l0,0
		c0.4-1.2,0.9-2.2,1.6-3.2l0,0c-0.7-1-1.2-2-1.5-3.2l0,0c-0.4-1.2-0.5-2.4-0.5-3.6l0,0c0-2.9,0.8-5.3,2.4-7.3l0,0
		c1.8-2.2,4.2-3.3,7.2-3.3l0,0l20.2,0l0,0v7.4l0,0l-18.9,0l0,0c-0.9,0-1.5,0.3-2,0.9l0,0c-0.5,0.6-0.7,1.4-0.7,2.2l0,0
		c0,0.9,0.2,1.6,0.7,2.2l0,0c0.5,0.6,1.2,0.9,2,0.9l0,0h18.9l0,0v7.4l0,0v0.2l0,0l-19.9,0l0,0c-0.5,0.3-1,0.6-1.2,1.2l0,0
		c-0.3,0.5-0.4,1.1-0.4,1.8l0,0c0,0.9,0.2,1.6,0.7,2.2l0,0c0.5,0.6,1.2,0.9,2,0.9l0,0l18.9,0l0,0V47l0,0L33.8,47z"/>
    <path
      class="st0"
      d="M70,33.3c-1.9,0-3.3,0.6-4.1,2l0,0c-0.6,0.9-0.9,2-0.9,3.3l0,0c0,0.4,0,0.6,0,0.7l0,0c0.1,0.2,0.1,0.3,0.1,0.4
		l0,0v7.5l0,0l-7.7,0l0,0c0-0.6,0-1.4,0-2.4l0,0c0-1,0-2.3,0-4l0,0c0-1.6,0-3.4,0-5.3l0,0c0-2.8,0.7-5,2.1-6.8l0,0c1.6-2,4-3,7.1-3
		l0,0h9.6l0,0c0.9,0,1.6-0.3,2.1-0.9l0,0c0.5-0.6,0.7-1.3,0.7-2.1l0,0c0-0.8-0.2-1.6-0.7-2.2l0,0c-0.5-0.7-1.2-1-2.1-1l0,0l-18.8,0
		l0,0V12l0,0l20.2,0l0,0c3,0,5.3,1.1,7.1,3.3l0,0c1.6,2,2.4,4.4,2.4,7.4l0,0c0,2.9-0.8,5.3-2.3,7.3l0,0c-1.8,2.2-4.1,3.3-7.1,3.3
		l0,0L70,33.3z"/>
    <path class="st0" d="M90.1,47.2V12.1l0,0l7.8,0l0,0v35.1l0,0L90.1,47.2z"/>
    <path class="st0" d="M115.6,19.5v27.6l0,0l-7.7,0l0,0V19.5l0,0l-7.9,0l0,0v-7.4l0,0l23.5,0l0,0v7.4l0,0L115.6,19.5z"/>
    <path
      class="st0"
      d="M135.3,46.9c-2.9,0-5.3-1.1-7.1-3.3l0,0c-1.6-2-2.4-4.4-2.4-7.3l0,0c0-1.2,0.2-2.4,0.5-3.6l0,0
		c0.4-1.2,0.8-2.2,1.5-3.2l0,0c-0.6-1-1.2-2-1.5-3.2l0,0c-0.4-1.2-0.5-2.4-0.5-3.6l0,0c0-2.8,0.8-5.3,2.4-7.3l0,0
		c1.7-2.2,4.1-3.3,7.1-3.3l0,0l19.8,0l0,0v7.4l0,0l-18.6,0l0,0c-0.8,0-1.5,0.3-2,0.9l0,0c-0.5,0.6-0.7,1.4-0.7,2.2l0,0
		c0,0.8,0.2,1.6,0.7,2.2l0,0c0.5,0.6,1.2,0.9,2,0.9l0,0l18.6,0l0,0v7.3l0,0v0.2l0,0h-19.6l0,0c-0.5,0.3-0.9,0.6-1.2,1.2l0,0
		c-0.3,0.5-0.4,1.1-0.4,1.8l0,0c0,0.8,0.2,1.6,0.7,2.2l0,0c0.5,0.6,1.2,0.9,2,0.9l0,0l18.6,0l0,0v7.5l0,0L135.3,46.9z"/>
    <path
      class="st0"
      d="M170.6,47c-4.1,0-7.3-1.8-9.6-5.3l0,0c-2.1-3.2-3.2-7.1-3.2-11.8l0,0c0-4.8,1-8.8,3.2-12.2l0,0
		c2.4-3.7,5.6-5.5,9.6-5.5l0,0l16.9,0l0,0v7.3l0,0l-15.7,0l0,0c-1.9,0-3.4,1-4.4,3l0,0c-1,1.8-1.5,4-1.5,6.7l0,0c0,2.7,0.5,5,1.5,7
		l0,0c1.1,2.1,2.6,3.2,4.4,3.2l0,0l15.7,0l0,0V47l0,0L170.6,47z"/>
    <path class="st0" d="M212.2,47V33.3l0,0h-13.8l0,0V47l0,0l-7.7,0l0,0V12.2l0,0l7.7,0l0,0v13.5l0,0l13.8,0l0,0V12.3l0,0l7.6,0l0,0
		V47l0,0L212.2,47z"/>
    <path class="st0" d="M229.8,37.9c2.5,0,4.4,1.8,4.4,4.2l0,0c0,2.5-1.9,4.7-4.3,4.7l0,0c-2.3,0-4.1-2.2-4.1-4.6l0,0
		C225.8,39.9,227.5,37.9,229.8,37.9z"/>
  </g>
  <path class="st0" d="M33.7,61.1v-2.7h1.5v1.4L33.7,61.1z"/>
  <path class="st0" d="M108.3,61.2v-2.7h1.5V60L108.3,61.2z"/>
  <g>
    <path class="st0" d="M28.1,68.2v-9.7h1.5v8.3h4.7v1.3H28.1z"/>
    <path class="st0" d="M37.5,68.2v-9.7h6.2v1.3H39v2.8h4V64h-4v2.9h4.7v1.3H37.5z"/>
    <path
      class="st0"
      d="M48.8,68.3c-1,0-1.9-0.4-2.5-1c-1-0.9-0.9-2-0.9-3.9c0-1.9,0-2.9,0.9-3.9c0.7-0.7,1.5-1,2.5-1
		c1.8,0,3.1,1,3.4,3h-1.5c-0.2-1-0.9-1.7-2-1.7c-0.6,0-1.1,0.2-1.4,0.6c-0.5,0.5-0.6,1.1-0.6,3s0.1,2.5,0.6,3
		c0.3,0.4,0.9,0.6,1.4,0.6c1.1,0,1.7-0.7,2-1.7h1.5C51.9,67.2,50.6,68.3,48.8,68.3z"/>
    <path
      class="st0"
      d="M59.9,67.3c-0.7,0.7-1.5,1-2.6,1c-1,0-1.9-0.4-2.5-1c-0.9-0.9-0.9-2-0.9-3.9c0-1.9,0-2.9,0.9-3.9
		c0.7-0.7,1.5-1,2.5-1c1,0,1.9,0.4,2.6,1c0.9,1,0.9,2,0.9,3.9C60.8,65.2,60.8,66.3,59.9,67.3z M58.8,60.4c-0.3-0.4-0.9-0.6-1.4-0.6
		c-0.6,0-1.1,0.2-1.4,0.6c-0.5,0.5-0.6,1.1-0.6,3s0.1,2.5,0.6,3c0.3,0.4,0.9,0.6,1.4,0.6c0.6,0,1.1-0.2,1.4-0.6
		c0.5-0.5,0.6-1.1,0.6-3S59.3,60.9,58.8,60.4z"/>
    <path class="st0" d="M63,68.2v-9.7h1.5v8.3h4.7v1.3H63z"/>
    <path class="st0" d="M70.8,68.2v-9.7H77v1.3h-4.7v2.8h4V64h-4v2.9H77v1.3H70.8z"/>
    <path
      class="st0"
      d="M88.1,67.3c-0.6,0.6-1.5,0.9-2.5,0.9h-3.4v-9.7h3.4c1,0,1.9,0.3,2.5,0.9c1,1,1,2.5,1,3.9
		C89.1,64.7,89.2,66.2,88.1,67.3z M87.1,60.5c-0.4-0.4-1-0.7-1.6-0.7h-1.8v7h1.8c0.7,0,1.2-0.2,1.6-0.7c0.5-0.6,0.5-1.6,0.5-2.9
		C87.6,62,87.6,61.1,87.1,60.5z"/>
    <path class="st0" d="M91.3,68.2v-9.7h6.2v1.3h-4.7v2.8h4V64h-4v2.9h4.7v1.3H91.3z"/>
    <path class="st0" d="M102.7,68.2v-9.7h1.5v8.3h4.7v1.3H102.7z"/>
    <path class="st0" d="M112.1,68.2v-9.7h1.5v9.7H112.1z"/>
    <path class="st0" d="M122,68.2l-4.5-6.8v6.8h-1.5v-9.7h1.3l4.5,6.8v-6.8h1.5v9.7H122z"/>
    <path class="st0" d="M131.8,68.2l-4.5-6.8v6.8h-1.5v-9.7h1.3l4.5,6.8v-6.8h1.5v9.7H131.8z"/>
    <path
      class="st0"
      d="M141.4,67.3c-0.7,0.7-1.5,1-2.6,1c-1,0-1.9-0.4-2.5-1c-0.9-0.9-0.9-2-0.9-3.9c0-1.9,0-2.9,0.9-3.9
		c0.7-0.7,1.5-1,2.5-1c1,0,1.9,0.4,2.6,1c0.9,1,0.9,2,0.9,3.9C142.3,65.2,142.3,66.3,141.4,67.3z M140.3,60.4
		c-0.3-0.4-0.9-0.6-1.4-0.6c-0.6,0-1.1,0.2-1.4,0.6c-0.5,0.5-0.6,1.1-0.6,3s0.1,2.5,0.6,3c0.3,0.4,0.9,0.6,1.4,0.6
		c0.6,0,1.1-0.2,1.4-0.6c0.5-0.5,0.6-1.1,0.6-3S140.7,60.9,140.3,60.4z"/>
    <path class="st0" d="M147.5,68.2h-1.1l-3.2-9.7h1.5l2.2,7l2.2-7h1.5L147.5,68.2z"/>
    <path class="st0" d="M157.1,68.2l-0.7-1.9h-3.8l-0.7,1.9h-1.6l3.5-9.7h1.2l3.5,9.7H157.1z M154.5,60.7L153,65h3L154.5,60.7z"/>
    <path class="st0" d="M162.5,59.9v8.3H161v-8.3h-2.7v-1.3h6.8v1.3H162.5z"/>
    <path class="st0" d="M166.8,68.2v-9.7h1.5v9.7H166.8z"/>
    <path
      class="st0"
      d="M176.4,67.3c-0.7,0.7-1.5,1-2.6,1c-1,0-1.9-0.4-2.5-1c-1-0.9-0.9-2-0.9-3.9c0-1.9,0-2.9,0.9-3.9
		c0.7-0.7,1.5-1,2.5-1c1,0,1.9,0.4,2.6,1c1,1,0.9,2,0.9,3.9C177.4,65.2,177.4,66.3,176.4,67.3z M175.3,60.4
		c-0.3-0.4-0.9-0.6-1.4-0.6s-1.1,0.2-1.4,0.6c-0.5,0.5-0.6,1.1-0.6,3s0.1,2.5,0.6,3c0.3,0.4,0.9,0.6,1.4,0.6s1.1-0.2,1.4-0.6
		c0.5-0.5,0.6-1.1,0.6-3S175.8,60.9,175.3,60.4z"/>
    <path class="st0" d="M185.5,68.2l-4.5-6.8v6.8h-1.5v-9.7h1.3l4.5,6.8v-6.8h1.5v9.7H185.5z"/>
    <path class="st0" d="M192.6,68.2v-9.7h6.2v1.3h-4.7v2.8h4V64h-4v2.9h4.7v1.3H192.6z"/>
    <path class="st0" d="M204.1,59.9v8.3h-1.5v-8.3h-2.7v-1.3h6.8v1.3H204.1z"/>
    <path
      class="st0"
      d="M217.5,67.3c-0.6,0.6-1.5,0.9-2.5,0.9h-3.4v-9.7h3.4c1,0,1.9,0.3,2.5,0.9c1,1,1,2.5,1,3.9
		C218.5,64.7,218.6,66.2,217.5,67.3z M216.5,60.5c-0.4-0.4-1-0.7-1.6-0.7h-1.8v7h1.8c0.7,0,1.2-0.2,1.6-0.7c0.5-0.6,0.5-1.6,0.5-2.9
		C217.1,62,217,61.1,216.5,60.5z"/>
    <path class="st0" d="M220.7,68.2v-9.7h6.2v1.3h-4.7v2.8h4V64h-4v2.9h4.7v1.3H220.7z"/>
  </g>
  <g>
    <path class="st0" d="M28.3,84.9V74h1.7v9.4h5.3v1.5H28.3z"/>
    <path class="st0" d="M34.6,77v-3h1.7v1.6L34.6,77z"/>
    <path class="st0" d="M38.9,84.9V74h7v1.5h-5.3v3.2h4.5v1.5h-4.5v3.3h5.3v1.5H38.9z"/>
    <path class="st0" d="M53.5,84.9l-2.4-4.2l-2.4,4.2h-1.9l3.4-5.6L47.1,74H49l2.1,3.9l2.2-3.9h1.9l-3.2,5.3l3.4,5.6H53.5z"/>
    <path class="st0" d="M61.2,80.6h-2.5v4.3H57V74h4.1c2.1,0,3.5,1.4,3.5,3.3C64.7,79.2,63.3,80.6,61.2,80.6z M61.1,75.5h-2.4v3.6h2.4
		c1.2,0,1.9-0.7,1.9-1.8C63,76.1,62.2,75.5,61.1,75.5z"/>
    <path class="st0" d="M66.7,84.9V74h7v1.5h-5.3v3.2h4.5v1.5h-4.5v3.3h5.3v1.5H66.7z"/>
    <path class="st0" d="M82,84.9l-2.3-4.6h-2.1v4.6h-1.7V74h4.2c2.1,0,3.4,1.3,3.4,3.2c0,1.6-1,2.6-2.2,2.9l2.5,4.8H82z M80.1,75.5
		h-2.5v3.4h2.5c1.1,0,1.9-0.6,1.9-1.7C81.9,76.1,81.2,75.5,80.1,75.5z"/>
    <path class="st0" d="M89.7,75.5v9.4H88v-9.4h-3V74h7.7v1.5H89.7z"/>
    <path class="st0" d="M94.6,84.9V74h1.7v10.9H94.6z"/>
    <path
      class="st0"
      d="M102,85c-1.6,0-2.8-0.4-3.9-1.4l1.1-1.1c0.8,0.8,1.7,1,2.8,1c1.4,0,2.3-0.6,2.3-1.7c0-0.5-0.1-0.9-0.4-1.1
		c-0.3-0.3-0.6-0.4-1.2-0.5l-1.3-0.2c-0.9-0.1-1.6-0.4-2.1-0.9c-0.5-0.5-0.8-1.2-0.8-2.1c0-1.9,1.4-3.2,3.7-3.2
		c1.4,0,2.5,0.4,3.4,1.2l-1.1,1c-0.7-0.6-1.5-0.8-2.4-0.8c-1.3,0-2,0.7-2,1.7c0,0.4,0.1,0.8,0.4,1c0.3,0.2,0.7,0.4,1.2,0.5l1.2,0.2
		c1,0.2,1.6,0.4,2,0.8c0.6,0.5,0.9,1.3,0.9,2.2C105.9,83.8,104.3,85,102,85z"/>
    <path class="st0" d="M108.2,84.9V74h7v1.5h-5.3v3.2h4.5v1.5h-4.5v3.3h5.3v1.5H108.2z"/>
    <path class="st0" d="M121.1,84.9V74h1.7v10.9H121.1z"/>
    <path class="st0" d="M132.3,84.9l-5.1-7.7v7.7h-1.7V74h1.5l5.1,7.7V74h1.7v10.9H132.3z"/>
    <path class="st0" d="M138.4,75.5v3.3h4.5v1.5h-4.5v4.6h-1.7V74h7v1.5H138.4z"/>
    <path
      class="st0"
      d="M151.8,83.8c-0.8,0.8-1.7,1.2-2.9,1.2c-1.2,0-2.1-0.4-2.9-1.2c-1.1-1.1-1.1-2.3-1.1-4.4c0-2.1,0-3.3,1.1-4.4
		c0.8-0.8,1.7-1.2,2.9-1.2c1.2,0,2.1,0.4,2.9,1.2c1.1,1.1,1,2.3,1,4.4C152.8,81.5,152.9,82.8,151.8,83.8z M150.5,76.1
		c-0.4-0.4-1-0.7-1.6-0.7c-0.6,0-1.2,0.3-1.6,0.7c-0.5,0.6-0.6,1.2-0.6,3.4c0,2.2,0.1,2.8,0.6,3.4c0.4,0.4,1,0.7,1.6,0.7
		c0.6,0,1.2-0.3,1.6-0.7c0.5-0.6,0.6-1.2,0.6-3.4C151.2,77.2,151.1,76.6,150.5,76.1z"/>
    <path class="st0" d="M161.3,84.9l-2.3-4.6h-2.1v4.6h-1.7V74h4.2c2.1,0,3.4,1.3,3.4,3.2c0,1.6-1,2.6-2.2,2.9l2.5,4.8H161.3z
		 M159.4,75.5h-2.5v3.4h2.5c1.1,0,1.9-0.6,1.9-1.7C161.3,76.1,160.5,75.5,159.4,75.5z"/>
    <path class="st0" d="M173.3,84.9v-7.3l-2.5,5.3h-1.2l-2.6-5.3v7.3h-1.7V74h1.7l3.2,6.8l3.1-6.8h1.7v10.9H173.3z"/>
    <path class="st0" d="M184.1,84.9l-0.8-2.2H179l-0.8,2.2h-1.8l4-10.9h1.3l4,10.9H184.1z M181.2,76.5l-1.7,4.9h3.4L181.2,76.5z"/>
    <path class="st0" d="M190.2,75.5v9.4h-1.7v-9.4h-3V74h7.7v1.5H190.2z"/>
    <path class="st0" d="M195.1,84.9V74h1.7v10.9H195.1z"/>
    <path
      class="st0"
      d="M206.5,85.4l-1.1-1.1c-0.6,0.4-1.4,0.7-2.3,0.7c-1.2,0-2.1-0.4-2.9-1.2c-1.1-1.1-1.1-2.3-1.1-4.4
		c0-2.1,0-3.3,1.1-4.4c0.8-0.8,1.7-1.2,2.9-1.2c1.2,0,2.1,0.4,2.9,1.2c1.1,1.1,1,2.3,1,4.4c0,1.9,0,3-0.7,4l1.1,1.1L206.5,85.4z
		 M204.8,76.1c-0.4-0.4-1-0.7-1.6-0.7c-0.6,0-1.2,0.3-1.6,0.7c-0.5,0.6-0.6,1.2-0.6,3.4c0,2.2,0.1,2.8,0.6,3.4
		c0.4,0.4,1,0.7,1.6,0.7c0.4,0,0.8-0.1,1.1-0.4l-1.2-1.2l0.9-0.9l1.1,1.1c0.3-0.6,0.3-1.3,0.3-2.7C205.4,77.2,205.3,76.6,204.8,76.1
		z"/>
    <path class="st0" d="M213.3,85c-2.2,0-3.9-1.5-3.9-3.8V74h1.7v7.2c0,1.5,0.9,2.4,2.3,2.4c1.4,0,2.3-0.9,2.3-2.4V74h1.7v7.2
		C217.2,83.5,215.5,85,213.3,85z"/>
    <path class="st0" d="M219.9,84.9V74h7v1.5h-5.3v3.2h4.5v1.5h-4.5v3.3h5.3v1.5H219.9z"/>
  </g>
</svg>
