<?xml version="1.0" encoding="utf-8"?>
<!DOCTYPE svg PUBLIC "-//W3C//DTD SVG 1.1//EN" "http://www.w3.org/Graphics/SVG/1.1/DTD/svg11.dtd">
<svg xmlns="http://www.w3.org/2000/svg" viewBox="0 0 199.5 42.9"><defs><style>.a{fill:#e30613;}</style></defs><title>Eyrolles</title><path d="M28,0.4H40.9V3.8H32.4V9.2h7.8v3.4H32.4v6.1H41v3.4H28V0.4Z" transform="translate(0 0)"/><path d="M51.2,13.6l-8-13.2h5.1l5.2,9.2,5.2-9.2h4.6L55.5,13.6v8.6H51.1V13.6h0.1Z" transform="translate(0 0)"/><path d="M65.9,0.4h4.7c4.7,0,10.3-.2,10.3,5.9a5,5,0,0,1-4.5,5.1v0.1c1.2,0.1,1.9,1.3,2.3,2.2l3.5,8.5H77.3l-2.6-6.8c-0.6-1.6-1.2-2.2-3-2.2H70.3v9.1H65.9V0.4Zm4.3,9.3h1.4c2.2,0,4.6-.3,4.6-3s-2.4-2.8-4.6-2.8H70.2V9.7Z" transform="translate(0 0)"/><path d="M94.9,0.1c6.8,0,10.7,4.6,10.7,11.2s-3.8,11.3-10.7,11.3S84.2,17.9,84.2,11.3,88,0.1,94.9.1Zm0,19.1c4.5,0,6.1-4,6.1-7.9s-1.8-7.8-6.1-7.8-6.1,3.9-6.1,7.8S90.5,19.2,94.9,19.2Z" transform="translate(0 0)"/><path d="M109.6,0.4H114V18.8h8.5v3.4H109.7V0.4h-0.1Z" transform="translate(0 0)"/><path d="M125.3,0.4h4.4V18.8h8.5v3.4H125.4V0.4h-0.1Z" transform="translate(0 0)"/><path d="M140.9,0.4h12.9V3.8h-8.5V9.2h7.8v3.4h-7.8v6.1h8.6v3.4H141V0.4h-0.1Z" transform="translate(0 0)"/><path d="M170,4.4a11.17,11.17,0,0,0-4.4-.9c-1.5,0-3.4.7-3.4,3,0,3.8,9.6,2.2,9.6,9.5,0,4.8-3.8,6.6-8.2,6.6a20.48,20.48,0,0,1-5.6-.8l0.4-3.9a10.54,10.54,0,0,0,4.9,1.3c1.7,0,3.9-.8,3.9-2.8,0-4.2-9.6-2.4-9.6-9.7,0-4.9,3.8-6.7,7.6-6.7a14.55,14.55,0,0,1,5.2.8Z" transform="translate(0 0)"/><path d="M199.5,38.1c-32.7-2.7-70.2-4.1-104-4.1S32.7,35.4,0,38.1H199.5Z" transform="translate(0 0)"/><circle class="a" cx="95" cy="35.9" r="7"/></svg>
