<?xml version="1.0" encoding="utf-8"?>
<!DOCTYPE svg PUBLIC "-//W3C//DTD SVG 1.1//EN" "http://www.w3.org/Graphics/SVG/1.1/DTD/svg11.dtd">
<svg xmlns="http://www.w3.org/2000/svg" viewBox="0 0 300.43 220.23"><defs><style>.a{fill:#838383;}.b{fill:#353535;}.c{fill:#08a0e1;fill-rule:evenodd;}.d{fill:#fff;}</style></defs><title>Globalis</title><path class="a" d="M59.09,215v-8.79c0-3.52-.19-5.74-3.43-5.74-2.25,0-3.37,1.18-4.37,3.24V215H49V204.45c0-2.24-.56-4-3.43-4-2.24,0-3.37,1.18-4.37,3.24V215H38.88V204.7a23,23,0,0,0-.56-5.58l1.93-.44a16.17,16.17,0,0,1,.65,2.4c0.94-1.68,2.53-2.59,5.11-2.59s3.9,1.09,4.62,2.77c1.15-1.9,2.84-2.77,5.49-2.77,4.52,0,5.27,3.46,5.27,7.23V215H59.09Zm11.61-6.52c0.09,3.77,1.78,4.93,4.65,4.93a8.5,8.5,0,0,0,4.55-1.25l0.84,1.78a9.6,9.6,0,0,1-5.39,1.43c-4.24,0-7-1.75-7-8.42,0-7,3.21-8.42,6.7-8.42,4.05,0,6.39,1.93,6.39,8.79v0.28l-10.73.87h0Zm4.33-8c-2.71,0-4.4,1.5-4.4,5.83v0.34l8.51-.81c-0.06-4.05-1.59-5.36-4.12-5.36h0Zm24.48,14.69a15.87,15.87,0,0,1-.65-2.4c-1,1.68-2.62,2.59-5.18,2.59-4.05,0-5.8-2.84-5.8-8.42,0-7,3.3-8.42,6.55-8.42a8.92,8.92,0,0,1,4.24.93c-0.09-1.06-.09-2.15-0.09-3.24v-3.31l2.31-.31v16.56a23,23,0,0,0,.56,5.58l-1.93.44h0ZM98.57,201.4a7.88,7.88,0,0,0-3.93-1c-2.78,0-4.43,1.21-4.43,6.49,0,4,.69,6.48,3.84,6.48,2.34,0,3.49-1.18,4.52-3.24V201.4h0ZM110,195.94a1.35,1.35,0,1,1,1.5-1.34,1.27,1.27,0,0,1-1.5,1.34h0Zm1.15,13.59a22.24,22.24,0,0,0,.5,5.43H109.4a18.72,18.72,0,0,1-.59-5.55V199.18l2.31-.31v10.66h0Zm18.68,5.61a16.06,16.06,0,0,1-.65-2.4c-1,1.68-2.59,2.59-5.24,2.59-3.68,0-5.46-1.25-5.46-4.74,0-3.15,2.46-4.68,10.41-5V205.2c0-3.55-1.81-4.65-4.05-4.65a10.19,10.19,0,0,0-4.49,1l-0.75-1.87a11,11,0,0,1,5.24-1.21c3.43,0,6.36,1.71,6.36,6.45v4.18a23.1,23.1,0,0,0,.56,5.58l-1.93.44h0Zm-0.94-7.67c-5.39.25-8.14,1-8.14,3.12,0,1.93.65,2.84,3.62,2.84,2.34,0,3.49-1.22,4.52-3.27v-2.68h0Zm24.83-7c-1.84,0-3.21.37-3.21,2.5,0,1.75,1.59,2.28,3.62,2.84,2.46,0.68,5.17,1.37,5.17,4.77s-2.12,4.74-5.52,4.74a11.14,11.14,0,0,1-6-1.4l0.75-1.84a10.28,10.28,0,0,0,5.11,1.25c2.12,0,3.4-.56,3.4-2.49,0-1.78-1.09-2.09-3.55-2.81-2.71-.75-5.24-1.59-5.24-5.18,0-3,2.37-4.36,5.27-4.36a9.91,9.91,0,0,1,4.9,1.06l-0.78,1.81a8.31,8.31,0,0,0-3.93-.87h0Zm18.71,12.78c-1.06,3.18-2.56,5.74-5.58,7l-1-1.62c2.21-1.12,3.09-2.28,3.46-3.93l-5.33-15.53,2.46-.47,4.24,14.06,4.27-14.06,2.24,0.44-4.77,14.16h0Zm15.69-12.78c-1.84,0-3.21.37-3.21,2.5,0,1.75,1.59,2.28,3.62,2.84,2.46,0.68,5.18,1.37,5.18,4.77s-2.12,4.74-5.52,4.74a11.14,11.14,0,0,1-6-1.4l0.75-1.84a10.29,10.29,0,0,0,5.11,1.25c2.12,0,3.4-.56,3.4-2.49,0-1.78-1.09-2.09-3.55-2.81-2.71-.75-5.24-1.59-5.24-5.18,0-3,2.37-4.36,5.27-4.36a9.91,9.91,0,0,1,4.9,1.06L192,201.36a8.31,8.31,0,0,0-3.93-.87h0Zm19.15,0.34h-3.37v7.08c0,2.74,0,4.3,2,6.21l-1.56,1.31c-2.59-2.06-2.78-4.65-2.78-8.17v-6.42h-2.74v-2h2.74V194l2.31-.31v5.21h3.59l-0.22,2h0Zm7.7,7.61c0.09,3.77,1.78,4.93,4.65,4.93a8.5,8.5,0,0,0,4.55-1.25L225,213.9a9.6,9.6,0,0,1-5.39,1.43c-4.24,0-7-1.75-7-8.42,0-7,3.21-8.42,6.7-8.42,4.05,0,6.39,1.93,6.39,8.79v0.28l-10.73.87h0Zm4.33-8c-2.71,0-4.4,1.5-4.4,5.83v0.34l8.51-.81c-0.06-4.05-1.59-5.36-4.12-5.36h0ZM252.91,215v-8.79c0-3.52-.19-5.74-3.43-5.74-2.24,0-3.37,1.18-4.37,3.24V215h-2.31V204.45c0-2.24-.56-4-3.43-4-2.24,0-3.37,1.18-4.36,3.24V215h-2.31V204.7a23.14,23.14,0,0,0-.56-5.58l1.93-.44a16.17,16.17,0,0,1,.65,2.4c0.94-1.68,2.53-2.59,5.11-2.59s3.9,1.09,4.61,2.77c1.15-1.9,2.84-2.77,5.49-2.77,4.52,0,5.27,3.46,5.27,7.23V215h-2.31Zm14.85-14.47c-1.84,0-3.21.37-3.21,2.5,0,1.75,1.59,2.28,3.62,2.84,2.46,0.68,5.18,1.37,5.18,4.77s-2.12,4.74-5.52,4.74a11.15,11.15,0,0,1-6-1.4l0.75-1.84a10.28,10.28,0,0,0,5.11,1.25c2.12,0,3.4-.56,3.4-2.49,0-1.78-1.09-2.09-3.55-2.81-2.71-.75-5.24-1.59-5.24-5.18,0-3,2.37-4.36,5.27-4.36a9.91,9.91,0,0,1,4.9,1.06l-0.78,1.81a8.32,8.32,0,0,0-3.93-.87h0Z"/><path class="b" d="M18,165v-4.49H34.47v19.64a31.64,31.64,0,0,1-15.66,3.6C6.74,183.78,0,178.59,0,160.55c0-16.95,8.67-23.24,19-23.24,4.56,0,9,.39,13.48,2.76l-2.05,4.17A24,24,0,0,0,19,141.8c-8.67,0-14,4.94-14,18.75,0,14.31,3.53,18.75,13.93,18.75a23.5,23.5,0,0,0,10.59-2.05V165H18Zm29.22,18V138.08H52.2v40.44H73.9V183H47.26Zm52.39,0.77c-13,0-18.17-7.38-18.17-23.24s5.14-23.24,18.17-23.24,18.17,7.38,18.17,23.24-5.14,23.24-18.17,23.24h0Zm0-42c-11.23,0-13.16,7.06-13.16,18.75s1.93,18.75,13.16,18.75,13.16-7.06,13.16-18.75-1.93-18.75-13.16-18.75h0Zm52,18.17c4.49,0.45,9.5,3.66,9.5,10.91,0,8.73-5.14,12.13-14.89,12.13H130.6V138.78a60.41,60.41,0,0,1,12.2-1.48c8.54,0,16.5,2.76,16.5,12.9,0,5.78-3.21,9.05-7.64,9.76h0Zm-16.11,18.68h5.84c9.89,0,14.57-.58,14.57-8.28,0-6.8-5.26-7.9-11-7.9h-9.44v16.18h0Zm7.32-37a37.49,37.49,0,0,0-7.32.83v15.6h8.86c4.3,0,10-.51,10-7.45,0-7.19-5.33-9-11.55-9h0Zm55.79,41.66-3.4-10.85H177.79L174.58,183h-5.33l14.83-44.68,5-.58,15,44.94-5.39.64h0Zm-12.13-39.22-7.38,24.07H194l-7.45-24.07h0ZM214.59,183V138.08h4.94v40.44h21.7V183H214.59Zm38.08,0V138.08h4.94V183h-4.94Zm32.55-41.21c-5.39,0-9.57,1.86-9.57,7.7,0,5.26,4.62,6.61,10.14,8.28,6.55,2,14.64,4.17,14.64,13s-6,13-14.89,13c-6.23,0-11.88-1.41-16-4l1.8-4.3a27.55,27.55,0,0,0,14.12,3.85c5.65,0,10-2.12,10-8.6,0-5.58-5.65-6.55-11.43-8.28-6.36-1.86-13.29-4.43-13.29-12.78,0-8.67,6.29-12.32,14.12-12.32a29,29,0,0,1,13,2.63l-1.67,4.36a23.26,23.26,0,0,0-10.91-2.5h0Z"/><path class="c" d="M143.56,0a58,58,0,1,1-58,58,58,58,0,0,1,58-58h0Z"/><path class="d" d="M162.41,20.9a48.71,48.71,0,0,0-18.63-3.57,44.41,44.41,0,0,0-21.91,5.37,39.52,39.52,0,0,0-15.24,14.9,40.16,40.16,0,0,0-5.56,20.59,39.11,39.11,0,0,0,9.68,26.2q12.59,14.71,34.19,14.71,17.78,0,28.39-10.61t10.72-28.66H150.5v7.51h24.82a26.73,26.73,0,0,1-9.84,17.57q-8.31,6.77-20.32,6.77A37.44,37.44,0,0,1,127,87.15a33.46,33.46,0,0,1-13-12.44A32.13,32.13,0,0,1,109.22,58a31.49,31.49,0,0,1,4.55-16.27,32.64,32.64,0,0,1,12.83-12.2A36,36,0,0,1,144,25.05a38.39,38.39,0,0,1,15.11,3.31,46.09,46.09,0,0,1,14.26,9.71l6-5.72a55.6,55.6,0,0,0-17-11.46h0Z"/></svg>
