<?xml version="1.0" encoding="utf-8"?>
<!DOCTYPE svg PUBLIC "-//W3C//DTD SVG 1.1//EN" "http://www.w3.org/Graphics/SVG/1.1/DTD/svg11.dtd">
<svg xmlns="http://www.w3.org/2000/svg" viewBox="0 0 300.21 104.38"><defs><style>.a{fill:#2b4048;}.b{fill:#b2cb07;}</style></defs><title>jechange</title><path class="a" d="M278.9,50.28v-17h-2.72V30.59h2.72V29.65c0-2.77.65-5.29,2.32-6.87A6.82,6.82,0,0,1,286,20.95a8.11,8.11,0,0,1,3.05.57l-0.45,2.77a5.54,5.54,0,0,0-2.32-.45c-3,0-3.82,2.68-3.82,5.7v1.06h4.76v2.73h-4.72v17H278.9Z"/><path class="a" d="M290.49,36.73c0-2.32,0-4.31-.16-6.14h3.13l0.16,3.86h0.12a6,6,0,0,1,5.49-4.31,3.74,3.74,0,0,1,1,.12V33.6a11.62,11.62,0,0,0-1.26-.08c-2.52,0-4.31,1.91-4.8,4.56a11,11,0,0,0-.12,1.71V50.28h-3.58Z"/><polygon class="a" points="108.31 19.85 113.71 19.84 113.71 32.22 128.54 32.22 128.54 19.84 133.89 19.85 133.89 50.91 128.54 50.91 128.54 37 113.71 37 113.71 50.91 108.31 50.91 108.31 19.85"/><path class="a" d="M136.92,50.91l15.27-32.08h0.44l14.74,32.08h-5.75l-2.5-5.53H145l-2.55,5.53h-5.53Zm20.27-10-5-11.58L147,41h10.18Z"/><polygon class="a" points="170.44 18.84 171.01 18.84 191.02 39.59 191.02 19.85 196.33 19.85 196.33 51.92 195.76 51.92 175.71 31.17 175.71 50.91 170.44 50.91 170.44 18.84"/><path class="a" d="M218.49,23.75c-6.45,0-11,4.65-11,11.58,0,6.76,4.39,11.41,11,11.41a16.56,16.56,0,0,0,6.05-1.32V38.93h-7.5V34.15h12.86v14.7A23.43,23.43,0,0,1,218.49,52c-9.87,0-16.59-7-16.59-16.59s6.89-16.63,16.59-16.63a20.07,20.07,0,0,1,9.83,2.59l-0.48,6.41a13.74,13.74,0,0,0-9.35-4"/><polygon class="a" points="236.35 19.85 256.32 19.85 254.43 24.63 241.66 24.63 241.66 32.27 252.63 32.27 252.63 37 241.66 37 241.66 46.09 254.65 46.09 256.54 50.91 236.35 50.91 236.35 19.85"/><rect class="a" x="264.06" y="50.99" width="6.84" height="6.84"/><path class="a" d="M10.2,17.58h4.29v22c0,8.73-4.29,11.42-10,11.42A13.26,13.26,0,0,1,0,50.22l0.59-3.46a10.19,10.19,0,0,0,3.61.63c3.81,0,6-1.71,6-8.15V17.58Z"/><path class="a" d="M24,39.39c0.1,5.81,3.76,8.2,8,8.2a16.27,16.27,0,0,0,6.54-1.17l0.78,3A19.24,19.24,0,0,1,31.42,51c-7.22,0-11.61-4.83-11.61-11.9S24,26.27,30.93,26.27c7.71,0,9.71,6.78,9.71,11.12a11.06,11.06,0,0,1-.15,2Zm12.54-3.07c0-2.68-1.12-7-5.9-7-4.39,0-6.24,4-6.59,7H36.49Z"/><path class="a" d="M83,59.9c-12.85,0-22-10.2-22-24.28A26.43,26.43,0,0,1,66,19.43l3.74,4.21L66,11.27,55,7l3.17,3.57c-5.83,6.32-9.33,15.06-9.33,25.12,0,11.72,4.72,21.73,12.94,28.35a32.94,32.94,0,0,0,20.79,7.27,34.34,34.34,0,0,0,20.13-6.52l0.35-13.32C97.1,57.72,90.43,59.9,83,59.9"/><path class="b" d="M101.75,5.77A37.14,37.14,0,0,0,95.61,2.5v0A32.69,32.69,0,0,0,82.87,0,33.63,33.63,0,0,0,64,5.57l5.56,2.75,2,5.92a22.28,22.28,0,0,1,12-3.38A21.09,21.09,0,0,1,92.88,13l1.06,0.55,0.55,0.29h0c0.74,0.41,1.42.82,2.06,1.26l-2.81,5,10.26-6,0.05-12.46Z"/><path class="b" d="M96.66,38A12.93,12.93,0,1,1,83.73,25.1,12.93,12.93,0,0,1,96.66,38"/><path class="a" d="M0.22,90.08q0-.38,0-1.19A12.84,12.84,0,0,1,1,85.05,6.81,6.81,0,0,1,2,83.14a5.25,5.25,0,0,1,1.73-1.41,5.57,5.57,0,0,1,2.6-.55,5.57,5.57,0,0,1,2.6.55,5.25,5.25,0,0,1,1.73,1.41,6.79,6.79,0,0,1,1.05,1.92,12.64,12.64,0,0,1,.55,2,12.72,12.72,0,0,1,.2,1.8q0,0.81,0,1.19t0,1.19a12.72,12.72,0,0,1-.2,1.8,12.63,12.63,0,0,1-.55,2A6.79,6.79,0,0,1,10.71,97,5.21,5.21,0,0,1,9,98.44,5.58,5.58,0,0,1,6.38,99a5.58,5.58,0,0,1-2.59-.55A5.21,5.21,0,0,1,2,97,6.8,6.8,0,0,1,1,95.12a12.84,12.84,0,0,1-.75-3.84q0-.81,0-1.19m1.65,0q0,0.35,0,1A13.34,13.34,0,0,0,2,92.64a12,12,0,0,0,.39,1.69A5.52,5.52,0,0,0,3.2,95.9a4.1,4.1,0,0,0,1.28,1.18,3.65,3.65,0,0,0,1.9.46,3.65,3.65,0,0,0,1.9-.46A4.11,4.11,0,0,0,9.56,95.9a5.53,5.53,0,0,0,.76-1.58,12,12,0,0,0,.39-1.69,13.58,13.58,0,0,0,.15-1.51q0-.69,0-1t0-1a13.57,13.57,0,0,0-.15-1.51,12,12,0,0,0-.39-1.69,5.53,5.53,0,0,0-.76-1.58,4.13,4.13,0,0,0-1.28-1.18,3.66,3.66,0,0,0-1.9-.46,3.66,3.66,0,0,0-1.9.46A4.12,4.12,0,0,0,3.2,84.26a5.51,5.51,0,0,0-.76,1.58A12,12,0,0,0,2,87.53,13.33,13.33,0,0,0,1.9,89q0,0.69,0,1"/><path class="a" d="M16.39,90q0-1,0-2t-0.06-2h1.35c0,0.28.05,0.55,0.06,0.8s0,0.61,0,1.08h0q0.1-.2.33-0.55a3.29,3.29,0,0,1,.61-0.69,3.53,3.53,0,0,1,1-.58,3.5,3.5,0,0,1,1.36-.24,3.77,3.77,0,0,1,1.49.26,3,3,0,0,1,1,.68,3.06,3.06,0,0,1,.6.93,5.53,5.53,0,0,1,.31,1,5.41,5.41,0,0,1,.11.9c0,0.28,0,.48,0,0.61v8.56H23.13V90.21q0-.32,0-0.84a2.75,2.75,0,0,0-.26-1,2.1,2.1,0,0,0-.7-0.81,2.36,2.36,0,0,0-1.38-.34,2.53,2.53,0,0,0-1.21.29,2.75,2.75,0,0,0-.91.79A3.7,3.7,0,0,0,18,89.47a4.86,4.86,0,0,0-.2,1.41v7.94H16.39V90Z"/><path class="a" d="M35.07,92.91q0-.45,0-1.14a10.88,10.88,0,0,1,.16-1.48,10,10,0,0,1,.41-1.58,5.09,5.09,0,0,1,.75-1.41,3.83,3.83,0,0,1,1.19-1,3.56,3.56,0,0,1,1.77-.4,3.52,3.52,0,0,1,2,.53,4.47,4.47,0,0,1,1.36,1.53h0.05V86.05h1.35q-0.05.83-.07,1.78t0,2.45v8.24a7.3,7.3,0,0,1-1.11,4.28,4.18,4.18,0,0,1-3.67,1.58q-0.53,0-.93,0a6.53,6.53,0,0,1-.8-0.12L36.67,104l-1.05-.33,0.1-1.63a7.08,7.08,0,0,0,1.9.75,7.42,7.42,0,0,0,1.6.23,3.17,3.17,0,0,0,1.85-.48,3.12,3.12,0,0,0,1-1.14,3.92,3.92,0,0,0,.41-1.38,11.8,11.8,0,0,0,.07-1.21V97.07h0a4.37,4.37,0,0,1-1.33,1.44,3.43,3.43,0,0,1-1.9.49,3.25,3.25,0,0,1-2-.61A4.59,4.59,0,0,1,36,96.86a7.13,7.13,0,0,1-.7-2,10,10,0,0,1-.21-2m1.55-.48a13.24,13.24,0,0,0,.15,2.05,5.66,5.66,0,0,0,.5,1.65,3,3,0,0,0,.9,1.1,2.27,2.27,0,0,0,1.38.4,2.71,2.71,0,0,0,1.5-.39,2.79,2.79,0,0,0,1-1.09,5.45,5.45,0,0,0,.51-1.69,14.65,14.65,0,0,0,.15-2.19,11.65,11.65,0,0,0-.15-1.89,5.64,5.64,0,0,0-.5-1.61,3,3,0,0,0-1-1.13,2.64,2.64,0,0,0-1.54-.43,2.27,2.27,0,0,0-1.23.31,2.7,2.7,0,0,0-.83.8A3.67,3.67,0,0,0,37,89.43a10.37,10.37,0,0,0-.25,1.19,9,9,0,0,0-.1,1.08c0,0.32,0,.57,0,0.74"/><path class="a" d="M56,96q0,0.73,0,1.43l0.1,1.43h-1.3L54.72,97h0a4.3,4.3,0,0,1-1.49,1.53,4.19,4.19,0,0,1-2.09.48,3.35,3.35,0,0,1-1.39-.29,3.64,3.64,0,0,1-1.89-2,3.81,3.81,0,0,1-.28-1.45,4.09,4.09,0,0,1,.33-1.73,3.39,3.39,0,0,1,.86-1.16,4,4,0,0,1,1.2-.71,7.8,7.8,0,0,1,1.35-.38,9.67,9.67,0,0,1,1.33-.15l1.09,0h0.93q0-.6,0-1.29a3.66,3.66,0,0,0-.29-1.26,2.32,2.32,0,0,0-.79-1A2.61,2.61,0,0,0,52,87.23a3.84,3.84,0,0,0-1.2.18,6.07,6.07,0,0,0-1,.41,5.91,5.91,0,0,0-.7.43l-0.33.25L48.54,87a15.14,15.14,0,0,1,1.68-.81A4.86,4.86,0,0,1,52,85.88a4.14,4.14,0,0,1,2.28.53,3.28,3.28,0,0,1,1.16,1.24,3.89,3.89,0,0,1,.43,1.41c0,0.47.06,0.82,0.06,1.05V96Zm-1.35-3.58q-1.13,0-2.13.05a6.4,6.4,0,0,0-1.77.31,2.41,2.41,0,0,0-1.2.86,2.8,2.8,0,0,0-.44,1.68,2.48,2.48,0,0,0,.15.83,2.29,2.29,0,0,0,.45.76,2.35,2.35,0,0,0,.74.55,2.29,2.29,0,0,0,1,.21,4.58,4.58,0,0,0,.78-0.1,2.77,2.77,0,0,0,1.06-.48,3.14,3.14,0,0,0,.94-1.13,4.41,4.41,0,0,0,.4-2.05v-1.5Z"/><path class="a" d="M59.53,92.91q0-.45,0-1.14a10.88,10.88,0,0,1,.16-1.48,10,10,0,0,1,.41-1.58,5.09,5.09,0,0,1,.75-1.41,3.82,3.82,0,0,1,1.19-1,3.56,3.56,0,0,1,1.77-.4,3.52,3.52,0,0,1,2,.53,4.47,4.47,0,0,1,1.36,1.53h0.05V86.05h1.35q-0.05.83-.07,1.78t0,2.45v8.24a7.3,7.3,0,0,1-1.11,4.28,4.18,4.18,0,0,1-3.67,1.58q-0.53,0-.93,0a6.53,6.53,0,0,1-.8-0.12L61.13,104l-1.05-.33,0.1-1.63a7.08,7.08,0,0,0,1.9.75,7.42,7.42,0,0,0,1.6.23,3.17,3.17,0,0,0,1.85-.48,3.12,3.12,0,0,0,1-1.14A3.92,3.92,0,0,0,67,100,11.8,11.8,0,0,0,67,98.82V97.07h0a4.37,4.37,0,0,1-1.33,1.44,3.43,3.43,0,0,1-1.9.49,3.25,3.25,0,0,1-2-.61,4.59,4.59,0,0,1-1.3-1.53,7.11,7.11,0,0,1-.7-2,10,10,0,0,1-.21-2m1.55-.48a13.24,13.24,0,0,0,.15,2.05,5.66,5.66,0,0,0,.5,1.65,3,3,0,0,0,.9,1.1,2.27,2.27,0,0,0,1.38.4,2.71,2.71,0,0,0,1.5-.39,2.79,2.79,0,0,0,1-1.09A5.45,5.45,0,0,0,67,94.48a14.65,14.65,0,0,0,.15-2.19A11.65,11.65,0,0,0,67,90.4a5.64,5.64,0,0,0-.5-1.61,3,3,0,0,0-1-1.13A2.64,2.64,0,0,0,64,87.23a2.27,2.27,0,0,0-1.23.31,2.7,2.7,0,0,0-.83.8,3.67,3.67,0,0,0-.49,1.09,10.37,10.37,0,0,0-.25,1.19,8.86,8.86,0,0,0-.1,1.08c0,0.32,0,.57,0,0.74"/><path class="a" d="M72.67,90q0-1,0-2t-0.06-2h1.35c0,0.28.05,0.55,0.06,0.8s0,0.61,0,1.08h0q0.1-.2.33-0.55A3.29,3.29,0,0,1,75,86.69a3.53,3.53,0,0,1,1-.58,3.5,3.5,0,0,1,1.36-.24,3.77,3.77,0,0,1,1.49.26,3,3,0,0,1,1,.68,3.06,3.06,0,0,1,.6.93,5.53,5.53,0,0,1,.31,1,5.41,5.41,0,0,1,.11.9c0,0.28,0,.48,0,0.61v8.56H79.41V90.21q0-.32,0-0.84a2.76,2.76,0,0,0-.26-1,2.1,2.1,0,0,0-.7-0.81A2.36,2.36,0,0,0,77,87.23a2.53,2.53,0,0,0-1.21.29,2.75,2.75,0,0,0-.91.79,3.69,3.69,0,0,0-.58,1.16,4.86,4.86,0,0,0-.2,1.41v7.94H72.67V90Z"/><path class="a" d="M86,92.91a6.19,6.19,0,0,0,.49,2.74,3.76,3.76,0,0,0,1.1,1.4,2.67,2.67,0,0,0,1.2.51,7.63,7.63,0,0,0,.81.08A4.34,4.34,0,0,0,91,97.37a3.84,3.84,0,0,0,1.34-.78l0.08,1.68a7.25,7.25,0,0,1-1.14.49,5.8,5.8,0,0,1-1.84.24,5,5,0,0,1-2.12-.4,4.29,4.29,0,0,1-1.41-1,4.52,4.52,0,0,1-.85-1.38,8.19,8.19,0,0,1-.44-1.5,9.64,9.64,0,0,1-.16-1.34q0-.6,0-0.93a10.11,10.11,0,0,1,.4-3.05,5.94,5.94,0,0,1,1.05-2,4,4,0,0,1,1.46-1.13A4.06,4.06,0,0,1,89,85.88a3.36,3.36,0,0,1,2.19.66,4.23,4.23,0,0,1,1.24,1.69A7.73,7.73,0,0,1,93,90.51q0.11,1.25.11,2.4H86Zm5.51-1.35a7.79,7.79,0,0,0-.24-2.1,4.1,4.1,0,0,0-.61-1.33,2.12,2.12,0,0,0-.84-0.7,2.29,2.29,0,0,0-.91-0.2,1.94,1.94,0,0,0-1.29.45,3.88,3.88,0,0,0-.9,1.1,5.35,5.35,0,0,0-.54,1.4A6.08,6.08,0,0,0,86,91.56h5.51Z"/><path class="a" d="M105.67,83v3h2.6V87.4h-2.6v8.31a5.06,5.06,0,0,0,.05.73,1.7,1.7,0,0,0,.2.61,1.15,1.15,0,0,0,.43.43,1.41,1.41,0,0,0,.73.16,2.41,2.41,0,0,0,.75-0.09,3.93,3.93,0,0,0,.45-0.19v1.45a2.91,2.91,0,0,1-.73.14q-0.45,0-1,0a2.43,2.43,0,0,1-1.16-.25,2,2,0,0,1-.73-0.65,2.71,2.71,0,0,1-.38-0.93,5,5,0,0,1-.11-1.05V87.4h-1.9V86.05h1.9V83.5Z"/><path class="a" d="M115.51,99a4.34,4.34,0,0,1-2.33-.58,4.27,4.27,0,0,1-1.46-1.5,6.62,6.62,0,0,1-.76-2.1,12.66,12.66,0,0,1,0-4.76,6.62,6.62,0,0,1,.76-2.1,4.28,4.28,0,0,1,1.46-1.5,5,5,0,0,1,4.66,0A4.29,4.29,0,0,1,119.3,88a6.65,6.65,0,0,1,.76,2.1,12.66,12.66,0,0,1,0,4.76,6.65,6.65,0,0,1-.76,2.1,4.28,4.28,0,0,1-1.46,1.5,4.34,4.34,0,0,1-2.33.58m0-1.35a2.7,2.7,0,0,0,1.35-.31,2.86,2.86,0,0,0,.91-0.81,4.06,4.06,0,0,0,.56-1.1,7.16,7.16,0,0,0,.29-1.18,8.71,8.71,0,0,0,.1-1.06c0-.33,0-0.57,0-0.74s0-.41,0-0.74a8.74,8.74,0,0,0-.1-1.06,7.17,7.17,0,0,0-.29-1.18,4,4,0,0,0-.56-1.1,2.86,2.86,0,0,0-.91-0.81,3.07,3.07,0,0,0-2.7,0,2.86,2.86,0,0,0-.91.81,4,4,0,0,0-.56,1.1,7.07,7.07,0,0,0-.29,1.18,8.44,8.44,0,0,0-.1,1.06q0,0.49,0,.74c0,0.17,0,.41,0,0.74a8.42,8.42,0,0,0,.1,1.06,7.06,7.06,0,0,0,.29,1.18,4,4,0,0,0,.56,1.1,2.86,2.86,0,0,0,.91.81,2.7,2.7,0,0,0,1.35.31"/><path class="a" d="M132.08,94.87q0,1,0,2t0.06,2h-1.35q-0.05-.43-0.06-0.8t0-1.08h0a2.06,2.06,0,0,1-.28.55,3.26,3.26,0,0,1-.61.69,3.43,3.43,0,0,1-1,.58,3.69,3.69,0,0,1-1.39.24,3.74,3.74,0,0,1-1.73-.35,3,3,0,0,1-1.08-.91,3.52,3.52,0,0,1-.56-1.29,6.71,6.71,0,0,1-.16-1.48V86.05h1.45v8.61q0,0.33,0,.84a2.76,2.76,0,0,0,.26,1,2.09,2.09,0,0,0,.7.81,2.37,2.37,0,0,0,1.38.34,2.53,2.53,0,0,0,1.21-.29,2.76,2.76,0,0,0,.91-0.79,3.7,3.7,0,0,0,.58-1.16,4.89,4.89,0,0,0,.2-1.41V86.05h1.45v8.81Z"/><path class="a" d="M136.49,86.05h1.45v15q0,0.5,0,1.08a3.08,3.08,0,0,1-.3,1.09,2.13,2.13,0,0,1-.76.85,2.61,2.61,0,0,1-1.44.34,2.64,2.64,0,0,1-.6-0.05l-0.35-.1v-1.45l0.26,0.1a1.29,1.29,0,0,0,.41.05l0.48,0a0.84,0.84,0,0,0,.45-0.19,1.14,1.14,0,0,0,.33-0.5,3,3,0,0,0,.12-1V86.05ZM136.34,81h1.75v2.25h-1.75V81Z"/><path class="a" d="M146.45,99a4.34,4.34,0,0,1-2.33-.58,4.27,4.27,0,0,1-1.46-1.5,6.62,6.62,0,0,1-.76-2.1,12.66,12.66,0,0,1,0-4.76,6.62,6.62,0,0,1,.76-2.1,4.28,4.28,0,0,1,1.46-1.5,5,5,0,0,1,4.66,0,4.29,4.29,0,0,1,1.46,1.5,6.65,6.65,0,0,1,.76,2.1,12.66,12.66,0,0,1,0,4.76,6.65,6.65,0,0,1-.76,2.1,4.28,4.28,0,0,1-1.46,1.5,4.34,4.34,0,0,1-2.33.58m0-1.35a2.7,2.7,0,0,0,1.35-.31,2.87,2.87,0,0,0,.91-0.81,4.07,4.07,0,0,0,.56-1.1,7.11,7.11,0,0,0,.29-1.18,8.61,8.61,0,0,0,.1-1.06c0-.33,0-0.57,0-0.74s0-.41,0-0.74a8.64,8.64,0,0,0-.1-1.06,7.12,7.12,0,0,0-.29-1.18,4.06,4.06,0,0,0-.56-1.1,2.87,2.87,0,0,0-.91-0.81,3.07,3.07,0,0,0-2.7,0,2.86,2.86,0,0,0-.91.81,4,4,0,0,0-.56,1.1,7.07,7.07,0,0,0-.29,1.18,8.44,8.44,0,0,0-.1,1.06q0,0.49,0,.74c0,0.17,0,.41,0,0.74a8.42,8.42,0,0,0,.1,1.06,7.06,7.06,0,0,0,.29,1.18,4,4,0,0,0,.56,1.1,2.86,2.86,0,0,0,.91.81,2.7,2.7,0,0,0,1.35.31"/><path class="a" d="M163,94.87q0,1,0,2t0.06,2h-1.35q-0.05-.43-0.06-0.8t0-1.08h-0.05a2.06,2.06,0,0,1-.28.55,3.28,3.28,0,0,1-.61.69,3.44,3.44,0,0,1-1,.58,3.69,3.69,0,0,1-1.39.24,3.74,3.74,0,0,1-1.73-.35,3,3,0,0,1-1.08-.91,3.52,3.52,0,0,1-.56-1.29,6.71,6.71,0,0,1-.16-1.48V86.05h1.45v8.61q0,0.33,0,.84a2.75,2.75,0,0,0,.26,1,2.1,2.1,0,0,0,.7.81,2.37,2.37,0,0,0,1.38.34,2.53,2.53,0,0,0,1.21-.29,2.75,2.75,0,0,0,.91-0.79,3.7,3.7,0,0,0,.58-1.16,4.87,4.87,0,0,0,.2-1.41V86.05H163v8.81Z"/><path class="a" d="M167.3,90q0-1,0-2t-0.06-2h1.35c0,0.38,0,.75,0,1.1s0,0.66.05,0.93h0.05a5.89,5.89,0,0,1,.73-1.11,3,3,0,0,1,.8-0.68,2.93,2.93,0,0,1,.89-0.33,5.36,5.36,0,0,1,1-.09v1.55a3.54,3.54,0,0,0-2.54.79,3.45,3.45,0,0,0-.81,2.57v8H167.3V90Z"/><path class="a" d="M180.42,87.7l-1.05-.33a4,4,0,0,0-1.13-.15,2.29,2.29,0,0,0-1,.19,2.14,2.14,0,0,0-.68.49,1.87,1.87,0,0,0-.4.66,2.11,2.11,0,0,0-.13.69,2.27,2.27,0,0,0,.1.74,1.49,1.49,0,0,0,.34.54,3,3,0,0,0,.66.5l1.08,0.6,1.23,0.68a4.58,4.58,0,0,1,1,.74,2.92,2.92,0,0,1,.89,2.24,3.94,3.94,0,0,1-.29,1.55,3.45,3.45,0,0,1-.8,1.16,3.41,3.41,0,0,1-1.2.74,4.33,4.33,0,0,1-1.49.25,7.48,7.48,0,0,1-1.93-.2q-0.73-.2-1.3-0.4l0.2-1.63A2.28,2.28,0,0,0,175,97a5.54,5.54,0,0,0,.7.28q0.39,0.13.84,0.22a4.11,4.11,0,0,0,.9.1,2.28,2.28,0,0,0,1.7-.66,2.13,2.13,0,0,0,.65-1.54,1.92,1.92,0,0,0-.15-0.79,2.17,2.17,0,0,0-.43-0.63,3.1,3.1,0,0,0-.71-0.54c-0.29-.17-0.62-0.34-1-0.53q-0.8-.4-1.38-0.75a4.18,4.18,0,0,1-.94-0.75,2.48,2.48,0,0,1-.53-0.89,3.69,3.69,0,0,1-.16-1.16,3.3,3.3,0,0,1,.35-1.56,3.51,3.51,0,0,1,.89-1.1,3.65,3.65,0,0,1,1.2-.65,4.29,4.29,0,0,1,1.31-.21,7.26,7.26,0,0,1,1.33.12,7.17,7.17,0,0,1,1,.25Z"/><path class="a" d="M199.47,96q0,0.73.05,1.43l0.1,1.43h-1.3L198.22,97h-0.05a4.29,4.29,0,0,1-1.49,1.53,4.19,4.19,0,0,1-2.09.48,3.35,3.35,0,0,1-1.39-.29,3.66,3.66,0,0,1-1.13-.79,3.61,3.61,0,0,1-.76-1.18,3.81,3.81,0,0,1-.28-1.45,4.09,4.09,0,0,1,.33-1.73,3.39,3.39,0,0,1,.86-1.16,4,4,0,0,1,1.2-.71,7.8,7.8,0,0,1,1.35-.38,9.58,9.58,0,0,1,1.33-.15l1.09,0h0.93q0-.6,0-1.29a3.66,3.66,0,0,0-.29-1.26,2.32,2.32,0,0,0-.79-1,2.61,2.61,0,0,0-1.54-.39,3.86,3.86,0,0,0-1.2.18,6.11,6.11,0,0,0-1,.41,5.92,5.92,0,0,0-.7.43l-0.33.25L192,87a15.37,15.37,0,0,1,1.68-.81,4.87,4.87,0,0,1,1.83-.31,4.15,4.15,0,0,1,2.28.53A3.28,3.28,0,0,1,199,87.64a3.88,3.88,0,0,1,.43,1.41q0.06,0.7.06,1.05V96Zm-1.35-3.58q-1.13,0-2.13,0a6.41,6.41,0,0,0-1.76.31,2.41,2.41,0,0,0-1.2.86,2.8,2.8,0,0,0-.44,1.68,2.47,2.47,0,0,0,.15.83,2.28,2.28,0,0,0,.45.76,2.35,2.35,0,0,0,.74.55,2.3,2.3,0,0,0,1,.21,4.64,4.64,0,0,0,.78-0.1,2.77,2.77,0,0,0,1.06-.48,3.13,3.13,0,0,0,.94-1.13,4.4,4.4,0,0,0,.4-2.05v-1.5Zm-3.3-11.79,1.9,3.56h-1.25l-2.4-3.56h1.75Z"/><path class="a" d="M217.5,88a2.59,2.59,0,0,0-1.08-.5,5.46,5.46,0,0,0-1.23-.15,3.83,3.83,0,0,0-1.4.26,3.07,3.07,0,0,0-1.19.84,4.33,4.33,0,0,0-.83,1.46,6.56,6.56,0,0,0-.31,2.17,7.82,7.82,0,0,0,.43,2.83,4.63,4.63,0,0,0,1,1.67,3.18,3.18,0,0,0,1.29.79,4.28,4.28,0,0,0,1.2.2,4.39,4.39,0,0,0,.53,0,5.72,5.72,0,0,0,.61-0.11,3.26,3.26,0,0,0,.59-0.2,1.07,1.07,0,0,0,.43-0.33l0.12,1.65a6.11,6.11,0,0,1-1.14.34,6.57,6.57,0,0,1-1.34.14,5.06,5.06,0,0,1-2-.4,4.82,4.82,0,0,1-1.69-1.2,6,6,0,0,1-1.19-2,8.33,8.33,0,0,1-.45-2.88,10.42,10.42,0,0,1,.33-2.68,6,6,0,0,1,1-2.09,4.51,4.51,0,0,1,1.65-1.35,5.25,5.25,0,0,1,2.33-.49,6.46,6.46,0,0,1,1.35.12,5.33,5.33,0,0,1,1,.33Z"/><path class="a" d="M224.83,99a4.33,4.33,0,0,1-2.33-.58,4.27,4.27,0,0,1-1.47-1.5,6.64,6.64,0,0,1-.76-2.1,12.66,12.66,0,0,1,0-4.76A6.64,6.64,0,0,1,221,88a4.28,4.28,0,0,1,1.47-1.5,5,5,0,0,1,4.66,0,4.29,4.29,0,0,1,1.46,1.5,6.64,6.64,0,0,1,.76,2.1,12.69,12.69,0,0,1,0,4.76,6.64,6.64,0,0,1-.76,2.1,4.28,4.28,0,0,1-1.46,1.5,4.34,4.34,0,0,1-2.33.58m0-1.35a2.7,2.7,0,0,0,1.35-.31,2.87,2.87,0,0,0,.91-0.81,4.07,4.07,0,0,0,.56-1.1,7.16,7.16,0,0,0,.29-1.18,8.71,8.71,0,0,0,.1-1.06c0-.33,0-0.57,0-0.74s0-.41,0-0.74a8.74,8.74,0,0,0-.1-1.06,7.17,7.17,0,0,0-.29-1.18,4.06,4.06,0,0,0-.56-1.1,2.87,2.87,0,0,0-.91-0.81,3.07,3.07,0,0,0-2.7,0,2.86,2.86,0,0,0-.91.81,4,4,0,0,0-.56,1.1,7.07,7.07,0,0,0-.29,1.18,8.45,8.45,0,0,0-.1,1.06q0,0.49,0,.74c0,0.17,0,.41,0,0.74a8.42,8.42,0,0,0,.1,1.06,7.06,7.06,0,0,0,.29,1.18,4,4,0,0,0,.56,1.1,2.86,2.86,0,0,0,.91.81,2.7,2.7,0,0,0,1.35.31"/><path class="a" d="M233.22,90q0-1,0-2t-0.06-2h1.35c0,0.28.05,0.55,0.06,0.8s0,0.61,0,1.08h0a4.15,4.15,0,0,1,.4-0.71,3.25,3.25,0,0,1,.61-0.66,3,3,0,0,1,1.94-.68,3.5,3.5,0,0,1,1.3.21,2.4,2.4,0,0,1,.84.54,2.77,2.77,0,0,1,.49.68l0.3,0.63,0.4-.58a3.68,3.68,0,0,1,.64-0.68,4,4,0,0,1,.91-0.56,3,3,0,0,1,1.23-.24,3.24,3.24,0,0,1,1.61.36,2.81,2.81,0,0,1,1,1,4,4,0,0,1,.53,1.34A7.43,7.43,0,0,1,247,90v8.79h-1.45V90.21q0-.32,0-0.84a3.34,3.34,0,0,0-.23-1,1.94,1.94,0,0,0-.61-0.81,1.89,1.89,0,0,0-1.2-.34,2.32,2.32,0,0,0-1.18.29,2.43,2.43,0,0,0-.81.75,3.51,3.51,0,0,0-.48,1.08,5,5,0,0,0-.16,1.29v8.19h-1.45V89.93a3.37,3.37,0,0,0-.51-2,1.64,1.64,0,0,0-1.41-.73,2.29,2.29,0,0,0-1.14.29,2.71,2.71,0,0,0-.88.79,3.87,3.87,0,0,0-.56,1.16,4.85,4.85,0,0,0-.2,1.41v7.94h-1.45V90Z"/><path class="a" d="M251.17,90.28q0-1.5,0-2.45t-0.08-1.78h1.35v1.88h0.05a5.13,5.13,0,0,1,1.45-1.53,3.39,3.39,0,0,1,1.9-.53,3.67,3.67,0,0,1,1.75.39,3.71,3.71,0,0,1,1.2,1,5.15,5.15,0,0,1,.75,1.35,9.53,9.53,0,0,1,.41,1.41,8.1,8.1,0,0,1,.16,1.21q0,0.54,0,.76a14.12,14.12,0,0,1-.24,2.62,8.23,8.23,0,0,1-.74,2.24,4.27,4.27,0,0,1-1.3,1.55,3.26,3.26,0,0,1-2,.58,3.91,3.91,0,0,1-2-.46,3.2,3.2,0,0,1-1.26-1.31h0v7h-1.45V90.28Zm7.41,2.15c0-.17,0-0.41,0-0.74a9.08,9.08,0,0,0-.1-1.08,10.48,10.48,0,0,0-.25-1.19,3.7,3.7,0,0,0-.49-1.09,2.71,2.71,0,0,0-.83-0.8,2.27,2.27,0,0,0-1.23-.31,2.64,2.64,0,0,0-1.54.43,2.94,2.94,0,0,0-1,1.13,5.63,5.63,0,0,0-.5,1.61,11.65,11.65,0,0,0-.15,1.89q0,0.65.05,1.56a6.44,6.44,0,0,0,.34,1.75,3.51,3.51,0,0,0,.93,1.44,2.55,2.55,0,0,0,1.82.6,2.28,2.28,0,0,0,1.38-.4,3,3,0,0,0,.9-1.1,5.64,5.64,0,0,0,.5-1.65,13.17,13.17,0,0,0,.15-2.05"/><path class="a" d="M271.5,96q0,0.73.05,1.43l0.1,1.43h-1.3L270.25,97h0a4.29,4.29,0,0,1-1.49,1.53,4.19,4.19,0,0,1-2.09.48,3.35,3.35,0,0,1-1.39-.29,3.66,3.66,0,0,1-1.13-.79,3.62,3.62,0,0,1-.76-1.18,3.81,3.81,0,0,1-.28-1.45,4.09,4.09,0,0,1,.33-1.73,3.39,3.39,0,0,1,.86-1.16,4,4,0,0,1,1.2-.71,7.81,7.81,0,0,1,1.35-.38,9.67,9.67,0,0,1,1.33-.15l1.09,0h0.93q0-.6,0-1.29a3.66,3.66,0,0,0-.29-1.26,2.32,2.32,0,0,0-.79-1,2.61,2.61,0,0,0-1.54-.39,3.84,3.84,0,0,0-1.2.18,6.05,6.05,0,0,0-1,.41,5.91,5.91,0,0,0-.7.43l-0.33.25L264.06,87a15.18,15.18,0,0,1,1.68-.81,4.87,4.87,0,0,1,1.83-.31,4.14,4.14,0,0,1,2.28.53A3.28,3.28,0,0,1,271,87.64a3.89,3.89,0,0,1,.43,1.41q0.06,0.7.06,1.05V96Zm-1.35-3.58q-1.13,0-2.13.05a6.4,6.4,0,0,0-1.76.31,2.41,2.41,0,0,0-1.2.86,2.8,2.8,0,0,0-.44,1.68,2.46,2.46,0,0,0,.15.83,2.27,2.27,0,0,0,.45.76,2.34,2.34,0,0,0,.74.55,2.29,2.29,0,0,0,1,.21,4.58,4.58,0,0,0,.78-0.1,2.77,2.77,0,0,0,1.06-.48,3.14,3.14,0,0,0,.94-1.13,4.41,4.41,0,0,0,.4-2.05v-1.5Z"/><path class="a" d="M275.73,90q0-1,0-2t-0.06-2H277c0,0.38,0,.75,0,1.1s0,0.66.05,0.93h0.05a5.87,5.87,0,0,1,.73-1.11,3,3,0,0,1,.8-0.68,2.93,2.93,0,0,1,.89-0.33,5.36,5.36,0,0,1,1-.09v1.55a3.54,3.54,0,0,0-2.54.79,3.45,3.45,0,0,0-.81,2.57v8h-1.45V90Z"/><path class="a" d="M284.44,92.91a6.2,6.2,0,0,0,.49,2.74,3.77,3.77,0,0,0,1.1,1.4,2.67,2.67,0,0,0,1.2.51,7.63,7.63,0,0,0,.81.08,4.35,4.35,0,0,0,1.41-.28,3.84,3.84,0,0,0,1.34-.78l0.08,1.68a7.24,7.24,0,0,1-1.14.49,5.81,5.81,0,0,1-1.84.24,5,5,0,0,1-2.12-.4,4.29,4.29,0,0,1-1.41-1,4.51,4.51,0,0,1-.85-1.38,8.23,8.23,0,0,1-.44-1.5,9.48,9.48,0,0,1-.16-1.34q0-.6,0-0.93a10.12,10.12,0,0,1,.4-3.05,5.94,5.94,0,0,1,1.05-2,4,4,0,0,1,1.47-1.13,4.05,4.05,0,0,1,1.61-.35,3.36,3.36,0,0,1,2.19.66,4.24,4.24,0,0,1,1.24,1.69,7.74,7.74,0,0,1,.54,2.28q0.11,1.25.11,2.4h-7.06Zm5.51-1.35a7.77,7.77,0,0,0-.24-2.1,4.12,4.12,0,0,0-.61-1.33,2.12,2.12,0,0,0-.84-0.7,2.29,2.29,0,0,0-.91-0.2,1.94,1.94,0,0,0-1.29.45,3.9,3.9,0,0,0-.9,1.1,5.35,5.35,0,0,0-.54,1.4,6.08,6.08,0,0,0-.18,1.38h5.51Z"/><path class="a" d="M295.11,90q0-1,0-2t-0.06-2h1.35c0,0.38,0,.75.05,1.1s0,0.66.05,0.93h0a5.89,5.89,0,0,1,.73-1.11,3,3,0,0,1,.8-0.68,2.93,2.93,0,0,1,.89-0.33,5.36,5.36,0,0,1,1-.09v1.55a3.54,3.54,0,0,0-2.54.79,3.45,3.45,0,0,0-.81,2.57v8h-1.45V90Z"/></svg>
