<?xml version="1.0" encoding="utf-8"?>
<!DOCTYPE svg PUBLIC "-//W3C//DTD SVG 1.1//EN" "http://www.w3.org/Graphics/SVG/1.1/DTD/svg11.dtd">
<svg xmlns="http://www.w3.org/2000/svg" viewBox="0 0 396.54 92.05"><defs><style>.a{fill:#1d1d1b;}.b{fill:#eace2d;}</style></defs><title>jolicode</title><path class="a" d="M73.42,4.61A4.35,4.35,0,0,0,70.19,6a4.51,4.51,0,0,0-1.33,3.27,4.5,4.5,0,0,0,1.33,3.28,4.52,4.52,0,0,0,6.46,0A4.52,4.52,0,0,0,78,9.25,4.44,4.44,0,0,0,76.65,6,4.42,4.42,0,0,0,73.42,4.61Z"/><path class="a" d="M77.23,21.63V21.55h0a3.72,3.72,0,0,0-7.41.6h0V74.61a9.55,9.55,0,0,1-2.92,7,9.34,9.34,0,0,1-6.82,2.92,10.05,10.05,0,0,1-7.42-2.92,9.91,9.91,0,0,1-3-7.14V52.64h0s0,0,0-.07a3.7,3.7,0,0,0-7.41.09h0v22a17,17,0,0,0,5.1,12.34A16.72,16.72,0,0,0,59.79,92,17.42,17.42,0,0,0,77.23,74.61V22.13a3.86,3.86,0,0,0,0-.49h0Z"/><path class="a" d="M151.36,13.88a4.34,4.34,0,0,0,3.23-1.37,4.52,4.52,0,0,0,1.33-3.27A4.44,4.44,0,0,0,154.59,6a4.42,4.42,0,0,0-3.23-1.37A4.34,4.34,0,0,0,148.13,6a4.51,4.51,0,0,0-1.33,3.27,4.5,4.5,0,0,0,1.33,3.28A4.37,4.37,0,0,0,151.36,13.88Z"/><path class="a" d="M98.45,21.55A17.42,17.42,0,0,0,81,39V56.06a17.48,17.48,0,0,0,29.82,12.34A16.73,16.73,0,0,0,116,56.06V39a16.73,16.73,0,0,0-5.15-12.34A17,17,0,0,0,98.45,21.55Zm10.11,34.37a9.92,9.92,0,0,1-3,7.14A9.5,9.5,0,0,1,98.73,66a10.28,10.28,0,0,1-7.19-2.92,9.33,9.33,0,0,1-3.11-7.14V38.85A9.53,9.53,0,0,1,91.36,32a9.34,9.34,0,0,1,6.82-2.92A10.15,10.15,0,0,1,105.59,32a9.92,9.92,0,0,1,3,7.14V55.92Z"/><path class="a" d="M278.61,0.72a3.72,3.72,0,0,0-3.72,3.6h0V24.71A17.48,17.48,0,0,0,247.32,39V56.06a17.48,17.48,0,0,0,35,0V5A3.69,3.69,0,0,0,278.61.72Zm-3.74,55.2a9.91,9.91,0,0,1-3,7.14A9.49,9.49,0,0,1,265,66a10.29,10.29,0,0,1-7.19-2.92,9.33,9.33,0,0,1-3.11-7.14V38.85A9.53,9.53,0,0,1,257.67,32a9.34,9.34,0,0,1,6.82-2.92A10.15,10.15,0,0,1,271.9,32a9.92,9.92,0,0,1,3,7.14V55.92Z"/><path class="a" d="M320.21,39a16.16,16.16,0,0,0-5.15-12.34,17.57,17.57,0,0,0-12.38-5.1A17.42,17.42,0,0,0,285.24,39V56.06A17.41,17.41,0,0,0,302.68,73.5a15.76,15.76,0,0,0,12-5q5.56-5.94,5.56-12.43V53.15h0a3.72,3.72,0,0,0-7.4-.52h0v0.12a3.39,3.39,0,0,0,0,.89v2.28a9.92,9.92,0,0,1-3,7.14A9.5,9.5,0,0,1,303,66a9.88,9.88,0,0,1-7.37-3,10.17,10.17,0,0,1-2.92-7.4l27.55-12.25V39Zm-27.55,8.49V39a9.56,9.56,0,0,1,2.92-7,9.34,9.34,0,0,1,6.82-2.92A10.14,10.14,0,0,1,309.82,32a9.69,9.69,0,0,1,2.92,6.55Z"/><path class="a" d="M226.69,21.55A17.42,17.42,0,0,0,209.26,39V53.24a12.71,12.71,0,0,1-4,9.22,13.49,13.49,0,0,1-19.06,0,12.85,12.85,0,0,1-3.9-8.51V52.35h0V23.92a12.88,12.88,0,0,1,3.94-9.48,13.52,13.52,0,0,1,19.06,0A21.92,21.92,0,0,1,208.46,19a3.63,3.63,0,0,0,6.44-3.31h0a21,21,0,0,0-4.35-6.17,20,20,0,0,0-14.79-6.08A20.27,20.27,0,0,0,181,9.47a19.77,19.77,0,0,0-6.12,14.59v28.8c0,0.3,0,.59,0,0.88,0,4.93-1,7-2.92,9.09A9,9,0,0,1,165.16,66a10.15,10.15,0,0,1-7.42-2.92,9.92,9.92,0,0,1-3-7.14V21.55h0s0,0,0,0a3.7,3.7,0,1,0-7.39.31v0h0V55.58h0a10.33,10.33,0,0,1-2.92,7.23A9,9,0,0,1,137.58,66a10.15,10.15,0,0,1-7.42-2.92,9.91,9.91,0,0,1-3-7.14v-52c0-.08,0-0.15,0-0.23a3.72,3.72,0,1,0-7.43,0h0V56.06a16.73,16.73,0,0,0,5.15,12.34,17.53,17.53,0,0,0,24.72,0,19,19,0,0,0,1.42-1.61,19.05,19.05,0,0,0,1.44,1.61,17.53,17.53,0,0,0,24.72,0,18.54,18.54,0,0,0,2.2-2.65c0.48,0.59,1,1.16,1.56,1.72a21.14,21.14,0,0,0,29.59,0,23.06,23.06,0,0,0,1.57-1.72,18.46,18.46,0,0,0,2.22,2.68,17.51,17.51,0,0,0,29.87-12.34V39a16.73,16.73,0,0,0-5.15-12.34A17,17,0,0,0,226.69,21.55ZM236.8,55.92a9.91,9.91,0,0,1-3,7.14A9.5,9.5,0,0,1,227,66a10.29,10.29,0,0,1-7.19-2.92,9.33,9.33,0,0,1-3.11-7.14v-2.8c0-.09,0-0.17,0-0.26V49h0V38.85A9.53,9.53,0,0,1,219.6,32a9.34,9.34,0,0,1,6.82-2.92A10.15,10.15,0,0,1,233.84,32a9.92,9.92,0,0,1,3,7.14V55.92Z"/><path class="b" d="M368.41,76.16A3.38,3.38,0,0,1,366,70.4L388.39,48,366,25.67a3.38,3.38,0,0,1,4.78-4.78l24.76,24.75a3.38,3.38,0,0,1,0,4.78L370.8,75.17A3.36,3.36,0,0,1,368.41,76.16Z"/><path class="b" d="M28.13,75.28a3.36,3.36,0,0,1-2.39-1L1,49.54a3.38,3.38,0,0,1,0-4.78L25.74,20a3.38,3.38,0,0,1,4.78,4.78L8.15,47.15,30.52,69.52A3.38,3.38,0,0,1,28.13,75.28Z"/><path class="b" d="M328.54,83.72a3.38,3.38,0,0,1-3.12-4.67l26.63-64.62A3.38,3.38,0,0,1,358.3,17L331.67,81.63A3.38,3.38,0,0,1,328.54,83.72Z"/></svg>
