<?xml version="1.0" encoding="utf-8"?>
<!DOCTYPE svg PUBLIC "-//W3C//DTD SVG 1.1//EN" "http://www.w3.org/Graphics/SVG/1.1/DTD/svg11.dtd">
<svg xmlns="http://www.w3.org/2000/svg" viewBox="0 0 980.1 875.07"><defs><style>.a{fill:#d23333;}.b{fill:#fff;}</style></defs><title>le-wagon-bordeaux</title><path class="a" d="M234.48,773.64a34.74,34.74,0,0,1-6.93,21.43q-6.93,9.24-19.49,15.89,14.41,8.87,14.41,26a39.72,39.72,0,0,1-8.5,25.12q-9.79,12.56-25.31,12.56a27.51,27.51,0,0,1-13.12-3.14q-5.91-3.14-5.91-7a49.42,49.42,0,0,1,1.29-5.36q2-5.36,5.17-5.36,2.4,0,9.61,5.54,3.51,2.77,6.28,2.77,5.36,0,9.61-7.3a31.89,31.89,0,0,0,4.25-16.35,29.6,29.6,0,0,0-2.22-11.92,25.29,25.29,0,0,0-7.39-9.33q-1.29.37-4.25,0.92a30.16,30.16,0,0,1-5.54.55,13.72,13.72,0,0,1-4.9-.65,2.75,2.75,0,0,1-1.57-2.86q0-9.42,9.05-10.53,14-1.85,21.06-8.31,9.05-9.61,9.05-21.24,0-6.65-2.77-10.53a9,9,0,0,0-7.76-3.88q-12,0-26,22.54Q168,806.89,157.82,844.4q-2.59,10.53-4.9,17.36a70.83,70.83,0,0,1-3.69,9.42q-1.39,2.59-2.68,3a22.67,22.67,0,0,1-5.91.46q-4.06,0-5.36-.92T134,870.07q0-6.84,7.57-26.14t10.53-31.77a105.9,105.9,0,0,0,3-24.48,87.56,87.56,0,0,0-1.66-17.55,45,45,0,0,0-5.17-14,4.12,4.12,0,0,1-.55-1.48,3,3,0,0,0-.18-0.74q0-.9,5-3.41a31,31,0,0,1,8.13-3.05,33.72,33.72,0,0,1,6.14,14.22,95.59,95.59,0,0,1,1.62,18.29v8.68q7.57-15.89,15.33-25.12,13.49-16.07,28.63-16.07a19.94,19.94,0,0,1,15.79,7.48q6.37,7.48,6.37,18.75h0Zm91.37,65.58v15.7a24.37,24.37,0,0,1-15.33,5,21,21,0,0,1-9.33-2,32.48,32.48,0,0,1-8.77-6.84q-13.3,23.83-34.18,23.83-11.08,0-17.36-7t-6.28-19.77q0-20.51,12.1-34.08t31.87-13.58L277.82,811Q264,813,257.5,822.13T251,846.06q0,16.81,10.9,16.81,6.84,0,13.21-7.48a36.84,36.84,0,0,0,8.22-17.64A50.83,50.83,0,0,1,282,832a27.5,27.5,0,0,1-.28-4.06,71,71,0,0,1,.92-10.9,27.53,27.53,0,0,1,3.51-10.16h12.38a33.86,33.86,0,0,1,1.11,6.37q0.18,2.86.18,4.53a70.24,70.24,0,0,1-3.33,20.87q8.87,9.05,14.78,9.05,7.2,0,14.59-8.5h0Zm-0.37,16.44V840.33q10.34-10.16,14.59-15a77.83,77.83,0,0,0,12.38-18.1q-2.59-5.17-2.59-8.31a26.61,26.61,0,0,1,1.2-9q1.2-3.23,5.82-3.23,7.57,0,9.42,1.11t1.85,5.17q0,4.06-2.77,11.45,9.42,3.33,12.75,5.36,8.13,4.8,8.13,15.89a41.22,41.22,0,0,1-2.59,12.93q-5.91,17.18-5.91,19,0,3.14,3,3.14,8.13,0,29.74-21.61v15.7Q387,875.06,373.14,875.06a10,10,0,0,1-8.31-4.06q-3.14-4.06-3.14-10.53t4.8-17.92q4.8-11.45,4.8-15.7,0-8.31-9.61-12.19-5.91,12.19-20.87,26.79-5,4.8-15.33,14.22h0ZM465.32,812.1l16.21-62.27,15.15,0-19.11,74.82q-3,12.75-4.8,21.24T470.92,857q0,3.14,2,3.14,2.4,0,7.94-3.88,7.94-5.54,18.29-17v15.7Q487,866,479.33,870.53t-14.69,4.53q-5.91,0-7.94-5.73-1.29-3.69-1.29-11.64-16.07,17.36-26,17.36-8.31,0-14.32-7.85t-6-18.93q0-20.14,12.59-34.54,11.66-13.3,25-13.3a17.67,17.67,0,0,1,9.54,2.59q4.17,2.59,9.16,9.08h0Zm-6.78,29.53,4.06-18.1a65.53,65.53,0,0,0-8.13-9.14,9.39,9.39,0,0,0-6.1-2.49q-8.68,0-15.7,9.24-7.57,10-7.57,23.65,0,7.76,2.59,12.75t6.65,5q7.57,0,24.2-20.87h0Zm114.59-2.4v15.52q-28.45,20.51-55.23,20.51-9.79,0-14.87-8A33.33,33.33,0,0,1,498,849a57,57,0,0,1,12-35.75q12-15.61,27.71-15.61,14.78,0,14.78,14,0,12.56-12.93,22-6.84,5-22.17,11.27l-3.88,1.66v0.74a21.91,21.91,0,0,0,2,10.16,9.89,9.89,0,0,0,9.42,5.73,49.66,49.66,0,0,0,22.35-5.63q11.27-5.63,25.86-18.38h0Zm-57.82-4.8q11.45-4.25,18.29-9.88t6.84-11.18q0-4.06-4.25-4.06-6.1,0-12.38,7.48a40.34,40.34,0,0,0-8.5,17.64h0Zm146.92,4.8v15.62q-21.43,19.66-33.62,19.66-5.73,0-7.67-4.3A24.48,24.48,0,0,1,619,860.07V857q-8.87,9.79-14.69,13.67A20.49,20.49,0,0,1,593,874.51q-8.31,0-14.5-7.85a29.09,29.09,0,0,1-6.19-18.57q0-20,12.56-34.54,11.64-13.49,25.31-13.49a18.9,18.9,0,0,1,10.07,2.77,28.94,28.94,0,0,1,8.59,8.87l3.14-11.64h15.33l-9.61,39q-1.29,4.58-2.22,9.8a49.47,49.47,0,0,0-.92,7.23q0,3.48,2.22,3.48,3,0,9.7-5.4a166,166,0,0,0,15.79-14.92h0ZM622,841.46L626.22,823a93.14,93.14,0,0,0-8.31-9.05,9.8,9.8,0,0,0-6.28-2.4q-8.87,0-16,10.07a38.29,38.29,0,0,0-7.11,22.63q0,7.94,2.59,12.84t6.85,4.9q5.56,0,13.33-8.12,5.37-6.09,10.74-12.37h0Zm129.3-2.23v15.7A101.65,101.65,0,0,1,732,869.7q-9.14,5.17-16.35,5.17-5,0-7.11-5.36t-2.12-18.29a81.09,81.09,0,0,1-17.64,17.18q-9.33,6.47-16.72,6.47-10.53,0-10.53-24.94a90.87,90.87,0,0,1,2.59-20.78,248.37,248.37,0,0,1,9.24-28.73h15.15q-12,35.84-12,49.51,0,5.73.83,7.94a3,3,0,0,0,3,2.22q3.51,0,11.08-6.47a99.94,99.94,0,0,0,17.36-20.14q3.69-16.63,9.05-33.07h15.15l-7,25.31q-2.22,7.57-3.69,15.43a70,70,0,0,0-1.48,11.73q0,7.2,3.14,7.2,3.69,0,10.53-5.26a163.53,163.53,0,0,0,16.81-15.61h0ZM751,855.85v-15.7q1.66-2.22,3.5-4.43,5.89-6.84,6.63-7.76,11.6-14.59,15.47-18.29,9.94-9.79,17.67-9.79,7.55,0,11.42,12.47,1.47,5.69,3.13,11.19l20.3-23.66,8.31,7-24.85,29.63,1.3,4.82q3.71,12.43,5.28,15.87t4.17,3.43q5,0,14.82-8.5l14.46-12.93v15.7q-13.14,10.71-21.1,15.15t-14.06,4.43q-5.74,0-9.07-5.37-2.22-3.71-7.4-18.9l-20.42,24.12-8.31-7,25.06-29.61q-5.17-21.93-8.49-21.93-2,0-5.53,3.42t-9,10.07q-6.09,7.57-8.67,10.53A216.36,216.36,0,0,1,751,855.85h0Z" transform="translate(-0.5 -0.17)"/><path class="a" d="M952.9,682.9c-8,5.4-13.1,8.3-15.6,8.3-2.9,0-4.5-2.5-4.5-7.9s2.3-14,6.4-26.1c5.1-14.9,7.6-25.7,7.6-32.4,0-7.3-1.6-13.3-4.8-18.1s-7.3-7.3-12.1-7.3c-6.1,0-13.1,2.5-21,7.6-7.7,5.4-19.1,14.6-33.4,28.3,2.9-10.8,7-22.5,11.8-35.9H863.8q-13.16,36.15-16.32,59.26c-6.67,7.61-13.06,11.65-19.08,12-6.4,0-13.7-4.8-22.3-13.7a110.76,110.76,0,0,0,4.8-31.2,67.84,67.84,0,0,0-1.9-16.5H790.6c-4.5,7.3-6.7,18.1-6.7,31.5a51.91,51.91,0,0,0,2.5,14.9,50.52,50.52,0,0,1-12.1,26.1c-6,7.6-12.7,11.1-19.7,11.1-11.1,0-16.5-8.3-16.5-25.1,0-18.7,5.1-32.4,15.3-41.6,6-5.7,14.3-9.2,24.8-10.8l1.3-15.9c-13.4,0-24.2,2.6-33.1,8.3a65.46,65.46,0,0,0-24.2,26.7,77.91,77.91,0,0,0-7.82,23.4Q691.7,679.21,671.7,693l19.1-93.5H668.2L664.4,617c-6-7-10.8-11.5-14.3-14a24.67,24.67,0,0,0-12.7-3.5c-14.6,0-27.9,7.6-39.7,21.9a74.25,74.25,0,0,0-16.51,36.53c-18.93,20.48-31.52,30.86-37.69,30.77-2.2,0-3.2-1.9-3.2-5.4,0-5.4,1.6-14,4.5-26.1l14.3-58.5H536.2l-4.5,17.8c-8-11.8-17.2-17.8-28-17.8-13.6,0-26,7-37.8,20.7a75.91,75.91,0,0,0-18.05,38.44c-9.1,9-17.31,13.76-24.15,14.06-7.3,0-15.3-5.4-23.2-15.9,7.3-21.9,10.8-38.5,10.8-49.9,0-4.8-1.6-7.3-4.1-7.3-8.3,0-14,1.2-17.2,4.1-2.5,2.5-5.1,8-7,15.9a90.18,90.18,0,0,0-3.2,23.8,63.84,63.84,0,0,0,1.9,13.7,97.49,97.49,0,0,1-16.5,24.8c-6.4,7-11.8,10.5-15.9,10.5-6.3,0-9.5-6.7-9.5-19.7,0-14.9,6.3-39.4,18.4-73.1l-25.1,1.9c-7.3,22.2-12.4,39.7-14.9,53.4a96.08,96.08,0,0,1-20.3,27.3c-5.7,5.4-10.5,7.9-14,7.9-4.5,0-6.4-5-6.4-14.9q0-28.5,18.1-75.3l-24.5,2.5q-16.2,38.7-16.2,72.2c0,25.1,6,37.5,18.1,37.5q21.45,0,44.8-32.4c1.2,9.8,4.7,17.8,9.5,23.5s10.8,8.6,17.5,8.6c16.5,0,32.4-13,47.6-38.8,9.6,11.1,20.1,16.8,31.2,16.8a42.11,42.11,0,0,0,24.14-7.66A40,40,0,0,0,456,699.2c6,7.7,13.3,11.8,21.6,11.8,9.8,0,22.9-8.9,39.1-26.7-0.6,17.8,4.4,26.7,14.3,26.7,12.34,0,29-10.1,50.17-29.6a43.91,43.91,0,0,0,7.93,18.2c5.7,7.6,13,11.4,21.6,11.4,10.2,0,22.2-7.3,35.9-21.9l4.1-4.5-5.4,26.7a53.65,53.65,0,0,1-7.6,5.5c-26.7,19.1-40.1,33.7-40.1,44.2,0,5.1,2.9,9.9,8.3,13.4,5.4,3.8,11.8,5.7,19.7,5.7,10.2,0,18.5-4.5,24.5-13.7s11.4-25.4,16.5-48.3c20.43-13.22,35.78-25.47,47.52-36.46,1.3,7.79,4.17,14.12,8.68,19.06,6.4,7,15,10.5,26.1,10.5,20.7,0,37.8-12.1,51.2-35.6,8.2,8.9,17.1,13.4,27,13.4,6.93,0,13.36-2.33,19.52-6.61l0.48,11.91c0.4,7.3.7,12.4,1,15.9h22.3l-0.3-6.4c-0.3-8.5-.6-16.2-0.6-21.9a183.17,183.17,0,0,1,1-20l2.9-2.9c24.5-24.8,40.1-37.2,45.8-37.2,2.8,0,4.1,2.9,4.1,8.6,0,4.2-1.9,11.5-5.7,22.6-5.1,14.6-7.6,25.4-7.6,32.1,0,8,1.6,14.6,5.1,19.1a17.24,17.24,0,0,0,14,7q18.15,0,45.8-24.8l5.7-5.1V657.8A158.51,158.51,0,0,1,952.9,682.9ZM521.1,661.4a8.58,8.58,0,0,0-1.5,2.2c-13.9,19.4-25.7,28.9-34.6,28.9-3.9,0-7.1-2.5-9.9-7.6s-4.1-11.2-4.1-18.8a57.32,57.32,0,0,1,10.8-34.3c7-10.2,14.9-15.3,23.8-15.3a13.85,13.85,0,0,1,9.5,3.5c1.9,1.3,6,6.1,12.4,13.4Zm113.1,98c-2.2,4.1-5.1,6-8.9,6-6,0-8.9-2.3-8.9-6.4,0-4.8,8.3-13,24.5-25.1C638.3,746.9,635.8,755.5,634.2,759.4Zm22.2-101.8c0,0.6-.9,2.2-3.6,5.3l-4.5,5.7c-12.7,15.9-22.9,23.8-30.2,23.8-3.9,0-7.4-2.5-9.9-7.3-2.5-4.4-3.8-10.8-3.8-18.1,0-15.5,4.4-28.6,13-38.1,7-8,14-11.8,21.3-11.8a16.06,16.06,0,0,1,11.1,4.5c2.2,2.3,6,6.7,11.4,13.4Z" transform="translate(-0.5 -0.17)"/><path class="a" d="M115.5,668.8l5.7-2.2c15-6.1,26.1-11.8,33.4-17.2,13-9.6,19.4-20.7,19.4-33.1,0-13.7-7.4-20.7-22.3-20.7-15.6,0-29.2,7.9-41.3,23.5a84,84,0,0,0-17,38.77A145.85,145.85,0,0,1,62.8,682.7c-10.5,6.7-19.4,9.9-26.7,9.9-8.9,0-13.3-6.3-13-19.7,0.3-7.9,1-13.6,1.3-16.8,19.4-23.2,33.4-42,42.6-56.9,13-21.7,19.7-39.5,19.7-54.4a28.7,28.7,0,0,0-5.4-17.5c-3.5-4.8-8-7.3-13.4-7.3-7.3,0-13.6,3.1-20,9.5a94.45,94.45,0,0,0-15.3,22.6c-2.5,5.4-7.6,17.2-14.3,35.3A342.87,342.87,0,0,0,6.9,627.1C2.7,645.5.5,660.4,0.5,672.2c0,15,3.5,25.8,10.5,33.1,3.8,3.8,9.6,5.7,17.2,5.7,17.31,0,38.92-9.69,64.64-29.25A45.64,45.64,0,0,0,98,698.9c4.8,8.6,11.8,12.7,21.3,12.7,26.1,0,53.1-10.1,81.4-30.8V657.6c-27.3,23.8-50.9,35.9-70.9,36C119.6,693.6,114.9,685.3,115.5,668.8Zm15.2-45c6.1-7.3,12.4-11.1,18.8-11.1,4.5,0,6.4,2.3,6.4,6.4,0,12.1-12.4,22.6-37.5,31.5A63.54,63.54,0,0,1,130.7,623.8ZM54.9,549.9c3.5-7.3,7-10.8,10.5-10.8,3.2,0,5.1,3.1,5.1,9.5,0,9.6-3.9,21.3-11.8,35.3-5.1,8.6-15,23.2-29.9,44.5C34.9,599.4,43.4,573.4,54.9,549.9Z" transform="translate(-0.5 -0.17)"/><circle class="a" cx="474.17" cy="264.5" r="264.5"/><path class="b" d="M372.2,323.4a36.2,36.2,0,1,0,36.2,36.2,36.19,36.19,0,0,0-36.2-36.2h0Zm0,55.6a19.7,19.7,0,1,1,19.7-19.7A19.43,19.43,0,0,1,372.2,379h0Z" transform="translate(-0.5 -0.17)"/><path class="b" d="M582.3,323.4a36.2,36.2,0,1,0,36.2,36.2,36.19,36.19,0,0,0-36.2-36.2h0Zm0,55.6A19.7,19.7,0,1,1,602,359.3,19.8,19.8,0,0,1,582.3,379h0Z" transform="translate(-0.5 -0.17)"/><path class="b" d="M328.6,359.6a43.6,43.6,0,1,1,87.2,0h123a43.6,43.6,0,0,1,87.2,0l45.1-1s6.7-2.2,6.7-15.3-8.9-14.3-8.9-14.3l-21-.3s-0.6-13.4-20-32.7c-19.1-19.7-42-16.5-42-16.5l-299.1,1.3v59.1h0.6s-5.1-2.5-5.4,9.5c-0.3,11.8,5.1,9.9,5.1,9.9l41.5,0.3h0Z" transform="translate(-0.5 -0.17)"/><path class="b" d="M671.3,268.4h-3.8l-1.6-20.7s-12.7-40.4-40.7-69.3c-0.6-.6,6.4,0,5.7-0.6-29.2-29.2-114.1-23.8-151-25.1S305.7,161,292,173.4c-6,5.4-5.1,13.4-5.1,13.4v83H592.7s17.2-2.5,41.3,16.8c18.1,14.6,22.6,36.9,22.6,36.9h10.8l-0.3-32.7,4.8,0.3c4.8-7.4,2.9-20.2-.6-22.7h0ZM387.1,248.7a2.9,2.9,0,0,1-2.9,2.9H323.5a2.9,2.9,0,0,1-2.9-2.9V188.6a2.9,2.9,0,0,1,2.9-2.9h60.7a2.9,2.9,0,0,1,2.9,2.9v60.1h0Zm82.7,0a2.9,2.9,0,0,1-2.9,2.9H406.2a2.9,2.9,0,0,1-2.9-2.9V188.6a2.9,2.9,0,0,1,2.9-2.9h60.7a2.9,2.9,0,0,1,2.9,2.9v60.1h0Zm82.6,0a2.9,2.9,0,0,1-2.9,2.9H488.8a2.9,2.9,0,0,1-2.9-2.9V188.6a2.9,2.9,0,0,1,2.9-2.9h60.7a2.9,2.9,0,0,1,2.9,2.9v60.1h0Zm90.3,3.2H568a5.63,5.63,0,0,1-5.7-5.7v-55a5.63,5.63,0,0,1,5.7-5.7h35c21.3,0,45.1,42,45.1,52.8,0,10.4-2.5,13.6-5.4,13.6h0Z" transform="translate(-0.5 -0.17)"/></svg>
