<?xml version="1.0" encoding="utf-8"?>
<!DOCTYPE svg PUBLIC "-//W3C//DTD SVG 1.1//EN" "http://www.w3.org/Graphics/SVG/1.1/DTD/svg11.dtd">
<svg xmlns="http://www.w3.org/2000/svg" viewBox="0 0 408.29 100"><defs><style>.a{fill:#13120d;}.b{fill:#13110c;}</style></defs><title>MailChimp</title><path class="a" d="M501.32,172.84a2.82,2.82,0,1,0,2.82,2.82A2.82,2.82,0,0,0,501.32,172.84Zm0,5.23a2.41,2.41,0,1,1,2.41-2.41A2.4,2.4,0,0,1,501.32,178.06Z" transform="translate(-95.86 -104)"/><path class="a" d="M502.57,174.92a0.84,0.84,0,0,0-1-.9H500.3v3.25h0.41v-1.42h0.58l1,1.42h0.46l-1-1.42A0.88,0.88,0,0,0,502.57,174.92Zm-1.34.56h-0.52v-1.1h0.73a0.6,0.6,0,0,1,.73.54C502.16,175.46,501.68,175.48,501.23,175.48Z" transform="translate(-95.86 -104)"/><path class="b" d="M484.88,177.42H485c8.26,0,14.08-5.72,14.14-13.92a16.45,16.45,0,0,0-3.3-10.45,11.59,11.59,0,0,0-9.24-4.38h-0.08c-5.08,0-9.8,3.85-14.42,11.79l-0.37.63-0.24-.69c-1.17-3.4-2.21-6.23-2.83-7.93-0.43-1.18-.63-1.71-0.67-1.88a1.87,1.87,0,0,0-1.92-1.39,3.43,3.43,0,0,0-1.81.58,2.12,2.12,0,0,0-1,1.44l0,0.09c-4.63,14.44-8.45,21.45-11.68,21.45a1.44,1.44,0,0,1-1.11-.46c-0.85-.94-0.64-3.16-0.35-6.24a57.2,57.2,0,0,0,.35-7.55c-0.19-5.23-3.05-8.37-7.65-8.4-5.84,0-9.63,6.22-11.38,9.93l-0.52,1.11-0.12-1.22c-0.44-4.59-2-10.08-6.84-10.11-5.68,0-10,6.66-12.64,12.25l-0.71,1.5,0.07-1.65c0.31-7.46.57-11.86,0.76-13.08a3.16,3.16,0,0,0-.31-2.52,2.54,2.54,0,0,0-2.14-.54c-1.82.12-2.75,1.22-4.15,4.93-2.3,6.09-8.14,20.25-12.81,20.25a2.8,2.8,0,0,1-2.2-.94c-2-2.24-1.17-8.31-.09-16.7l0.08-.63c0.51-4-.36-4.82-2.52-5.22a3.72,3.72,0,0,0-.66-0.06c-1.72,0-2.53,1.65-4.14,6.24-2.87,8.16-6.55,16.75-10.86,16.75a2.94,2.94,0,0,1-.47,0c-2.28-.39-2.23-3.78-2.17-8.07a46.11,46.11,0,0,0-.29-7.33c-0.64-4.26-3.15-6.92-6.55-6.95-6.79,0-11.36,8.69-13.49,13.87L348.16,163,348,161.78c-0.29-2.25-.66-5.8-0.82-10v-0.12l0.08-.1c12.7-16,18.39-27.52,18.47-37.4,0-6.31-2.86-10.11-7.79-10.14-3.6,0-12.17,3-15.14,30.8-0.55,5.15-.86,10.44-0.9,15.71v0.1l-0.06.08c-5.81,8.41-18.21,22.87-30.34,22.87-11,0-19.72-8.87-19.72-24.53,0-21,14.86-33.89,26-33.89h0.09a9.35,9.35,0,0,1,6,2,6.64,6.64,0,0,1,2.38,5.33,9.72,9.72,0,0,1-1.88,5.83c-0.23.37-.47,0.74-0.68,1.13a1.49,1.49,0,0,0-.13,1.45,2.26,2.26,0,0,0,2,.82c2.66,0,6.69-3.85,6.73-9.66,0-6.08-5.07-12.34-14.21-12.34-13.82,0-32.43,15.18-32.43,39.79,0,17.41,10.91,29.44,25.7,29.44,10.49,0,20.87-7.51,30.06-20.06l0.56-.76,0,0.95c0.2,4.59.53,8.21,0.77,10.85,0.16,1.7.27,2.93,0.27,3.6a5,5,0,0,0,.74,3.15,3.08,3.08,0,0,0,2.55.94c2.06,0,2.48-1.41,3.29-4.88l0.24-1c1-4.21,4.77-17.94,10.41-17.94a2.83,2.83,0,0,1,2.14.82c1.25,1.32,1.11,4,1,7.18a40.18,40.18,0,0,0,0,6c0.53,5.33,2.83,7.93,7,8s8.81-4.64,11.19-9l0.45-.81,0.17,0.91c0.44,2.31,2.4,9.89,8.54,9.89,5.56,0,10.33-5.86,15.57-17.91l0.68-1.57,0,1.72c-0.11,4.57-.36,10.15-0.36,14.46,0,3.34.33,4.61,1.88,4.61l0.35,0c1.48,0,2.48-.88,3-2.63,3.93-13.72,7.34-20.11,10.71-20.11s3.61,6.06,3.87,16.72l0,0.75c0.08,3.73.21,5.38,2.53,5.4,1.76,0,2.2-1.38,3.1-4.78,0.17-.65.36-1.36,0.58-2.13,3.18-11,5.81-15.52,9.09-15.52,2.81,0,3,2.92,3,3.87a42,42,0,0,1-.3,6.23,42.73,42.73,0,0,0-.31,5.73c0.17,4.31,2.53,6.71,6.65,6.74,5.34,0,10.16-6.25,14.39-18.57l0.29-.86,0.33,0.84c0.77,1.94,1.76,4.56,2.69,7.68l0,0.12-0.05.11c-4.09,9.08-7,19.2-7,24.6-0.05,7.12,3.17,11.74,8.2,11.78h0.09c2.74,0,9.13-1.1,9.25-11.29,0-4.17-.94-10.08-2.93-17.54l-0.23-.86,0.74,0.49A15.25,15.25,0,0,0,484.88,177.42ZM347.19,142.88c0.11-2.55.33-5,.63-7.39,2-15.14,6.1-25.72,10-25.72h0c1.88,0,2.82,1.43,2.79,4.21-0.05,6.84-4.38,16.62-12.87,29.09l-0.66,1Zm125.47,54.44a3.07,3.07,0,0,1-2.59,1.26,3.36,3.36,0,0,1-2.84-1.3c-1.8-2.4-1.29-8,1.64-18.28,0.35-1.22.73-2.45,1.13-3.66l0.34-1,0.3,1C474.06,187.17,474.74,194.56,472.67,197.32ZM473.73,167l-0.06-.11-0.12-.39,0.06-.12c3.89-8,8.35-12.62,12.23-12.62h0c4.38,0,7.41,4,7.37,9.59a8.84,8.84,0,0,1-3.06,7,9.1,9.1,0,0,1-5.75,2.06A14.07,14.07,0,0,1,473.73,167Z" transform="translate(-95.86 -104)"/><path class="b" d="M225.49,176.1c6-.48,10.77-8.65,12.54-12.14l0.46-.9,0.17,1c0.85,4.91,3.52,13.16,11.88,13.22h0.07c3.61,0,7.71-2.21,11.86-6.39l0.3-.31,0.22,0.37c2.79,4.67,6.53,7.14,10.51,6.94,5.87-.3,9.43-4.46,9.74-7.35a2.44,2.44,0,0,0-.54-1.9,1.23,1.23,0,0,0-1.86-.12l-0.27.25c-1.37,1.31-3.91,3.75-6.68,3.9-3.39.17-5.9-1.86-7.53-6.05l-0.07-.18,0.11-.15c9.33-12.21,15.88-30.83,15.24-43.33-0.3-5.78-2-12.67-8.29-12.67H272.9a9.33,9.33,0,0,0-6.54,3.43c-5.86,6.55-8.93,22.69-7.81,41.1a41.35,41.35,0,0,0,2,10.63l0.06,0.18-0.12.14c-3.46,4-6.88,6.28-9.62,6.28-6.6,0-6.37-11.06-5.85-20.23,0.11-2,.28-3.24-0.31-4a2.63,2.63,0,0,0-2.14-.77h-0.12c-2.35,0-2.84.48-4,4-2.5,7.24-7.43,19.38-12.39,19.38a3.81,3.81,0,0,1-3.14-1.4c-2.41-3.07-.58-10.73.89-16.89,0.26-1.11.52-2.17,0.73-3.15,0.32-1.46.22-2.53-.29-3.17a3.32,3.32,0,0,0-2.91-.79c-2.13.17-3.48,1.06-4.14,5.1L217,151l-0.49-.6a6.94,6.94,0,0,0-6.1-3c-0.29,0-.6,0-0.91,0-3.58.29-7.67,2.79-10.65,6.52a21.82,21.82,0,0,0-4.69,15.51c0,0.3.07,0.59,0.11,0.87l0,0.16-0.11.12c-2.09,2.27-4.21,3.43-6.32,3.43-3.25,0-5.12-2.44-5.12-6.46,0-6.78,4.59-27.2,4.59-34.59,0-7.87-3.51-12.15-9.59-12.2h-0.09c-8.89,0-15.82,10.09-22.45,30.84-0.61,1.9-1.27,4.1-1.83,6l-0.93,3.12,0.28-3.24c0.62-7.23,1-14.26,1.26-20.91,0.33-10-1-16.48-4.15-19.73a9,9,0,0,0-6.81-2.64h-0.08c-10.88,0-16.09,18.35-19.88,31.29-1.14,3.91-3.4,12.72-4.91,18.75l0.89-1.45c0.67-7.59,2.61-26.59,2.48-36.91-0.14-11.06-3.82-16-11.94-16.08h-0.1a12.58,12.58,0,0,0-9.11,4,15.82,15.82,0,0,0-4.49,10.81c0.06,2.23,1.43,4.21,2.46,4.21,0.68,0,1-.9,1.21-1.44C102,119,105.3,115,109.48,115a5.17,5.17,0,0,1,4,1.56c3.26,3.5,2.67,12.95,1.59,30.1-0.35,5.53-.74,11.79-1.07,18.92-0.06,1.22-.13,2.4-0.21,3.53-0.32,4.95-.57,8.86,1.31,9.15,2.44,0.38,4-.61,4.84-3,1.21-3.59,3.91-13.39,9.14-31.3,5-17.19,8.82-23.44,13.67-23.44,5.61,0,6,9.63,5,29.95-0.22,4.31-.51,9.19-0.74,14.5q0,1.12-.1,2.17c-0.22,4.4-.39,7.87.87,9.2a2.13,2.13,0,0,0,1.63.62c2.43,0,3.16-2.13,4.37-5.66,0.21-.62.44-1.29,0.69-2,8.33-23,14.49-42.92,22.76-42.92,2.48,0,4.41,2,4.41,5.94,0,9.07-4.43,26.59-4.43,35.47a12.24,12.24,0,0,0,2.65,8A9.28,9.28,0,0,0,187,179h0.06c2.77,0,5.65-1.34,8.57-4l0.27-.25,0.22,0.3a9.4,9.4,0,0,0,8.37,3.71c5.14-.4,9.45-5,11.05-9.29l0.31-.84,0.31,0.84C217.4,172.68,220,176.54,225.49,176.1Zm47.34-60h0.09a1.88,1.88,0,0,1,1.53.88c2,2.76,2.07,12.82-1.44,24.28a81.76,81.76,0,0,1-7.8,17.88l-0.49.82L264.6,159c-0.36-2.77-.54-5.65-0.67-8.11C263,133.54,268.27,116.29,272.84,116.05Zm-57,40.46c-1.8,7.24-5.25,16-11.46,16.47l-0.51,0c-2.58,0-4-1.69-4.3-5a17.28,17.28,0,0,1,4.58-12.44c2-2.16,4.23-3.35,6.31-3.35h0c2.63,0,4.47,2.13,5.32,4.1l0,0.1Z" transform="translate(-95.86 -104)"/><path class="b" d="M244.66,130a4.06,4.06,0,1,0-.06,8.12l0,0.33h0v-0.33A4.06,4.06,0,1,0,244.66,130Z" transform="translate(-95.86 -104)"/><path class="b" d="M389,130a4.06,4.06,0,1,0-.06,8.12l0,0.33h0v-0.33A4.06,4.06,0,1,0,389,130Z" transform="translate(-95.86 -104)"/></svg>
