<?xml version="1.0" encoding="UTF-8"?>
<!DOCTYPE svg PUBLIC "-//W3C//DTD SVG 1.1//EN" "http://www.w3.org/Graphics/SVG/1.1/DTD/svg11.dtd">
<svg xmlns="http://www.w3.org/2000/svg" viewBox="0 0 300 78.09491">
  <title>Mozilla</title>
  <defs><style>.a{fill:#4E5050;}</style></defs>
  <path
     d="m 12.35343,22.33856 c 0.90868,1.40283 1.30945,2.65417 1.81703,5.29422 3.55379,-3.46879 7.93597,-5.29422 12.71892,-5.29422 4.3197,0 7.86475,1.40283 10.60794,4.26595 0.73904,0.71754 1.45188,1.64336 2.06663,2.55205 4.77354,-4.88944 9.0489,-6.818 14.77613,-6.818 4.07884,0 7.94471,1.21975 10.30527,3.25077 2.94811,2.54768 3.883,5.610677 3.883,12.741757 l 0,37.10092 -13.25304,0 0,-34.44272 c 0,-6.24356 -0.73904,-7.45089 -4.29316,-7.45089 -2.54735,0 -6.12767,1.73742 -9.06704,4.38689 l 0,37.50672 -12.9329,0 0,-33.95327 c 0,-6.51029 -0.94362,-8.03876 -4.73793,-8.03876 -2.52081,0 -6.01244,1.30575 -8.95148,3.96865 l 0,38.02338 -13.3424,0 0,-36.39379 C 1.9504,31.503007 1.43375,28.24787 0,25.68776 l 12.35343,-3.3492"
     class="a" />
  <path
     d="m 92.76422,37.613207 c -0.93556,2.76133 -1.43374,6.42664 -1.43374,11.62816 0,5.99833 0.61408,10.50581 1.72734,13.14621 1.22917,2.85505 4.30257,4.28006 6.92919,4.28006 5.91469,0 8.44423,-5.2949 8.44423,-17.62615 0,-7.03736 -0.91776,-11.63286 -2.74319,-13.98368 -1.31012,-1.71928 -3.43823,-2.74319 -5.89655,-2.74319 -3.26858,0 -5.92308,2.03001 -7.02728,5.29859 l 0,0 z m 24.55534,-7.53453 c 4.16853,4.88977 6.03025,10.59417 6.03025,19.05183 0,8.96895 -2.05723,15.09594 -6.55564,20.18223 -3.95421,4.48027 -9.16479,7.2416 -17.19885,7.2416 -14.18826,0 -23.44241,-10.60391 -23.44241,-27.0056 0,-16.41614 9.3519,-27.326407 23.44241,-27.326407 7.43711,0 13.24464,2.55674 17.72424,7.856347 l 0,0 z"
     class="a" />
  <path
     d="m 167.27746,23.24724 0,9.377767 -23.05005,33.32542 23.95,0 -3.26892,9.48158 -38.40532,0 0,-8.457 24.53821,-34.14374 -22.4904,0 0,-9.584027 38.72648,0"
     class="a" />
  <path
     d="m 188.77082,22.01775 0,53.414257 -13.65481,0 0,-51.268017 13.65481,-2.14624 0,0 z m 1.60271,-13.13782 c 0,4.69493 -3.73216,8.44389 -8.45229,8.44389 -4.56963,0 -8.32766,-3.74896 -8.32766,-8.44389 0,-4.68486 3.88333,-8.46573 8.55811,-8.46573 4.5787,0 8.22184,3.78087 8.22184,8.46573 l 0,0 z"
     class="a" />
  <path
     d="m 213.6379,13.57486 0,40.659067 c 0,8.98205 0.10716,10.18937 0.92683,11.61438 0.51632,0.92582 1.62051,1.42535 2.76099,1.42535 0.48978,0 0.78338,0 1.52276,-0.18779 l 2.3337,8.14492 c -2.3337,0.91305 -5.19245,1.42198 -8.14895,1.42198 -5.82567,0 -10.51052,-2.74453 -12.13238,-7.11765 -1.02391,-2.65383 -1.24663,-4.29249 -1.24663,-11.7296 l 0,-38.950197 c 0,-6.82237 -0.17737,-10.9909 -0.6863,-15.69793 L 212.9348,0 c 0.48945,2.85069 0.7031,6.21703 0.7031,13.57486"
     class="a" />
  <path
     d="m 241.96101,13.57486 0,40.659067 c 0,8.98205 0.11657,10.18937 0.95404,11.61438 0.48038,0.92582 1.58457,1.42535 2.72539,1.42535 0.51632,0 0.82806,0 1.5493,-0.18779 l 2.32529,8.14492 c -2.32529,0.91305 -5.18471,1.42198 -8.15062,1.42198 -5.81526,0 -10.50918,-2.74453 -12.13911,-7.11765 -1.04204,-2.65383 -1.21169,-4.29249 -1.21169,-11.7296 l 0,-38.950197 c 0,-6.82237 -0.20424,-10.9909 -0.73031,-15.69793 L 241.23104,0 c 0.56167,2.85069 0.72997,6.21703 0.72997,13.57486"
     class="a" />
  <path
     d="m 281.08892,52.604007 c -9.44126,0 -12.75418,1.71894 -12.75418,7.9625 0,4.06104 2.58295,6.8133 6.04704,6.8133 2.53861,0 5.10443,-1.32692 7.12638,-3.56252 l 0.22272,-11.21328 -0.64196,0 0,0 z M 263.39088,25.18824 c 5.07756,-2.14659 9.44261,-3.05527 14.25176,-3.05527 8.78217,0 14.7852,3.25178 16.84209,9.067037 0.67723,2.13852 0.98897,3.76844 0.92683,9.37878 l -0.33022,17.52067 0,0.92548 c 0,5.60261 0.92683,7.74919 4.91866,10.69797 l -7.25135,8.372 c -3.18963,-1.33599 -6.02991,-3.68715 -7.35783,-6.32855 -1.00611,1.02895 -2.13751,2.02665 -3.17083,2.74789 -2.5292,1.83551 -6.22508,2.85942 -10.50111,2.85942 -11.62245,0 -17.93722,-5.92342 -17.93722,-16.29957 0,-12.25096 8.47916,-17.96544 25.08039,-17.96544 0.99805,0 1.94201,0 3.07341,0.11623 l 0,-2.12844 c 0,-5.82063 -1.1314,-7.75792 -6.15454,-7.75792 -4.32877,0 -9.46814,2.1281 -15.06201,5.90897 l -5.81593,-9.787937 c 2.77007,-1.73742 4.81016,-2.74789 8.4879,-4.27132 l 0,0 z"
     class="a" />
</svg>
