<?xml version="1.0" encoding="utf-8"?>
<!DOCTYPE svg PUBLIC "-//W3C//DTD SVG 1.1//EN" "http://www.w3.org/Graphics/SVG/1.1/DTD/svg11.dtd">
<svg  xmlns="http://www.w3.org/2000/svg" viewBox="0 0 710 250">
<defs><style>.a{fill:#454546;}</style></defs>
<title>Proto.io</title>
<path class="a" d="M346.262,31.266l-29.934,12.829V126.3h0.045c0.848,31.139,26.34,56.125,57.684,56.125v-29.934
	c-15.352,0-27.795-12.445-27.795-27.795v-28.25h27.795V66.543h-27.795V31.266z"/>
<path class="a" d="M246.978,66.543c-31.887,0-57.73,25.846-57.73,57.729s25.844,57.728,57.73,57.728
	c31.879,0,57.725-25.846,57.725-57.728S278.857,66.543,246.978,66.543 M246.978,152.066c-15.352,0-27.795-12.445-27.795-27.795
	s12.443-27.795,27.795-27.795c15.348,0,27.795,12.445,27.795,27.795S262.326,152.066,246.978,152.066"/>
<path class="a" d="M439.002,66.543c-31.885,0-57.731,25.846-57.731,57.729s25.846,57.728,57.731,57.728
	c31.881,0,57.726-25.846,57.726-57.728S470.883,66.543,439.002,66.543 M439.002,152.066c-15.352,0-27.795-12.445-27.795-27.795
	s12.443-27.795,27.795-27.795c15.35,0,27.793,12.445,27.793,27.795S454.352,152.066,439.002,152.066"/>
<path class="a" d="M57.728,66.543C25.846,66.543,0,92.388,0,124.271c0,0.764,0.03,1.518,0.059,2.273H0v78.971l29.933,12.83
	v-43.475c8.245,4.539,17.717,7.129,27.795,7.129c31.883,0,57.727-25.846,57.727-57.728S89.61,66.543,57.728,66.543 M57.728,152.066
	c-15.35,0-27.795-12.445-27.795-27.795s12.445-27.795,27.795-27.795s27.795,12.445,27.795,27.795S73.077,152.066,57.728,152.066"/>
<path class="a" d="M127.152,122.668h-0.039v59.758h29.932v-58.154c0-15.35,12.443-27.795,27.795-27.795V66.543
	C153.496,66.543,128.003,91.529,127.152,122.668"/>
<path class="a" d="M651.438,66.543c-31.879,0-57.729,25.846-57.729,57.729s25.85,57.728,57.729,57.728
	c31.883,0,57.731-25.846,57.731-57.728S683.32,66.543,651.438,66.543 M651.438,152.066c-15.348,0-27.791-12.445-27.791-27.795
	s12.443-27.795,27.791-27.795c15.352,0,27.795,12.445,27.795,27.795S666.789,152.066,651.438,152.066"/>
<rect x="552.85" y="66.543" class="a" width="29.936" height="115.455"/>
<path class="a" d="M520.941,143.191c-10.715,0-19.402,8.689-19.402,19.406c0,10.715,8.688,19.402,19.402,19.402
	c10.717,0,19.404-8.688,19.404-19.402C540.346,151.88,531.658,143.191,520.941,143.191"/>
</svg>
