<?xml version="1.0" encoding="utf-8"?>
<!DOCTYPE svg PUBLIC "-//W3C//DTD SVG 1.1//EN" "http://www.w3.org/Graphics/SVG/1.1/DTD/svg11.dtd">
<svg xmlns="http://www.w3.org/2000/svg" viewBox="0 0 500 151.48"><defs><style>.a{fill:#808184;}.b{fill:#26a9e0;}</style></defs><title>region-alpc</title><rect class="a" y="8.14" width="1.97" height="142.64"/><rect class="a" x="498.03" y="8.21" width="1.97" height="142.57"/><path class="a" d="M49.62,31.84v0.73H44l-5-8H34.69v8H29.47V8.21c3.48,0,6.93,0,10.41,0a8.15,8.15,0,0,1,8.59,8.35,7.75,7.75,0,0,1-4.35,7.17ZM39.84,20.25a3.54,3.54,0,0,0,3.58-3.79,3.48,3.48,0,0,0-3.58-3.69H34.62v7.48h5.22Z"/><path class="a" d="M130.13,12.81h-9.67v4.94h9v4.56h-9v5.57h10v4.73H115.2V8.25h14.93v4.56Zm-9.64-6.92V5.43L123.1,0l4.45,1.64V2.05l-3.09,3.83h-4Z"/><path class="a" d="M207.61,7.94c4.84,0,9.67,2.33,11.07,8h-5.11c-1.22-2.37-3.17-3.31-6-3.31-4.56,0-7.13,3.45-7.13,7.8,0,4.63,2.79,7.76,7.13,7.76,3.34,0,5.78-1,6.82-4.67h-6.65V19.14H219.2a16.77,16.77,0,0,1-.73,6.82c-1.84,4.91-6.19,7-10.86,7-6.44,0-12.42-4.42-12.42-12.49S201.21,7.94,207.61,7.94Z"/><path class="a" d="M295.71,28.47v4.14H283.6V28.47H287V12.28h-3.17v-4h11.55v4h-3.17V28.47h3.44Z"/><path class="a" d="M372.43,33C365.92,33,360,28.64,360,20.43s6-12.56,12.49-12.56,12.39,4.38,12.39,12.56C384.92,27.84,379.81,33,372.43,33Zm0.07-4.77c3.79,0,7.24-2.5,7.24-7.83s-3.41-7.76-7.2-7.76-7.24,2.61-7.24,7.76C365.3,25.75,368.6,28.26,372.5,28.26Z"/><path class="a" d="M456.11,18.69V32.61h-5.18V8.15h1.64l13.67,13.92V8.25h5.22V32.68h-1.57Z"/><path class="b" d="M35.05,70.9l-1.66,3.61H25.47v-1L38.79,45.19h3.48L55.46,73.47v1H47.62l-1.7-3.61H35.05Zm2.45-6.34h6l-3-7Z"/><path class="b" d="M86.36,74.84H79.51l-1.12-1.91a16.37,16.37,0,0,1-8,2C62.8,74.8,55.83,69.32,55.83,60c0-9.08,6-15.1,14.89-15.1,7.43,0,14.85,5.06,14.85,15.1a15.57,15.57,0,0,1-2.24,8.54l3,5.18v1.12Zm-15.64-7C74.33,67.87,78,65.26,78,60s-3.65-7.88-7.3-7.88-7.26,2.7-7.26,7.88S67,67.87,70.72,67.87Z"/><path class="b" d="M90,64.93V45.48h7.59V64.76c0,2.41,2.12,3.44,4.27,3.44s4.19-1,4.19-3.44V45.48h7.51V64.93c0,6.51-5.64,10-11.74,10S90,71.44,90,64.93Z"/><path class="b" d="M133.38,68.37v6.14h-15V68.37h3.69V51.62h-3.36V45.48H133v6.14h-3.36V68.37h3.69Z"/><path class="b" d="M136.11,52.11V45.48h21.57v6.64h-7.09v22.4h-7.34V52.11h-7.13Z"/><path class="b" d="M165.18,70.9l-1.66,3.61H155.6v-1l13.31-28.29h3.48l13.19,28.29v1h-7.84L176,70.9H165.18Zm2.45-6.34h6l-3-7Z"/><path class="b" d="M202,68.37v6.14h-15V68.37h3.69V51.62H187.4V45.48h14.31v6.14h-3.36V68.37H202Z"/><path class="b" d="M214.69,59.54v15H207.1V45.35h2.36l15.14,14.31V45.48h7.59V74.59H230Z"/><path class="b" d="M255.64,52.07H245.1v4.15h9.71v6.64H245.1v4.73H256v6.93h-18.5v-29h18.13v6.6Z"/><path class="b" d="M103.59,105.86h10.49v6.8H96v-29h7.59v22.24Z"/><path class="b" d="M133,106.52v6.14H118v-6.14h3.69V89.76h-3.36V83.62h14.31v6.14h-3.36v16.76H133Z"/><path class="b" d="M162.71,83.54h2.7v29.12h-7.59V99.26l-6.18,6.47h-0.87l-6.18-6.47v13.4H137V83.54h2.7l11.53,12.57Z"/><path class="b" d="M183.65,113.2c-7.67,0-14.85-5-14.85-15.06s7.42-15.1,15-15.1,14.81,5.06,14.81,15.1C198.58,107,192.44,113.2,183.65,113.2Zm0-7.18c3.61,0,7.3-2.7,7.3-7.88s-3.61-7.88-7.22-7.88c-3.77,0-7.38,2.57-7.38,7.88S180,106,183.69,106Z"/><path class="b" d="M202.37,103.08V83.62H210v19.29c0,2.41,2.12,3.44,4.27,3.44s4.19-1,4.19-3.44V83.62h7.51v19.45c0,6.51-5.64,10-11.74,10S202.37,109.59,202.37,103.08Z"/><path class="b" d="M237,103.74c0,2,2.28,3,4.6,3,2.16,0,4.44-1,4.44-2.74,0-2.78-3.23-2.9-5.35-3-5.31-.33-10.62-2.45-10.62-8.5,0-6.31,5.35-9.5,11.28-9.5,5.6,0,11.28,3.19,11.16,9.5h-7.09c0-2-1.91-2.82-3.94-2.82-1.7,0-3.94.45-3.94,2.65,0,2,1.66,2.41,4.44,2.7,6.18,0.54,11.57,2,11.57,9,0,6.1-5.93,9.29-11.86,9.29-6.14,0-12-3.07-11.9-9.58H237Z"/><path class="b" d="M270.38,106.52v6.14h-15v-6.14h3.69V89.76h-3.36V83.62h14.31v6.14h-3.36v16.76h3.69Z"/><path class="b" d="M281.85,97.69v15h-7.59V83.5h2.36l15.14,14.31V83.62h7.59v29.12h-2.24Z"/><path class="b" d="M62.09,150.77v-29c4.31,0,8.5,0,12.82,0,7,0,10.53,5.43,10.41,10.91,0,5.31-3.53,10.62-10.41,10.62H69.68v7.51H62.09Zm12.82-14.1c2,0,3.15-2.12,3.15-4.23s-1.08-4.11-3.15-4.11H69.55v8.34h5.35Z"/><path class="b" d="M101.61,151.35c-7.67,0-14.85-5-14.85-15.05s7.42-15.1,15-15.1,14.81,5.06,14.81,15.1C116.54,145.17,110.4,151.35,101.61,151.35Zm0-7.18c3.61,0,7.3-2.7,7.3-7.88s-3.61-7.88-7.22-7.88c-3.77,0-7.38,2.57-7.38,7.88S97.92,144.17,101.65,144.17Z"/><path class="b" d="M133.58,144.67v6.14h-15v-6.14h3.69V127.91h-3.36v-6.14h14.31v6.14h-3.36v16.76h3.69Z"/><path class="b" d="M135.72,128.41v-6.64h21.57v6.64H150.2v22.4h-7.34v-22.4h-7.13Z"/><path class="b" d="M172.56,151.35c-7.67,0-14.85-5-14.85-15.05s7.43-15.1,15-15.1,14.81,5.06,14.81,15.1C187.5,145.17,181.36,151.35,172.56,151.35Zm0-7.18c3.61,0,7.3-2.7,7.3-7.88s-3.61-7.88-7.22-7.88c-3.77,0-7.38,2.57-7.38,7.88S168.87,144.17,172.6,144.17Z"/><path class="b" d="M190.89,141.23V121.78h7.59v19.29c0,2.41,2.11,3.44,4.27,3.44s4.19-1,4.19-3.44V121.78h7.51v19.45c0,6.51-5.64,10-11.74,10S190.89,147.74,190.89,141.23Z"/><path class="b" d="M218.63,134h15V140h-15V134Z"/><path class="b" d="M251.39,121.48c6,0,12.53,3.24,13.65,11h-7.3c-1-3-3.23-4.15-6.35-4.15-4.4,0-7.26,3.15-7.26,8,0,4.19,2.82,7.88,7.26,7.88,3.15,0,5.64-1.45,6.43-4.6h7.3c-1.12,8.25-7.55,11.53-13.73,11.53-7.43,0-14.85-5-14.85-14.76C236.54,126.34,244,121.48,251.39,121.48Z"/><path class="b" d="M285.11,150.81V139.19h-9v11.62h-7.59v-29h7.59v10.49h9V121.78h7.59v29h-7.59Z"/><path class="b" d="M303.85,147.2l-1.66,3.61h-7.92v-1l13.32-28.29h3.48l13.19,28.29v1h-7.84l-1.7-3.61H303.85Zm2.45-6.35h6l-3-7Z"/><path class="b" d="M350.5,149.69v1.08h-8l-5-9.08h-4v9.08h-7.59v-29c4.31,0,8.5,0,12.77,0A10,10,0,0,1,349.14,132a10.18,10.18,0,0,1-4.31,8.46ZM338.64,135.5c2.12,0,3.15-1.82,3.15-3.65s-1-3.53-3.15-3.53h-5.27v7.18h5.27Z"/><path class="b" d="M371.82,128.37H361.28v4.15H371v6.64h-9.71v4.73h10.91v6.93h-18.5v-29h18.13v6.59Z"/><path class="b" d="M384,135.83v15h-7.59V121.65h2.36L393.88,136V121.78h7.59v29.12h-2.24Z"/><path class="b" d="M404.32,128.41v-6.64h21.57v6.64H418.8v22.4h-7.34v-22.4h-7.13Z"/><path class="b" d="M446.87,128.37H436.34v4.15H446v6.64h-9.71v4.73h10.91v6.93h-18.5v-29h18.13v6.59Z"/><path class="b" d="M457.2,141.89c0,2,2.28,3,4.6,3,2.16,0,4.44-1,4.44-2.74,0-2.78-3.24-2.9-5.35-3-5.31-.33-10.62-2.45-10.62-8.5,0-6.3,5.35-9.5,11.28-9.5,5.6,0,11.28,3.19,11.16,9.5h-7.09c0-2-1.91-2.82-3.94-2.82-1.7,0-3.94.46-3.94,2.66,0,1.95,1.66,2.4,4.44,2.69,6.18,0.54,11.57,2,11.57,9,0,6.09-5.93,9.29-11.86,9.29-6.14,0-12-3.07-11.9-9.58h7.22Z"/></svg>
